<svg xmlns="http://www.w3.org/2000/svg" viewBox="0 0 1000 1000"><defs><linearGradient id="fade" x1="0" y1="0" x2="0" y2="1"><stop offset="0" stop-color="#000" stop-opacity="0"/><stop offset="1" stop-color="#000" stop-opacity=".55"/></linearGradient></defs><rect width="1000" height="1000" fill="#0d1117"/><line x1="-600" y1="1000" x2="-23" y2="0" stroke="#5ad1e6" stroke-opacity=".06"/><line x1="-600" y1="1000" x2="-1177" y2="0" stroke="#5ad1e6" stroke-opacity=".06"/><line x1="-540" y1="1000" x2="37" y2="0" stroke="#5ad1e6" stroke-opacity=".06"/><line x1="-540" y1="1000" x2="-1117" y2="0" stroke="#5ad1e6" stroke-opacity=".06"/><line x1="-480" y1="1000" x2="97" y2="0" stroke="#5ad1e6" stroke-opacity=".06"/><line x1="-480" y1="1000" x2="-1057" y2="0" stroke="#5ad1e6" stroke-opacity=".06"/><line x1="-420" y1="1000" x2="157" y2="0" stroke="#5ad1e6" stroke-opacity=".06"/><line x1="-420" y1="1000" x2="-997" y2="0" stroke="#5ad1e6" stroke-opacity=".06"/><line x1="-360" y1="1000" x2="217" y2="0" stroke="#5ad1e6" stroke-opacity=".06"/><line x1="-360" y1="1000" x2="-937" y2="0" stroke="#5ad1e6" stroke-opacity=".06"/><line x1="-300" y1="1000" x2="277" y2="0" stroke="#5ad1e6" stroke-opacity=".06"/><line x1="-300" y1="1000" x2="-877" y2="0" stroke="#5ad1e6" stroke-opacity=".06"/><line x1="-240" y1="1000" x2="337" y2="0" stroke="#5ad1e6" stroke-opacity=".06"/><line x1="-240" y1="1000" x2="-817" y2="0" stroke="#5ad1e6" stroke-opacity=".06"/><line x1="-180" y1="1000" x2="397" y2="0" stroke="#5ad1e6" stroke-opacity=".06"/><line x1="-180" y1="1000" x2="-757" y2="0" stroke="#5ad1e6" stroke-opacity=".06"/><line x1="-120" y1="1000" x2="457" y2="0" stroke="#5ad1e6" stroke-opacity=".06"/><line x1="-120" y1="1000" x2="-697" y2="0" stroke="#5ad1e6" stroke-opacity=".06"/><line x1="-60" y1="1000" x2="517" y2="0" stroke="#5ad1e6" stroke-opacity=".06"/><line x1="-60" y1="1000" x2="-637" y2="0" stroke="#5ad1e6" stroke-opacity=".06"/><line x1="0" y1="1000" x2="577" y2="0" stroke="#5ad1e6" stroke-opacity=".06"/><line x1="0" y1="1000" x2="-577" y2="0" stroke="#5ad1e6" stroke-opacity=".06"/><line x1="60" y1="1000" x2="637" y2="0" stroke="#5ad1e6" stroke-opacity=".06"/><line x1="60" y1="1000" x2="-517" y2="0" stroke="#5ad1e6" stroke-opacity=".06"/><line x1="120" y1="1000" x2="697" y2="0" stroke="#5ad1e6" stroke-opacity=".06"/><line x1="120" y1="1000" x2="-457" y2="0" stroke="#5ad1e6" stroke-opacity=".06"/><line x1="180" y1="1000" x2="757" y2="0" stroke="#5ad1e6" stroke-opacity=".06"/><line x1="180" y1="1000" x2="-397" y2="0" stroke="#5ad1e6" stroke-opacity=".06"/><line x1="240" y1="1000" x2="817" y2="0" stroke="#5ad1e6" stroke-opacity=".06"/><line x1="240" y1="1000" x2="-337" y2="0" stroke="#5ad1e6" stroke-opacity=".06"/><line x1="300" y1="1000" x2="877" y2="0" stroke="#5ad1e6" stroke-opacity=".06"/><line x1="300" y1="1000" x2="-277" y2="0" stroke="#5ad1e6" stroke-opacity=".06"/><line x1="360" y1="1000" x2="937" y2="0" stroke="#5ad1e6" stroke-opacity=".06"/><line x1="360" y1="1000" x2="-217" y2="0" stroke="#5ad1e6" stroke-opacity=".06"/><line x1="420" y1="1000" x2="997" y2="0" stroke="#5ad1e6" stroke-opacity=".06"/><line x1="420" y1="1000" x2="-157" y2="0" stroke="#5ad1e6" stroke-opacity=".06"/><line x1="480" y1="1000" x2="1057" y2="0" stroke="#5ad1e6" stroke-opacity=".06"/><line x1="480" y1="1000" x2="-97" y2="0" stroke="#5ad1e6" stroke-opacity=".06"/><line x1="540" y1="1000" x2="1117" y2="0" stroke="#5ad1e6" stroke-opacity=".06"/><line x1="540" y1="1000" x2="-37" y2="0" stroke="#5ad1e6" stroke-opacity=".06"/><line x1="600" y1="1000" x2="1177" y2="0" stroke="#5ad1e6" stroke-opacity=".06"/><line x1="600" y1="1000" x2="23" y2="0" stroke="#5ad1e6" stroke-opacity=".06"/><line x1="660" y1="1000" x2="1237" y2="0" stroke="#5ad1e6" stroke-opacity=".06"/><line x1="660" y1="1000" x2="83" y2="0" stroke="#5ad1e6" stroke-opacity=".06"/><line x1="720" y1="1000" x2="1297" y2="0" stroke="#5ad1e6" stroke-opacity=".06"/><line x1="720" y1="1000" x2="143" y2="0" stroke="#5ad1e6" stroke-opacity=".06"/><line x1="780" y1="1000" x2="1357" y2="0" stroke="#5ad1e6" stroke-opacity=".06"/><line x1="780" y1="1000" x2="203" y2="0" stroke="#5ad1e6" stroke-opacity=".06"/><line x1="840" y1="1000" x2="1417" y2="0" stroke="#5ad1e6" stroke-opacity=".06"/><line x1="840" y1="1000" x2="263" y2="0" stroke="#5ad1e6" stroke-opacity=".06"/><line x1="900" y1="1000" x2="1477" y2="0" stroke="#5ad1e6" stroke-opacity=".06"/><line x1="900" y1="1000" x2="323" y2="0" stroke="#5ad1e6" stroke-opacity=".06"/><line x1="960" y1="1000" x2="1537" y2="0" stroke="#5ad1e6" stroke-opacity=".06"/><line x1="960" y1="1000" x2="383" y2="0" stroke="#5ad1e6" stroke-opacity=".06"/><line x1="1020" y1="1000" x2="1597" y2="0" stroke="#5ad1e6" stroke-opacity=".06"/><line x1="1020" y1="1000" x2="443" y2="0" stroke="#5ad1e6" stroke-opacity=".06"/><line x1="1080" y1="1000" x2="1657" y2="0" stroke="#5ad1e6" stroke-opacity=".06"/><line x1="1080" y1="1000" x2="503" y2="0" stroke="#5ad1e6" stroke-opacity=".06"/><line x1="1140" y1="1000" x2="1717" y2="0" stroke="#5ad1e6" stroke-opacity=".06"/><line x1="1140" y1="1000" x2="563" y2="0" stroke="#5ad1e6" stroke-opacity=".06"/><line x1="1200" y1="1000" x2="1777" y2="0" stroke="#5ad1e6" stroke-opacity=".06"/><line x1="1200" y1="1000" x2="623" y2="0" stroke="#5ad1e6" stroke-opacity=".06"/><line x1="1260" y1="1000" x2="1837" y2="0" stroke="#5ad1e6" stroke-opacity=".06"/><line x1="1260" y1="1000" x2="683" y2="0" stroke="#5ad1e6" stroke-opacity=".06"/><line x1="1320" y1="1000" x2="1897" y2="0" stroke="#5ad1e6" stroke-opacity=".06"/><line x1="1320" y1="1000" x2="743" y2="0" stroke="#5ad1e6" stroke-opacity=".06"/><line x1="1380" y1="1000" x2="1957" y2="0" stroke="#5ad1e6" stroke-opacity=".06"/><line x1="1380" y1="1000" x2="803" y2="0" stroke="#5ad1e6" stroke-opacity=".06"/><line x1="1440" y1="1000" x2="2017" y2="0" stroke="#5ad1e6" stroke-opacity=".06"/><line x1="1440" y1="1000" x2="863" y2="0" stroke="#5ad1e6" stroke-opacity=".06"/><line x1="1500" y1="1000" x2="2077" y2="0" stroke="#5ad1e6" stroke-opacity=".06"/><line x1="1500" y1="1000" x2="923" y2="0" stroke="#5ad1e6" stroke-opacity=".06"/><line x1="1560" y1="1000" x2="2137" y2="0" stroke="#5ad1e6" stroke-opacity=".06"/><line x1="1560" y1="1000" x2="983" y2="0" stroke="#5ad1e6" stroke-opacity=".06"/><line x1="1620" y1="1000" x2="2197" y2="0" stroke="#5ad1e6" stroke-opacity=".06"/><line x1="1620" y1="1000" x2="1043" y2="0" stroke="#5ad1e6" stroke-opacity=".06"/><line x1="1680" y1="1000" x2="2257" y2="0" stroke="#5ad1e6" stroke-opacity=".06"/><line x1="1680" y1="1000" x2="1103" y2="0" stroke="#5ad1e6" stroke-opacity=".06"/><line x1="1740" y1="1000" x2="2317" y2="0" stroke="#5ad1e6" stroke-opacity=".06"/><line x1="1740" y1="1000" x2="1163" y2="0" stroke="#5ad1e6" stroke-opacity=".06"/><polygon points="118,65 219,123 219,474 118,416" fill="#2b3139"/><polygon points="219,123 320,65 320,416 219,474" fill="#171b21"/><polygon points="219,123 320,65 219,6 118,65" fill="#6f7782"/><polyline points="118,65 219,123 320,65" fill="none" stroke="#5ad1e6" stroke-width="2" stroke-opacity=".8"/><polygon points="577,116 647,156 647,528 577,488" fill="#2b3139"/><polygon points="647,156 717,116 717,488 647,528" fill="#171b21"/><polygon points="647,156 717,116 647,75 577,116" fill="#6f7782"/><polyline points="577,116 647,156 717,116" fill="none" stroke="#5ad1e6" stroke-width="2" stroke-opacity=".8"/><polygon points="358,105 435,149 435,584 358,540" fill="#2b3139"/><polygon points="435,149 512,105 512,540 435,584" fill="#171b21"/><polygon points="435,149 512,105 435,60 358,105" fill="#6f7782"/><polyline points="358,105 435,149 512,105" fill="none" stroke="#5ad1e6" stroke-width="2" stroke-opacity=".8"/><polygon points="380,336 484,396 484,654 380,594" fill="#2b3139"/><polygon points="484,396 588,336 588,594 484,654" fill="#171b21"/><polygon points="484,396 588,336 484,276 380,336" fill="#6f7782"/><polyline points="380,336 484,396 588,336" fill="none" stroke="#5ad1e6" stroke-width="2" stroke-opacity=".8"/><polygon points="132,257 249,325 249,707 132,639" fill="#2b3139"/><polygon points="249,325 366,257 366,639 249,707" fill="#171b21"/><polygon points="249,325 366,257 249,190 132,257" fill="#6f7782"/><polyline points="132,257 249,325 366,257" fill="none" stroke="#5ad1e6" stroke-width="2" stroke-opacity=".8"/><polygon points="263,253 329,291 329,715 263,677" fill="#2b3139"/><polygon points="329,291 395,253 395,677 329,715" fill="#171b21"/><polygon points="329,291 395,253 329,215 263,253" fill="#6f7782"/><polyline points="263,253 329,291 395,253" fill="none" stroke="#5ad1e6" stroke-width="2" stroke-opacity=".8"/><polygon points="213,389 291,434 291,736 213,691" fill="#2b3139"/><polygon points="291,434 369,389 369,691 291,736" fill="#171b21"/><polygon points="291,434 369,389 291,344 213,389" fill="#6f7782"/><polyline points="213,389 291,434 369,389" fill="none" stroke="#5ad1e6" stroke-width="2" stroke-opacity=".8"/><rect y="640" width="1000" height="360" fill="url(#fade)"/><text x="70" y="96" font-family="'Sora','DM Sans','Helvetica Neue',Helvetica,Arial,sans-serif" font-size="26" font-weight="600" letter-spacing="9" fill="rgba(90,209,230,.85)" text-anchor="start">WUNDERLAND RECORDS</text><text x="70" y="930" font-family="'Sora','DM Sans','Helvetica Neue',Helvetica,Arial,sans-serif" font-size="118" font-weight="800" letter-spacing="-1" fill="#e6edf3" text-anchor="start">HIROFORM</text><g transform="translate(868,52) scale(0.0625)"><path d="M512,82 L847,287 L847,712 L512,925 L176,712 L176,287 Z M316,378 L316,630 L512,755 L707,630 L707,378 L512,258 Z" fill="#F5C211" fill-rule="evenodd"/><polygon points="512,391 622,504 512,617 402,504" fill="#F5C211"/></g></svg>