<svg xmlns="http://www.w3.org/2000/svg" viewBox="0 0 1000 1000" role="img" aria-label="LAST CALL — SPEAKEASY cover art"><defs><linearGradient id="fade" x1="0" y1="0" x2="0" y2="1"><stop offset="0" stop-color="#000" stop-opacity="0"/><stop offset="1" stop-color="#000" stop-opacity=".55"/></linearGradient></defs><defs><linearGradient id="bg" x1="0" y1="0" x2="0" y2="1"><stop offset="0" stop-color="#0f2a22"/><stop offset="1" stop-color="#06120e"/></linearGradient></defs><rect width="1000" height="1000" fill="url(#bg)"/><rect x="36" y="36" width="928" height="928" fill="none" stroke="#d8b25a" stroke-width="3"/><rect x="52" y="52" width="896" height="896" fill="none" stroke="#d8b25a" stroke-width="1"/><path d="M380,567 A120,120 0 0 1 620,567" fill="none" stroke="#d8b25a" stroke-width="4"/><path d="M325,567 A175,175 0 0 1 675,567" fill="none" stroke="#d8b25a" stroke-width="2"/><path d="M270,567 A230,230 0 0 1 730,567" fill="none" stroke="#d8b25a" stroke-width="4"/><path d="M215,567 A285,285 0 0 1 785,567" fill="none" stroke="#d8b25a" stroke-width="2"/><path d="M160,567 A340,340 0 0 1 840,567" fill="none" stroke="#d8b25a" stroke-width="4"/><path d="M105,567 A395,395 0 0 1 895,567" fill="none" stroke="#d8b25a" stroke-width="2"/><path d="M50,567 A450,450 0 0 1 950,567" fill="none" stroke="#d8b25a" stroke-width="4"/><path d="M-5,567 A505,505 0 0 1 1005,567" fill="none" stroke="#d8b25a" stroke-width="2"/><line x1="500" y1="567" x2="30" y2="567" stroke="#d8b25a" stroke-opacity=".45" stroke-width="1.5"/><line x1="500" y1="567" x2="53" y2="422" stroke="#d8b25a" stroke-opacity=".45" stroke-width="1.5"/><line x1="500" y1="567" x2="120" y2="291" stroke="#d8b25a" stroke-opacity=".45" stroke-width="1.5"/><line x1="500" y1="567" x2="224" y2="187" stroke="#d8b25a" stroke-opacity=".45" stroke-width="1.5"/><line x1="500" y1="567" x2="355" y2="120" stroke="#d8b25a" stroke-opacity=".45" stroke-width="1.5"/><line x1="500" y1="567" x2="500" y2="97" stroke="#d8b25a" stroke-opacity=".45" stroke-width="1.5"/><line x1="500" y1="567" x2="645" y2="120" stroke="#d8b25a" stroke-opacity=".45" stroke-width="1.5"/><line x1="500" y1="567" x2="776" y2="187" stroke="#d8b25a" stroke-opacity=".45" stroke-width="1.5"/><line x1="500" y1="567" x2="880" y2="291" stroke="#d8b25a" stroke-opacity=".45" stroke-width="1.5"/><line x1="500" y1="567" x2="947" y2="422" stroke="#d8b25a" stroke-opacity=".45" stroke-width="1.5"/><line x1="500" y1="567" x2="970" y2="567" stroke="#d8b25a" stroke-opacity=".45" stroke-width="1.5"/><circle cx="500" cy="567" r="70" fill="#d8b25a"/><rect x="0" y="567" width="1000" height="433" fill="#06120e" fill-opacity=".85"/><line x1="140" y1="587" x2="140" y2="707" stroke="#d8b25a" stroke-opacity=".35"/><line x1="260" y1="587" x2="260" y2="707" stroke="#d8b25a" stroke-opacity=".35"/><line x1="380" y1="587" x2="380" y2="707" stroke="#d8b25a" stroke-opacity=".35"/><line x1="500" y1="587" x2="500" y2="707" stroke="#d8b25a" stroke-opacity=".35"/><line x1="620" y1="587" x2="620" y2="707" stroke="#d8b25a" stroke-opacity=".35"/><line x1="740" y1="587" x2="740" y2="707" stroke="#d8b25a" stroke-opacity=".35"/><line x1="860" y1="587" x2="860" y2="707" stroke="#d8b25a" stroke-opacity=".35"/><rect y="640" width="1000" height="360" fill="url(#fade)"/><text x="70" y="96" font-family="'Sora','DM Sans','Helvetica Neue',Helvetica,Arial,sans-serif" font-size="26" font-weight="600" letter-spacing="9" fill="rgba(232,201,121,.8)" text-anchor="start">SPEAKEASY</text><text x="70" y="930" font-family="'Playfair Display','DejaVu Serif',Georgia,serif" font-size="118" font-weight="800" letter-spacing="-1" fill="#e8c979" text-anchor="start">LAST CALL</text><g transform="translate(868,52) scale(0.0625)"><path d="M512,82 L847,287 L847,712 L512,925 L176,712 L176,287 Z M316,378 L316,630 L512,755 L707,630 L707,378 L512,258 Z" fill="#F5C211" fill-rule="evenodd"/><polygon points="512,391 622,504 512,617 402,504" fill="#F5C211"/></g></svg>