<svg xmlns="http://www.w3.org/2000/svg" viewBox="0 0 800 800" width="800" height="800" role="img" aria-label="FORM II — Digital Album · MP3 / WAV / FLAC"><defs><linearGradient id="stage" x1="0" y1="0" x2="1" y2="1"><stop offset="0" stop-color="#fafaf8"/><stop offset="1" stop-color="#e4e4e0"/></linearGradient><filter id="sh" x="-20%" y="-20%" width="140%" height="150%"><feDropShadow dx="0" dy="14" stdDeviation="16" flood-color="#000" flood-opacity=".28"/></filter><filter id="shs" x="-20%" y="-20%" width="140%" height="150%"><feDropShadow dx="0" dy="5" stdDeviation="6" flood-color="#000" flood-opacity=".25"/></filter><radialGradient id="vinylShine" cx="50%" cy="50%" r="50%"><stop offset="0" stop-color="#fff" stop-opacity="0"/><stop offset=".7" stop-color="#fff" stop-opacity=".06"/><stop offset="1" stop-color="#fff" stop-opacity="0"/></radialGradient><linearGradient id="gloss" x1="0" y1="0" x2="1" y2="1"><stop offset="0" stop-color="#fff" stop-opacity=".28"/><stop offset=".45" stop-color="#fff" stop-opacity="0"/></linearGradient></defs><rect width="800" height="800" fill="url(#stage)"/><ellipse cx="400" cy="720" rx="330" ry="26" fill="#000" fill-opacity=".07"/><g filter="url(#sh)"><rect x="150" y="90" width="500" height="500" rx="20" fill="#000"/></g><clipPath id="dg"><rect x="150" y="90" width="500" height="500" rx="20"/></clipPath><g clip-path="url(#dg)"><svg x="150" y="90" width="500" height="500" viewBox="0 0 1000 1000"><defs><linearGradient id="gfade" x1="0" y1="0" x2="0" y2="1"><stop offset="0" stop-color="#000" stop-opacity="0"/><stop offset="1" stop-color="#000" stop-opacity=".55"/></linearGradient></defs><rect width="1000" height="1000" fill="#0d1117"/><line x1="-600" y1="1000" x2="-23" y2="0" stroke="#5ad1e6" stroke-opacity=".06"/><line x1="-600" y1="1000" x2="-1177" y2="0" stroke="#5ad1e6" stroke-opacity=".06"/><line x1="-540" y1="1000" x2="37" y2="0" stroke="#5ad1e6" stroke-opacity=".06"/><line x1="-540" y1="1000" x2="-1117" y2="0" stroke="#5ad1e6" stroke-opacity=".06"/><line x1="-480" y1="1000" x2="97" y2="0" stroke="#5ad1e6" stroke-opacity=".06"/><line x1="-480" y1="1000" x2="-1057" y2="0" stroke="#5ad1e6" stroke-opacity=".06"/><line x1="-420" y1="1000" x2="157" y2="0" stroke="#5ad1e6" stroke-opacity=".06"/><line x1="-420" y1="1000" x2="-997" y2="0" stroke="#5ad1e6" stroke-opacity=".06"/><line x1="-360" y1="1000" x2="217" y2="0" stroke="#5ad1e6" stroke-opacity=".06"/><line x1="-360" y1="1000" x2="-937" y2="0" stroke="#5ad1e6" stroke-opacity=".06"/><line x1="-300" y1="1000" x2="277" y2="0" stroke="#5ad1e6" stroke-opacity=".06"/><line x1="-300" y1="1000" x2="-877" y2="0" stroke="#5ad1e6" stroke-opacity=".06"/><line x1="-240" y1="1000" x2="337" y2="0" stroke="#5ad1e6" stroke-opacity=".06"/><line x1="-240" y1="1000" x2="-817" y2="0" stroke="#5ad1e6" stroke-opacity=".06"/><line x1="-180" y1="1000" x2="397" y2="0" stroke="#5ad1e6" stroke-opacity=".06"/><line x1="-180" y1="1000" x2="-757" y2="0" stroke="#5ad1e6" stroke-opacity=".06"/><line x1="-120" y1="1000" x2="457" y2="0" stroke="#5ad1e6" stroke-opacity=".06"/><line x1="-120" y1="1000" x2="-697" y2="0" stroke="#5ad1e6" stroke-opacity=".06"/><line x1="-60" y1="1000" x2="517" y2="0" stroke="#5ad1e6" stroke-opacity=".06"/><line x1="-60" y1="1000" x2="-637" y2="0" stroke="#5ad1e6" stroke-opacity=".06"/><line x1="0" y1="1000" x2="577" y2="0" stroke="#5ad1e6" stroke-opacity=".06"/><line x1="0" y1="1000" x2="-577" y2="0" stroke="#5ad1e6" stroke-opacity=".06"/><line x1="60" y1="1000" x2="637" y2="0" stroke="#5ad1e6" stroke-opacity=".06"/><line x1="60" y1="1000" x2="-517" y2="0" stroke="#5ad1e6" stroke-opacity=".06"/><line x1="120" y1="1000" x2="697" y2="0" stroke="#5ad1e6" stroke-opacity=".06"/><line x1="120" y1="1000" x2="-457" y2="0" stroke="#5ad1e6" stroke-opacity=".06"/><line x1="180" y1="1000" x2="757" y2="0" stroke="#5ad1e6" stroke-opacity=".06"/><line x1="180" y1="1000" x2="-397" y2="0" stroke="#5ad1e6" stroke-opacity=".06"/><line x1="240" y1="1000" x2="817" y2="0" stroke="#5ad1e6" stroke-opacity=".06"/><line x1="240" y1="1000" x2="-337" y2="0" stroke="#5ad1e6" stroke-opacity=".06"/><line x1="300" y1="1000" x2="877" y2="0" stroke="#5ad1e6" stroke-opacity=".06"/><line x1="300" y1="1000" x2="-277" y2="0" stroke="#5ad1e6" stroke-opacity=".06"/><line x1="360" y1="1000" x2="937" y2="0" stroke="#5ad1e6" stroke-opacity=".06"/><line x1="360" y1="1000" x2="-217" y2="0" stroke="#5ad1e6" stroke-opacity=".06"/><line x1="420" y1="1000" x2="997" y2="0" stroke="#5ad1e6" stroke-opacity=".06"/><line x1="420" y1="1000" x2="-157" y2="0" stroke="#5ad1e6" stroke-opacity=".06"/><line x1="480" y1="1000" x2="1057" y2="0" stroke="#5ad1e6" stroke-opacity=".06"/><line x1="480" y1="1000" x2="-97" y2="0" stroke="#5ad1e6" stroke-opacity=".06"/><line x1="540" y1="1000" x2="1117" y2="0" stroke="#5ad1e6" stroke-opacity=".06"/><line x1="540" y1="1000" x2="-37" y2="0" stroke="#5ad1e6" stroke-opacity=".06"/><line x1="600" y1="1000" x2="1177" y2="0" stroke="#5ad1e6" stroke-opacity=".06"/><line x1="600" y1="1000" x2="23" y2="0" stroke="#5ad1e6" stroke-opacity=".06"/><line x1="660" y1="1000" x2="1237" y2="0" stroke="#5ad1e6" stroke-opacity=".06"/><line x1="660" y1="1000" x2="83" y2="0" stroke="#5ad1e6" stroke-opacity=".06"/><line x1="720" y1="1000" x2="1297" y2="0" stroke="#5ad1e6" stroke-opacity=".06"/><line x1="720" y1="1000" x2="143" y2="0" stroke="#5ad1e6" stroke-opacity=".06"/><line x1="780" y1="1000" x2="1357" y2="0" stroke="#5ad1e6" stroke-opacity=".06"/><line x1="780" y1="1000" x2="203" y2="0" stroke="#5ad1e6" stroke-opacity=".06"/><line x1="840" y1="1000" x2="1417" y2="0" stroke="#5ad1e6" stroke-opacity=".06"/><line x1="840" y1="1000" x2="263" y2="0" stroke="#5ad1e6" stroke-opacity=".06"/><line x1="900" y1="1000" x2="1477" y2="0" stroke="#5ad1e6" stroke-opacity=".06"/><line x1="900" y1="1000" x2="323" y2="0" stroke="#5ad1e6" stroke-opacity=".06"/><line x1="960" y1="1000" x2="1537" y2="0" stroke="#5ad1e6" stroke-opacity=".06"/><line x1="960" y1="1000" x2="383" y2="0" stroke="#5ad1e6" stroke-opacity=".06"/><line x1="1020" y1="1000" x2="1597" y2="0" stroke="#5ad1e6" stroke-opacity=".06"/><line x1="1020" y1="1000" x2="443" y2="0" stroke="#5ad1e6" stroke-opacity=".06"/><line x1="1080" y1="1000" x2="1657" y2="0" stroke="#5ad1e6" stroke-opacity=".06"/><line x1="1080" y1="1000" x2="503" y2="0" stroke="#5ad1e6" stroke-opacity=".06"/><line x1="1140" y1="1000" x2="1717" y2="0" stroke="#5ad1e6" stroke-opacity=".06"/><line x1="1140" y1="1000" x2="563" y2="0" stroke="#5ad1e6" stroke-opacity=".06"/><line x1="1200" y1="1000" x2="1777" y2="0" stroke="#5ad1e6" stroke-opacity=".06"/><line x1="1200" y1="1000" x2="623" y2="0" stroke="#5ad1e6" stroke-opacity=".06"/><line x1="1260" y1="1000" x2="1837" y2="0" stroke="#5ad1e6" stroke-opacity=".06"/><line x1="1260" y1="1000" x2="683" y2="0" stroke="#5ad1e6" stroke-opacity=".06"/><line x1="1320" y1="1000" x2="1897" y2="0" stroke="#5ad1e6" stroke-opacity=".06"/><line x1="1320" y1="1000" x2="743" y2="0" stroke="#5ad1e6" stroke-opacity=".06"/><line x1="1380" y1="1000" x2="1957" y2="0" stroke="#5ad1e6" stroke-opacity=".06"/><line x1="1380" y1="1000" x2="803" y2="0" stroke="#5ad1e6" stroke-opacity=".06"/><line x1="1440" y1="1000" x2="2017" y2="0" stroke="#5ad1e6" stroke-opacity=".06"/><line x1="1440" y1="1000" x2="863" y2="0" stroke="#5ad1e6" stroke-opacity=".06"/><line x1="1500" y1="1000" x2="2077" y2="0" stroke="#5ad1e6" stroke-opacity=".06"/><line x1="1500" y1="1000" x2="923" y2="0" stroke="#5ad1e6" stroke-opacity=".06"/><line x1="1560" y1="1000" x2="2137" y2="0" stroke="#5ad1e6" stroke-opacity=".06"/><line x1="1560" y1="1000" x2="983" y2="0" stroke="#5ad1e6" stroke-opacity=".06"/><line x1="1620" y1="1000" x2="2197" y2="0" stroke="#5ad1e6" stroke-opacity=".06"/><line x1="1620" y1="1000" x2="1043" y2="0" stroke="#5ad1e6" stroke-opacity=".06"/><line x1="1680" y1="1000" x2="2257" y2="0" stroke="#5ad1e6" stroke-opacity=".06"/><line x1="1680" y1="1000" x2="1103" y2="0" stroke="#5ad1e6" stroke-opacity=".06"/><line x1="1740" y1="1000" x2="2317" y2="0" stroke="#5ad1e6" stroke-opacity=".06"/><line x1="1740" y1="1000" x2="1163" y2="0" stroke="#5ad1e6" stroke-opacity=".06"/><polygon points="647,164 710,200 710,439 647,403" fill="#2b3139"/><polygon points="710,200 773,164 773,403 710,439" fill="#171b21"/><polygon points="710,200 773,164 710,127 647,164" fill="#6f7782"/><polyline points="647,164 710,200 773,164" fill="none" stroke="#5ad1e6" stroke-width="2" stroke-opacity=".8"/><polygon points="251,79 345,133 345,457 251,403" fill="#2b3139"/><polygon points="345,133 439,79 439,403 345,457" fill="#171b21"/><polygon points="345,133 439,79 345,25 251,79" fill="#6f7782"/><polyline points="251,79 345,133 439,79" fill="none" stroke="#5ad1e6" stroke-width="2" stroke-opacity=".8"/><polygon points="557,314 643,364 643,487 557,437" fill="#2b3139"/><polygon points="643,364 729,314 729,437 643,487" fill="#171b21"/><polygon points="643,364 729,314 643,265 557,314" fill="#6f7782"/><polyline points="557,314 643,364 729,314" fill="none" stroke="#5ad1e6" stroke-width="2" stroke-opacity=".8"/><polygon points="343,272 462,341 462,612 343,543" fill="#2b3139"/><polygon points="462,341 581,272 581,543 462,612" fill="#171b21"/><polygon points="462,341 581,272 462,204 343,272" fill="#6f7782"/><polyline points="343,272 462,341 581,272" fill="none" stroke="#5ad1e6" stroke-width="2" stroke-opacity=".8"/><polygon points="334,296 457,367 457,628 334,557" fill="#2b3139"/><polygon points="457,367 580,296 580,557 457,628" fill="#171b21"/><polygon points="457,367 580,296 457,225 334,296" fill="#6f7782"/><polyline points="334,296 457,367 580,296" fill="none" stroke="#5ad1e6" stroke-width="2" stroke-opacity=".8"/><rect y="640" width="1000" height="360" fill="url(#gfade)"/><text x="70" y="96" font-family="'Sora','DM Sans','Helvetica Neue',Helvetica,Arial,sans-serif" font-size="26" font-weight="600" letter-spacing="9" fill="rgba(90,209,230,.85)" text-anchor="start">HIROFORM</text><text x="70" y="930" font-family="'Sora','DM Sans','Helvetica Neue',Helvetica,Arial,sans-serif" font-size="118" font-weight="800" letter-spacing="-1" fill="#e6edf3" text-anchor="start">FORM II</text><g transform="translate(868,52) scale(0.0625)"><path d="M512,82 L847,287 L847,712 L512,925 L176,712 L176,287 Z M316,378 L316,630 L512,755 L707,630 L707,378 L512,258 Z" fill="#F5C211" fill-rule="evenodd"/><polygon points="512,391 622,504 512,617 402,504" fill="#F5C211"/></g></svg></g><rect x="150" y="90" width="500" height="500" rx="20" fill="url(#gloss)"/><rect x="160.0" y="630.8" width="6" height="22.4" rx="3" fill="#1c1c1c" fill-opacity="0.85"/><rect x="170.6" y="627.9" width="6" height="28.2" rx="3" fill="#1c1c1c" fill-opacity="0.85"/><rect x="181.2" y="619.5" width="6" height="45.0" rx="3" fill="#1c1c1c" fill-opacity="0.85"/><rect x="191.8" y="619.6" width="6" height="44.8" rx="3" fill="#1c1c1c" fill-opacity="0.85"/><rect x="202.4" y="616.3" width="6" height="51.4" rx="3" fill="#1c1c1c" fill-opacity="0.85"/><rect x="213.0" y="622.8" width="6" height="38.3" rx="3" fill="#1c1c1c" fill-opacity="0.85"/><rect x="223.6" y="623.0" width="6" height="38.1" rx="3" fill="#1c1c1c" fill-opacity="0.85"/><rect x="234.2" y="629.3" width="6" height="25.4" rx="3" fill="#1c1c1c" fill-opacity="0.85"/><rect x="244.8" y="627.5" width="6" height="28.9" rx="3" fill="#1c1c1c" fill-opacity="0.85"/><rect x="255.4" y="623.6" width="6" height="36.9" rx="3" fill="#1c1c1c" fill-opacity="0.85"/><rect x="266.0" y="620.2" width="6" height="43.7" rx="3" fill="#1c1c1c" fill-opacity="0.85"/><rect x="276.6" y="615.0" width="6" height="54.1" rx="3" fill="#1c1c1c" fill-opacity="0.85"/><rect x="287.2" y="622.2" width="6" height="39.6" rx="3" fill="#1c1c1c" fill-opacity="0.85"/><rect x="297.8" y="630.0" width="6" height="23.9" rx="3" fill="#1c1c1c" fill-opacity="0.85"/><rect x="308.4" y="634.2" width="6" height="15.6" rx="3" fill="#1c1c1c" fill-opacity="0.85"/><rect x="319.0" y="627.2" width="6" height="29.7" rx="3" fill="#1c1c1c" fill-opacity="0.85"/><rect x="329.6" y="617.3" width="6" height="49.4" rx="3" fill="#1c1c1c" fill-opacity="0.85"/><rect x="340.2" y="622.0" width="6" height="40.0" rx="3" fill="#1c1c1c" fill-opacity="0.85"/><rect x="350.8" y="622.6" width="6" height="38.9" rx="3" fill="#1c1c1c" fill-opacity="0.25"/><rect x="361.4" y="622.7" width="6" height="38.6" rx="3" fill="#1c1c1c" fill-opacity="0.25"/><rect x="372.0" y="628.9" width="6" height="26.1" rx="3" fill="#1c1c1c" fill-opacity="0.25"/><rect x="382.6" y="632.7" width="6" height="18.5" rx="3" fill="#1c1c1c" fill-opacity="0.25"/><rect x="393.2" y="626.4" width="6" height="31.2" rx="3" fill="#1c1c1c" fill-opacity="0.25"/><rect x="403.8" y="617.4" width="6" height="49.2" rx="3" fill="#1c1c1c" fill-opacity="0.25"/><rect x="414.4" y="620.8" width="6" height="42.4" rx="3" fill="#1c1c1c" fill-opacity="0.25"/><rect x="425.0" y="615.2" width="6" height="53.5" rx="3" fill="#1c1c1c" fill-opacity="0.25"/><rect x="435.6" y="624.7" width="6" height="34.6" rx="3" fill="#1c1c1c" fill-opacity="0.25"/><rect x="446.2" y="630.0" width="6" height="24.0" rx="3" fill="#1c1c1c" fill-opacity="0.25"/><rect x="456.8" y="629.8" width="6" height="24.3" rx="3" fill="#1c1c1c" fill-opacity="0.25"/><rect x="467.4" y="629.7" width="6" height="24.6" rx="3" fill="#1c1c1c" fill-opacity="0.25"/><rect x="478.0" y="617.3" width="6" height="49.3" rx="3" fill="#1c1c1c" fill-opacity="0.25"/><rect x="488.6" y="621.0" width="6" height="42.0" rx="3" fill="#1c1c1c" fill-opacity="0.25"/><rect x="499.2" y="622.0" width="6" height="40.1" rx="3" fill="#1c1c1c" fill-opacity="0.25"/><rect x="509.8" y="624.7" width="6" height="34.6" rx="3" fill="#1c1c1c" fill-opacity="0.25"/><rect x="520.4" y="630.4" width="6" height="23.2" rx="3" fill="#1c1c1c" fill-opacity="0.25"/><rect x="531.0" y="637.1" width="6" height="9.9" rx="3" fill="#1c1c1c" fill-opacity="0.25"/><rect x="541.6" y="627.0" width="6" height="30.1" rx="3" fill="#1c1c1c" fill-opacity="0.25"/><rect x="552.2" y="623.8" width="6" height="36.4" rx="3" fill="#1c1c1c" fill-opacity="0.25"/><rect x="562.8" y="620.4" width="6" height="43.1" rx="3" fill="#1c1c1c" fill-opacity="0.25"/><rect x="573.4" y="617.1" width="6" height="49.9" rx="3" fill="#1c1c1c" fill-opacity="0.25"/><rect x="584.0" y="619.4" width="6" height="45.2" rx="3" fill="#1c1c1c" fill-opacity="0.25"/><rect x="594.6" y="625.3" width="6" height="33.3" rx="3" fill="#1c1c1c" fill-opacity="0.25"/><rect x="605.2" y="636.3" width="6" height="11.5" rx="3" fill="#1c1c1c" fill-opacity="0.25"/><rect x="615.8" y="624.8" width="6" height="34.4" rx="3" fill="#1c1c1c" fill-opacity="0.25"/><rect x="626.4" y="621.1" width="6" height="41.8" rx="3" fill="#1c1c1c" fill-opacity="0.25"/><rect x="637.0" y="614.4" width="6" height="55.3" rx="3" fill="#1c1c1c" fill-opacity="0.25"/><g filter="url(#shs)"><circle cx="640" cy="590" r="58" fill="#1c1c1c"/></g><path d="M640,560 V612 M618,592 L640,614 L662,592" stroke="#F5C211" stroke-width="7" fill="none" stroke-linecap="round" stroke-linejoin="round"/><rect x="160" y="690" width="118" height="34" rx="17" fill="none" stroke="#1c1c1c" stroke-opacity=".5"/><text x="219" y="712" text-anchor="middle" font-family="'Sora','DM Sans','Helvetica Neue',Helvetica,Arial,sans-serif" font-size="13" font-weight="600" letter-spacing="1.5" fill="#1c1c1c">MP3 320</text><rect x="290" y="690" width="118" height="34" rx="17" fill="none" stroke="#1c1c1c" stroke-opacity=".5"/><text x="349" y="712" text-anchor="middle" font-family="'Sora','DM Sans','Helvetica Neue',Helvetica,Arial,sans-serif" font-size="13" font-weight="600" letter-spacing="1.5" fill="#1c1c1c">WAV</text><rect x="420" y="690" width="118" height="34" rx="17" fill="none" stroke="#1c1c1c" stroke-opacity=".5"/><text x="479" y="712" text-anchor="middle" font-family="'Sora','DM Sans','Helvetica Neue',Helvetica,Arial,sans-serif" font-size="13" font-weight="600" letter-spacing="1.5" fill="#1c1c1c">FLAC 24-BIT</text><text x="160" y="760" font-family="'Sora','DM Sans','Helvetica Neue',Helvetica,Arial,sans-serif" font-size="12" font-weight="600" letter-spacing="3" fill="#1c1c1c" fill-opacity=".6">DIGITAL ALBUM · INSTANT DOWNLOAD</text></svg>