<svg xmlns="http://www.w3.org/2000/svg" viewBox="0 0 800 800" width="800" height="800" role="img" aria-label="SYSTEM OVERRIDE — Cassette · Chrome Tape"><defs><linearGradient id="stage" x1="0" y1="0" x2="1" y2="1"><stop offset="0" stop-color="#fafaf8"/><stop offset="1" stop-color="#e4e4e0"/></linearGradient><filter id="sh" x="-20%" y="-20%" width="140%" height="150%"><feDropShadow dx="0" dy="14" stdDeviation="16" flood-color="#000" flood-opacity=".28"/></filter><filter id="shs" x="-20%" y="-20%" width="140%" height="150%"><feDropShadow dx="0" dy="5" stdDeviation="6" flood-color="#000" flood-opacity=".25"/></filter><radialGradient id="vinylShine" cx="50%" cy="50%" r="50%"><stop offset="0" stop-color="#fff" stop-opacity="0"/><stop offset=".7" stop-color="#fff" stop-opacity=".06"/><stop offset="1" stop-color="#fff" stop-opacity="0"/></radialGradient><linearGradient id="gloss" x1="0" y1="0" x2="1" y2="1"><stop offset="0" stop-color="#fff" stop-opacity=".28"/><stop offset=".45" stop-color="#fff" stop-opacity="0"/></linearGradient></defs><rect width="800" height="800" fill="url(#stage)"/><ellipse cx="400" cy="720" rx="330" ry="26" fill="#000" fill-opacity=".07"/><g filter="url(#sh)" transform="rotate(-8 250 330)"><rect x="110" y="120" width="300" height="440" rx="8" fill="#d9dde0" fill-opacity=".7"/></g><g transform="rotate(-8 250 330)"><svg x="118" y="128" width="284" height="360" preserveAspectRatio="xMidYMid slice" viewBox="0 0 1000 1000"><defs><linearGradient id="jfade" x1="0" y1="0" x2="0" y2="1"><stop offset="0" stop-color="#000" stop-opacity="0"/><stop offset="1" stop-color="#000" stop-opacity=".55"/></linearGradient></defs><rect width="1000" height="1000" fill="#020805"/><line x1="0" x2="1000" y1="560" y2="560" stroke="#39ff9e" stroke-opacity=".3"/><line x1="0" x2="1000" y1="565" y2="565" stroke="#39ff9e" stroke-opacity=".3"/><line x1="0" x2="1000" y1="576" y2="576" stroke="#39ff9e" stroke-opacity=".3"/><line x1="0" x2="1000" y1="592" y2="592" stroke="#39ff9e" stroke-opacity=".3"/><line x1="0" x2="1000" y1="613" y2="613" stroke="#39ff9e" stroke-opacity=".3"/><line x1="0" x2="1000" y1="637" y2="637" stroke="#39ff9e" stroke-opacity=".3"/><line x1="0" x2="1000" y1="665" y2="665" stroke="#39ff9e" stroke-opacity=".3"/><line x1="0" x2="1000" y1="697" y2="697" stroke="#39ff9e" stroke-opacity=".3"/><line x1="0" x2="1000" y1="731" y2="731" stroke="#39ff9e" stroke-opacity=".3"/><line x1="0" x2="1000" y1="769" y2="769" stroke="#39ff9e" stroke-opacity=".3"/><line x1="0" x2="1000" y1="811" y2="811" stroke="#39ff9e" stroke-opacity=".3"/><line x1="0" x2="1000" y1="855" y2="855" stroke="#39ff9e" stroke-opacity=".3"/><line x1="500" y1="560" x2="-820" y2="1000" stroke="#39ff9e" stroke-opacity=".25"/><line x1="500" y1="560" x2="-710" y2="1000" stroke="#39ff9e" stroke-opacity=".25"/><line x1="500" y1="560" x2="-600" y2="1000" stroke="#39ff9e" stroke-opacity=".25"/><line x1="500" y1="560" x2="-490" y2="1000" stroke="#39ff9e" stroke-opacity=".25"/><line x1="500" y1="560" x2="-380" y2="1000" stroke="#39ff9e" stroke-opacity=".25"/><line x1="500" y1="560" x2="-270" y2="1000" stroke="#39ff9e" stroke-opacity=".25"/><line x1="500" y1="560" x2="-160" y2="1000" stroke="#39ff9e" stroke-opacity=".25"/><line x1="500" y1="560" x2="-50" y2="1000" stroke="#39ff9e" stroke-opacity=".25"/><line x1="500" y1="560" x2="60" y2="1000" stroke="#39ff9e" stroke-opacity=".25"/><line x1="500" y1="560" x2="170" y2="1000" stroke="#39ff9e" stroke-opacity=".25"/><line x1="500" y1="560" x2="280" y2="1000" stroke="#39ff9e" stroke-opacity=".25"/><line x1="500" y1="560" x2="390" y2="1000" stroke="#39ff9e" stroke-opacity=".25"/><line x1="500" y1="560" x2="500" y2="1000" stroke="#39ff9e" stroke-opacity=".25"/><line x1="500" y1="560" x2="610" y2="1000" stroke="#39ff9e" stroke-opacity=".25"/><line x1="500" y1="560" x2="720" y2="1000" stroke="#39ff9e" stroke-opacity=".25"/><line x1="500" y1="560" x2="830" y2="1000" stroke="#39ff9e" stroke-opacity=".25"/><line x1="500" y1="560" x2="940" y2="1000" stroke="#39ff9e" stroke-opacity=".25"/><line x1="500" y1="560" x2="1050" y2="1000" stroke="#39ff9e" stroke-opacity=".25"/><line x1="500" y1="560" x2="1160" y2="1000" stroke="#39ff9e" stroke-opacity=".25"/><line x1="500" y1="560" x2="1270" y2="1000" stroke="#39ff9e" stroke-opacity=".25"/><line x1="500" y1="560" x2="1380" y2="1000" stroke="#39ff9e" stroke-opacity=".25"/><line x1="500" y1="560" x2="1490" y2="1000" stroke="#39ff9e" stroke-opacity=".25"/><line x1="500" y1="560" x2="1600" y2="1000" stroke="#39ff9e" stroke-opacity=".25"/><line x1="500" y1="560" x2="1710" y2="1000" stroke="#39ff9e" stroke-opacity=".25"/><line x1="500" y1="560" x2="1820" y2="1000" stroke="#39ff9e" stroke-opacity=".25"/><text x="70" y="170" font-family="'JetBrains Mono','DejaVu Sans Mono','Courier New',monospace" font-size="20" fill="#39ff9e" fill-opacity="0.60">A82C 0B4E CC44 99B9 C4CD 1941</text><text x="70" y="200" font-family="'JetBrains Mono','DejaVu Sans Mono','Courier New',monospace" font-size="20" fill="#39ff9e" fill-opacity="0.49">B06F 7B9D AF08 BAF8 46F5 33AC</text><text x="70" y="230" font-family="'JetBrains Mono','DejaVu Sans Mono','Courier New',monospace" font-size="20" fill="#39ff9e" fill-opacity="0.79">36D6 CDBF 931C C8B1 269D 6839</text><text x="70" y="260" font-family="'JetBrains Mono','DejaVu Sans Mono','Courier New',monospace" font-size="20" fill="#39ff9e" fill-opacity="0.59">908F EAD6 3B3B F8D7 755B 9A78</text><text x="70" y="290" font-family="'JetBrains Mono','DejaVu Sans Mono','Courier New',monospace" font-size="20" fill="#39ff9e" fill-opacity="0.49">8AF2 44D4 8DAF 9169 409F 35F1</text><text x="70" y="320" font-family="'JetBrains Mono','DejaVu Sans Mono','Courier New',monospace" font-size="20" fill="#39ff9e" fill-opacity="0.66">1EF2 0BC3 76A9 F1DE 12BF 36EA</text><text x="70" y="350" font-family="'JetBrains Mono','DejaVu Sans Mono','Courier New',monospace" font-size="20" fill="#39ff9e" fill-opacity="0.67">BEFA B760 35FB F927 1C2C 6ABD</text><text x="70" y="380" font-family="'JetBrains Mono','DejaVu Sans Mono','Courier New',monospace" font-size="20" fill="#39ff9e" fill-opacity="0.33">6D9C 6A4C 4D03 24B8 9999 B8C3</text><text x="70" y="410" font-family="'JetBrains Mono','DejaVu Sans Mono','Courier New',monospace" font-size="20" fill="#39ff9e" fill-opacity="0.37">134A B652 0B9B 6405 DFCD 0252</text><text x="70" y="440" font-family="'JetBrains Mono','DejaVu Sans Mono','Courier New',monospace" font-size="20" fill="#39ff9e" fill-opacity="0.36">03BF 8938 B316 5637 DEF2 09BD</text><text x="70" y="470" font-family="'JetBrains Mono','DejaVu Sans Mono','Courier New',monospace" font-size="20" fill="#39ff9e" fill-opacity="0.73">141B B5DB 7939 D186 3302 139B</text><text x="70" y="500" font-family="'JetBrains Mono','DejaVu Sans Mono','Courier New',monospace" font-size="20" fill="#39ff9e" fill-opacity="0.72">AC54 8D1F 0C69 6074 D4C9 8031</text><text x="70" y="530" font-family="'JetBrains Mono','DejaVu Sans Mono','Courier New',monospace" font-size="22" fill="#5ae8ff">&gt; run --create --destroy --reboot_</text><rect x="362" y="557" width="167" height="16" fill="#ff2e88" fill-opacity=".7"/><rect x="158" y="246" width="394" height="16" fill="#ff2e88" fill-opacity=".7"/><rect x="622" y="435" width="140" height="4" fill="#5ae8ff" fill-opacity=".7"/><rect x="254" y="227" width="258" height="16" fill="#39ff9e" fill-opacity=".7"/><rect x="502" y="489" width="247" height="16" fill="#5ae8ff" fill-opacity=".7"/><rect x="425" y="490" width="258" height="16" fill="#ff2e88" fill-opacity=".7"/><rect y="640" width="1000" height="360" fill="url(#jfade)"/><text x="70" y="96" font-family="'Sora','DM Sans','Helvetica Neue',Helvetica,Arial,sans-serif" font-size="26" font-weight="600" letter-spacing="9" fill="rgba(57,255,158,.85)" text-anchor="start">JULIAN.EXE</text><text x="70" y="814" font-family="'JetBrains Mono','DejaVu Sans Mono','Courier New',monospace" font-size="118" font-weight="800" letter-spacing="-1" fill="#d9ffe9" text-anchor="start">SYSTEM</text><text x="70" y="930" font-family="'JetBrains Mono','DejaVu Sans Mono','Courier New',monospace" font-size="118" font-weight="800" letter-spacing="-1" fill="#d9ffe9" text-anchor="start">OVERRIDE</text><g transform="translate(868,52) scale(0.0625)"><path d="M512,82 L847,287 L847,712 L512,925 L176,712 L176,287 Z M316,378 L316,630 L512,755 L707,630 L707,378 L512,258 Z" fill="#F5C211" fill-rule="evenodd"/><polygon points="512,391 622,504 512,617 402,504" fill="#F5C211"/></g></svg><rect x="118" y="488" width="284" height="64" fill="#111"/><text x="260" y="528" text-anchor="middle" font-family="'Sora','DM Sans','Helvetica Neue',Helvetica,Arial,sans-serif" font-size="16" font-weight="700" letter-spacing="3" fill="#f5c211">WUNDERLAND RECORDS</text><rect x="110" y="120" width="300" height="440" rx="8" fill="url(#gloss)" stroke="#fff" stroke-opacity=".5"/></g><g filter="url(#sh)"><rect x="250" y="330" width="470" height="300" rx="18" fill="#1b1b1b"/></g><rect x="276" y="352" width="418" height="200" rx="8" fill="#f2f0ea"/><clipPath id="cl"><rect x="276" y="352" width="418" height="70" rx="8"/></clipPath><g clip-path="url(#cl)"><svg x="276" y="192" width="418" height="418" viewBox="0 0 1000 1000"><defs><linearGradient id="kfade" x1="0" y1="0" x2="0" y2="1"><stop offset="0" stop-color="#000" stop-opacity="0"/><stop offset="1" stop-color="#000" stop-opacity=".55"/></linearGradient></defs><rect width="1000" height="1000" fill="#020805"/><line x1="0" x2="1000" y1="560" y2="560" stroke="#39ff9e" stroke-opacity=".3"/><line x1="0" x2="1000" y1="565" y2="565" stroke="#39ff9e" stroke-opacity=".3"/><line x1="0" x2="1000" y1="576" y2="576" stroke="#39ff9e" stroke-opacity=".3"/><line x1="0" x2="1000" y1="592" y2="592" stroke="#39ff9e" stroke-opacity=".3"/><line x1="0" x2="1000" y1="613" y2="613" stroke="#39ff9e" stroke-opacity=".3"/><line x1="0" x2="1000" y1="637" y2="637" stroke="#39ff9e" stroke-opacity=".3"/><line x1="0" x2="1000" y1="665" y2="665" stroke="#39ff9e" stroke-opacity=".3"/><line x1="0" x2="1000" y1="697" y2="697" stroke="#39ff9e" stroke-opacity=".3"/><line x1="0" x2="1000" y1="731" y2="731" stroke="#39ff9e" stroke-opacity=".3"/><line x1="0" x2="1000" y1="769" y2="769" stroke="#39ff9e" stroke-opacity=".3"/><line x1="0" x2="1000" y1="811" y2="811" stroke="#39ff9e" stroke-opacity=".3"/><line x1="0" x2="1000" y1="855" y2="855" stroke="#39ff9e" stroke-opacity=".3"/><line x1="500" y1="560" x2="-820" y2="1000" stroke="#39ff9e" stroke-opacity=".25"/><line x1="500" y1="560" x2="-710" y2="1000" stroke="#39ff9e" stroke-opacity=".25"/><line x1="500" y1="560" x2="-600" y2="1000" stroke="#39ff9e" stroke-opacity=".25"/><line x1="500" y1="560" x2="-490" y2="1000" stroke="#39ff9e" stroke-opacity=".25"/><line x1="500" y1="560" x2="-380" y2="1000" stroke="#39ff9e" stroke-opacity=".25"/><line x1="500" y1="560" x2="-270" y2="1000" stroke="#39ff9e" stroke-opacity=".25"/><line x1="500" y1="560" x2="-160" y2="1000" stroke="#39ff9e" stroke-opacity=".25"/><line x1="500" y1="560" x2="-50" y2="1000" stroke="#39ff9e" stroke-opacity=".25"/><line x1="500" y1="560" x2="60" y2="1000" stroke="#39ff9e" stroke-opacity=".25"/><line x1="500" y1="560" x2="170" y2="1000" stroke="#39ff9e" stroke-opacity=".25"/><line x1="500" y1="560" x2="280" y2="1000" stroke="#39ff9e" stroke-opacity=".25"/><line x1="500" y1="560" x2="390" y2="1000" stroke="#39ff9e" stroke-opacity=".25"/><line x1="500" y1="560" x2="500" y2="1000" stroke="#39ff9e" stroke-opacity=".25"/><line x1="500" y1="560" x2="610" y2="1000" stroke="#39ff9e" stroke-opacity=".25"/><line x1="500" y1="560" x2="720" y2="1000" stroke="#39ff9e" stroke-opacity=".25"/><line x1="500" y1="560" x2="830" y2="1000" stroke="#39ff9e" stroke-opacity=".25"/><line x1="500" y1="560" x2="940" y2="1000" stroke="#39ff9e" stroke-opacity=".25"/><line x1="500" y1="560" x2="1050" y2="1000" stroke="#39ff9e" stroke-opacity=".25"/><line x1="500" y1="560" x2="1160" y2="1000" stroke="#39ff9e" stroke-opacity=".25"/><line x1="500" y1="560" x2="1270" y2="1000" stroke="#39ff9e" stroke-opacity=".25"/><line x1="500" y1="560" x2="1380" y2="1000" stroke="#39ff9e" stroke-opacity=".25"/><line x1="500" y1="560" x2="1490" y2="1000" stroke="#39ff9e" stroke-opacity=".25"/><line x1="500" y1="560" x2="1600" y2="1000" stroke="#39ff9e" stroke-opacity=".25"/><line x1="500" y1="560" x2="1710" y2="1000" stroke="#39ff9e" stroke-opacity=".25"/><line x1="500" y1="560" x2="1820" y2="1000" stroke="#39ff9e" stroke-opacity=".25"/><text x="70" y="170" font-family="'JetBrains Mono','DejaVu Sans Mono','Courier New',monospace" font-size="20" fill="#39ff9e" fill-opacity="0.60">A82C 0B4E CC44 99B9 C4CD 1941</text><text x="70" y="200" font-family="'JetBrains Mono','DejaVu Sans Mono','Courier New',monospace" font-size="20" fill="#39ff9e" fill-opacity="0.49">B06F 7B9D AF08 BAF8 46F5 33AC</text><text x="70" y="230" font-family="'JetBrains Mono','DejaVu Sans Mono','Courier New',monospace" font-size="20" fill="#39ff9e" fill-opacity="0.79">36D6 CDBF 931C C8B1 269D 6839</text><text x="70" y="260" font-family="'JetBrains Mono','DejaVu Sans Mono','Courier New',monospace" font-size="20" fill="#39ff9e" fill-opacity="0.59">908F EAD6 3B3B F8D7 755B 9A78</text><text x="70" y="290" font-family="'JetBrains Mono','DejaVu Sans Mono','Courier New',monospace" font-size="20" fill="#39ff9e" fill-opacity="0.49">8AF2 44D4 8DAF 9169 409F 35F1</text><text x="70" y="320" font-family="'JetBrains Mono','DejaVu Sans Mono','Courier New',monospace" font-size="20" fill="#39ff9e" fill-opacity="0.66">1EF2 0BC3 76A9 F1DE 12BF 36EA</text><text x="70" y="350" font-family="'JetBrains Mono','DejaVu Sans Mono','Courier New',monospace" font-size="20" fill="#39ff9e" fill-opacity="0.67">BEFA B760 35FB F927 1C2C 6ABD</text><text x="70" y="380" font-family="'JetBrains Mono','DejaVu Sans Mono','Courier New',monospace" font-size="20" fill="#39ff9e" fill-opacity="0.33">6D9C 6A4C 4D03 24B8 9999 B8C3</text><text x="70" y="410" font-family="'JetBrains Mono','DejaVu Sans Mono','Courier New',monospace" font-size="20" fill="#39ff9e" fill-opacity="0.37">134A B652 0B9B 6405 DFCD 0252</text><text x="70" y="440" font-family="'JetBrains Mono','DejaVu Sans Mono','Courier New',monospace" font-size="20" fill="#39ff9e" fill-opacity="0.36">03BF 8938 B316 5637 DEF2 09BD</text><text x="70" y="470" font-family="'JetBrains Mono','DejaVu Sans Mono','Courier New',monospace" font-size="20" fill="#39ff9e" fill-opacity="0.73">141B B5DB 7939 D186 3302 139B</text><text x="70" y="500" font-family="'JetBrains Mono','DejaVu Sans Mono','Courier New',monospace" font-size="20" fill="#39ff9e" fill-opacity="0.72">AC54 8D1F 0C69 6074 D4C9 8031</text><text x="70" y="530" font-family="'JetBrains Mono','DejaVu Sans Mono','Courier New',monospace" font-size="22" fill="#5ae8ff">&gt; run --create --destroy --reboot_</text><rect x="362" y="557" width="167" height="16" fill="#ff2e88" fill-opacity=".7"/><rect x="158" y="246" width="394" height="16" fill="#ff2e88" fill-opacity=".7"/><rect x="622" y="435" width="140" height="4" fill="#5ae8ff" fill-opacity=".7"/><rect x="254" y="227" width="258" height="16" fill="#39ff9e" fill-opacity=".7"/><rect x="502" y="489" width="247" height="16" fill="#5ae8ff" fill-opacity=".7"/><rect x="425" y="490" width="258" height="16" fill="#ff2e88" fill-opacity=".7"/><rect y="640" width="1000" height="360" fill="url(#kfade)"/><text x="70" y="96" font-family="'Sora','DM Sans','Helvetica Neue',Helvetica,Arial,sans-serif" font-size="26" font-weight="600" letter-spacing="9" fill="rgba(57,255,158,.85)" text-anchor="start">JULIAN.EXE</text><text x="70" y="814" font-family="'JetBrains Mono','DejaVu Sans Mono','Courier New',monospace" font-size="118" font-weight="800" letter-spacing="-1" fill="#d9ffe9" text-anchor="start">SYSTEM</text><text x="70" y="930" font-family="'JetBrains Mono','DejaVu Sans Mono','Courier New',monospace" font-size="118" font-weight="800" letter-spacing="-1" fill="#d9ffe9" text-anchor="start">OVERRIDE</text><g transform="translate(868,52) scale(0.0625)"><path d="M512,82 L847,287 L847,712 L512,925 L176,712 L176,287 Z M316,378 L316,630 L512,755 L707,630 L707,378 L512,258 Z" fill="#F5C211" fill-rule="evenodd"/><polygon points="512,391 622,504 512,617 402,504" fill="#F5C211"/></g></svg></g><rect x="310" y="436" width="350" height="70" rx="35" fill="#2a2a2a"/><circle cx="390" cy="471" r="30" fill="#4a3526"/><circle cx="390" cy="471" r="15" fill="#eee"/><line x1="390" y1="471" x2="401.0" y2="471.0" stroke="#555" stroke-width="3"/><line x1="390" y1="471" x2="395.5" y2="480.5" stroke="#555" stroke-width="3"/><line x1="390" y1="471" x2="384.5" y2="480.5" stroke="#555" stroke-width="3"/><line x1="390" y1="471" x2="379.0" y2="471.0" stroke="#555" stroke-width="3"/><line x1="390" y1="471" x2="384.5" y2="461.5" stroke="#555" stroke-width="3"/><line x1="390" y1="471" x2="395.5" y2="461.5" stroke="#555" stroke-width="3"/><circle cx="580" cy="471" r="30" fill="#4a3526"/><circle cx="580" cy="471" r="15" fill="#eee"/><line x1="580" y1="471" x2="591.0" y2="471.0" stroke="#555" stroke-width="3"/><line x1="580" y1="471" x2="585.5" y2="480.5" stroke="#555" stroke-width="3"/><line x1="580" y1="471" x2="574.5" y2="480.5" stroke="#555" stroke-width="3"/><line x1="580" y1="471" x2="569.0" y2="471.0" stroke="#555" stroke-width="3"/><line x1="580" y1="471" x2="574.5" y2="461.5" stroke="#555" stroke-width="3"/><line x1="580" y1="471" x2="585.5" y2="461.5" stroke="#555" stroke-width="3"/><rect x="440.0" y="448" width="90" height="46" fill="#111" fill-opacity=".6" stroke="#666"/><text x="290" y="538" font-family="'Sora','DM Sans','Helvetica Neue',Helvetica,Arial,sans-serif" font-size="15" font-weight="700" fill="#333">A</text><polygon points="340,630 370,570 600,570 630,630" fill="#000" fill-opacity=".35"/><circle cx="266" cy="346" r="5" fill="#777"/><circle cx="266" cy="614" r="5" fill="#777"/><circle cx="704" cy="346" r="5" fill="#777"/><circle cx="704" cy="614" r="5" fill="#777"/><rect x="250" y="330" width="470" height="300" rx="18" fill="url(#gloss)"/></svg>