<svg xmlns="http://www.w3.org/2000/svg" viewBox="0 0 800 800" width="800" height="800" role="img" aria-label="JULIAN.EXE Tee — T-Shirt · Black"><defs><linearGradient id="stage" x1="0" y1="0" x2="1" y2="1"><stop offset="0" stop-color="#fafaf8"/><stop offset="1" stop-color="#e4e4e0"/></linearGradient><filter id="sh" x="-20%" y="-20%" width="140%" height="150%"><feDropShadow dx="0" dy="14" stdDeviation="16" flood-color="#000" flood-opacity=".28"/></filter><filter id="shs" x="-20%" y="-20%" width="140%" height="150%"><feDropShadow dx="0" dy="5" stdDeviation="6" flood-color="#000" flood-opacity=".25"/></filter><radialGradient id="vinylShine" cx="50%" cy="50%" r="50%"><stop offset="0" stop-color="#fff" stop-opacity="0"/><stop offset=".7" stop-color="#fff" stop-opacity=".06"/><stop offset="1" stop-color="#fff" stop-opacity="0"/></radialGradient><linearGradient id="gloss" x1="0" y1="0" x2="1" y2="1"><stop offset="0" stop-color="#fff" stop-opacity=".28"/><stop offset=".45" stop-color="#fff" stop-opacity="0"/></linearGradient></defs><rect width="800" height="800" fill="url(#stage)"/><ellipse cx="400" cy="720" rx="330" ry="26" fill="#000" fill-opacity=".07"/><g filter="url(#sh)"><path d="M250,120 L330,95 C355,130 445,130 470,95 L550,120 L660,200 L610,290 L560,262 L560,680 L240,680 L240,262 L190,290 L140,200 Z" fill="#151515" stroke="#000" stroke-opacity=".25" stroke-width="2"/></g><path d="M330,95 C355,130 445,130 470,95" fill="none" stroke="#000" stroke-opacity=".3" stroke-width="6"/><path d="M250,120 L330,95 C355,130 445,130 470,95 L550,120 L660,200 L610,290 L560,262 L560,680 L240,680 L240,262 L190,290 L140,200 Z" fill="url(#gloss)" opacity=".5"/><svg x="285.0" y="175" width="230" height="230" viewBox="0 0 1000 1000"><defs><linearGradient id="tfade" x1="0" y1="0" x2="0" y2="1"><stop offset="0" stop-color="#000" stop-opacity="0"/><stop offset="1" stop-color="#000" stop-opacity=".55"/></linearGradient></defs><rect width="1000" height="1000" fill="#020805"/><line x1="0" x2="1000" y1="560" y2="560" stroke="#39ff9e" stroke-opacity=".3"/><line x1="0" x2="1000" y1="565" y2="565" stroke="#39ff9e" stroke-opacity=".3"/><line x1="0" x2="1000" y1="576" y2="576" stroke="#39ff9e" stroke-opacity=".3"/><line x1="0" x2="1000" y1="592" y2="592" stroke="#39ff9e" stroke-opacity=".3"/><line x1="0" x2="1000" y1="613" y2="613" stroke="#39ff9e" stroke-opacity=".3"/><line x1="0" x2="1000" y1="637" y2="637" stroke="#39ff9e" stroke-opacity=".3"/><line x1="0" x2="1000" y1="665" y2="665" stroke="#39ff9e" stroke-opacity=".3"/><line x1="0" x2="1000" y1="697" y2="697" stroke="#39ff9e" stroke-opacity=".3"/><line x1="0" x2="1000" y1="731" y2="731" stroke="#39ff9e" stroke-opacity=".3"/><line x1="0" x2="1000" y1="769" y2="769" stroke="#39ff9e" stroke-opacity=".3"/><line x1="0" x2="1000" y1="811" y2="811" stroke="#39ff9e" stroke-opacity=".3"/><line x1="0" x2="1000" y1="855" y2="855" stroke="#39ff9e" stroke-opacity=".3"/><line x1="500" y1="560" x2="-820" y2="1000" stroke="#39ff9e" stroke-opacity=".25"/><line x1="500" y1="560" x2="-710" y2="1000" stroke="#39ff9e" stroke-opacity=".25"/><line x1="500" y1="560" x2="-600" y2="1000" stroke="#39ff9e" stroke-opacity=".25"/><line x1="500" y1="560" x2="-490" y2="1000" stroke="#39ff9e" stroke-opacity=".25"/><line x1="500" y1="560" x2="-380" y2="1000" stroke="#39ff9e" stroke-opacity=".25"/><line x1="500" y1="560" x2="-270" y2="1000" stroke="#39ff9e" stroke-opacity=".25"/><line x1="500" y1="560" x2="-160" y2="1000" stroke="#39ff9e" stroke-opacity=".25"/><line x1="500" y1="560" x2="-50" y2="1000" stroke="#39ff9e" stroke-opacity=".25"/><line x1="500" y1="560" x2="60" y2="1000" stroke="#39ff9e" stroke-opacity=".25"/><line x1="500" y1="560" x2="170" y2="1000" stroke="#39ff9e" stroke-opacity=".25"/><line x1="500" y1="560" x2="280" y2="1000" stroke="#39ff9e" stroke-opacity=".25"/><line x1="500" y1="560" x2="390" y2="1000" stroke="#39ff9e" stroke-opacity=".25"/><line x1="500" y1="560" x2="500" y2="1000" stroke="#39ff9e" stroke-opacity=".25"/><line x1="500" y1="560" x2="610" y2="1000" stroke="#39ff9e" stroke-opacity=".25"/><line x1="500" y1="560" x2="720" y2="1000" stroke="#39ff9e" stroke-opacity=".25"/><line x1="500" y1="560" x2="830" y2="1000" stroke="#39ff9e" stroke-opacity=".25"/><line x1="500" y1="560" x2="940" y2="1000" stroke="#39ff9e" stroke-opacity=".25"/><line x1="500" y1="560" x2="1050" y2="1000" stroke="#39ff9e" stroke-opacity=".25"/><line x1="500" y1="560" x2="1160" y2="1000" stroke="#39ff9e" stroke-opacity=".25"/><line x1="500" y1="560" x2="1270" y2="1000" stroke="#39ff9e" stroke-opacity=".25"/><line x1="500" y1="560" x2="1380" y2="1000" stroke="#39ff9e" stroke-opacity=".25"/><line x1="500" y1="560" x2="1490" y2="1000" stroke="#39ff9e" stroke-opacity=".25"/><line x1="500" y1="560" x2="1600" y2="1000" stroke="#39ff9e" stroke-opacity=".25"/><line x1="500" y1="560" x2="1710" y2="1000" stroke="#39ff9e" stroke-opacity=".25"/><line x1="500" y1="560" x2="1820" y2="1000" stroke="#39ff9e" stroke-opacity=".25"/><text x="70" y="170" font-family="'JetBrains Mono','DejaVu Sans Mono','Courier New',monospace" font-size="20" fill="#39ff9e" fill-opacity="0.56">5CB4 06B3 A978 77EC 2652 CADD</text><text x="70" y="200" font-family="'JetBrains Mono','DejaVu Sans Mono','Courier New',monospace" font-size="20" fill="#39ff9e" fill-opacity="0.47">0CCE 3BB2 692B 4286 002C 00B5</text><text x="70" y="230" font-family="'JetBrains Mono','DejaVu Sans Mono','Courier New',monospace" font-size="20" fill="#39ff9e" fill-opacity="0.49">04F5 6732 57FF 5098 34F5 7B63</text><text x="70" y="260" font-family="'JetBrains Mono','DejaVu Sans Mono','Courier New',monospace" font-size="20" fill="#39ff9e" fill-opacity="0.59">9F93 D18A 61EA 1EC3 6BEE 5B3C</text><text x="70" y="290" font-family="'JetBrains Mono','DejaVu Sans Mono','Courier New',monospace" font-size="20" fill="#39ff9e" fill-opacity="0.32">D9E6 0D23 656E CC47 909A 40CD</text><text x="70" y="320" font-family="'JetBrains Mono','DejaVu Sans Mono','Courier New',monospace" font-size="20" fill="#39ff9e" fill-opacity="0.73">62CE 485E CC40 DAFE C0E7 336D</text><text x="70" y="350" font-family="'JetBrains Mono','DejaVu Sans Mono','Courier New',monospace" font-size="20" fill="#39ff9e" fill-opacity="0.69">0245 822A 9ABE 8E98 6B61 9D8E</text><text x="70" y="380" font-family="'JetBrains Mono','DejaVu Sans Mono','Courier New',monospace" font-size="20" fill="#39ff9e" fill-opacity="0.71">B843 BA95 D684 9789 9613 C89F</text><text x="70" y="410" font-family="'JetBrains Mono','DejaVu Sans Mono','Courier New',monospace" font-size="20" fill="#39ff9e" fill-opacity="0.39">9683 FC23 D8AB 1141 F808 FFBE</text><text x="70" y="440" font-family="'JetBrains Mono','DejaVu Sans Mono','Courier New',monospace" font-size="20" fill="#39ff9e" fill-opacity="0.52">456B 7ED8 7F06 9983 C9EC B428</text><text x="70" y="470" font-family="'JetBrains Mono','DejaVu Sans Mono','Courier New',monospace" font-size="20" fill="#39ff9e" fill-opacity="0.35">1EC6 884F FA60 8420 D82B BDCE</text><text x="70" y="500" font-family="'JetBrains Mono','DejaVu Sans Mono','Courier New',monospace" font-size="20" fill="#39ff9e" fill-opacity="0.44">E6CE FFE5 593F FA2F 7468 ACEA</text><text x="70" y="530" font-family="'JetBrains Mono','DejaVu Sans Mono','Courier New',monospace" font-size="22" fill="#5ae8ff">&gt; run --create --destroy --reboot_</text><rect x="460" y="365" width="291" height="8" fill="#5ae8ff" fill-opacity=".7"/><rect x="442" y="288" width="352" height="16" fill="#39ff9e" fill-opacity=".7"/><rect x="130" y="165" width="280" height="4" fill="#5ae8ff" fill-opacity=".7"/><rect y="640" width="1000" height="360" fill="url(#tfade)"/><text x="70" y="96" font-family="'Sora','DM Sans','Helvetica Neue',Helvetica,Arial,sans-serif" font-size="26" font-weight="600" letter-spacing="9" fill="rgba(57,255,158,.85)" text-anchor="start">WUNDERLAND RECORDS</text><text x="70" y="930" font-family="'JetBrains Mono','DejaVu Sans Mono','Courier New',monospace" font-size="116" font-weight="800" letter-spacing="-1" fill="#d9ffe9" text-anchor="start">JULIAN.EXE</text><g transform="translate(868,52) scale(0.0625)"><path d="M512,82 L847,287 L847,712 L512,925 L176,712 L176,287 Z M316,378 L316,630 L512,755 L707,630 L707,378 L512,258 Z" fill="#F5C211" fill-rule="evenodd"/><polygon points="512,391 622,504 512,617 402,504" fill="#F5C211"/></g></svg><text x="400" y="443" text-anchor="middle" font-family="'Sora','DM Sans','Helvetica Neue',Helvetica,Arial,sans-serif" font-size="13" font-weight="700" letter-spacing="2.5" fill="#f3f3f0" fill-opacity="1">RUN. CREATE. DESTROY. REBOOT.</text></svg>