<svg xmlns="http://www.w3.org/2000/svg" viewBox="0 0 800 800" width="800" height="800" role="img" aria-label="STAR MAPS VOL. 2 — Digital Album · MP3 / WAV / FLAC"><defs><linearGradient id="stage" x1="0" y1="0" x2="1" y2="1"><stop offset="0" stop-color="#fafaf8"/><stop offset="1" stop-color="#e4e4e0"/></linearGradient><filter id="sh" x="-20%" y="-20%" width="140%" height="150%"><feDropShadow dx="0" dy="14" stdDeviation="16" flood-color="#000" flood-opacity=".28"/></filter><filter id="shs" x="-20%" y="-20%" width="140%" height="150%"><feDropShadow dx="0" dy="5" stdDeviation="6" flood-color="#000" flood-opacity=".25"/></filter><radialGradient id="vinylShine" cx="50%" cy="50%" r="50%"><stop offset="0" stop-color="#fff" stop-opacity="0"/><stop offset=".7" stop-color="#fff" stop-opacity=".06"/><stop offset="1" stop-color="#fff" stop-opacity="0"/></radialGradient><linearGradient id="gloss" x1="0" y1="0" x2="1" y2="1"><stop offset="0" stop-color="#fff" stop-opacity=".28"/><stop offset=".45" stop-color="#fff" stop-opacity="0"/></linearGradient></defs><rect width="800" height="800" fill="url(#stage)"/><ellipse cx="400" cy="720" rx="330" ry="26" fill="#000" fill-opacity=".07"/><g filter="url(#sh)"><rect x="150" y="90" width="500" height="500" rx="20" fill="#000"/></g><clipPath id="dg"><rect x="150" y="90" width="500" height="500" rx="20"/></clipPath><g clip-path="url(#dg)"><svg x="150" y="90" width="500" height="500" viewBox="0 0 1000 1000"><defs><linearGradient id="gfade" x1="0" y1="0" x2="0" y2="1"><stop offset="0" stop-color="#000" stop-opacity="0"/><stop offset="1" stop-color="#000" stop-opacity=".55"/></linearGradient></defs><defs><linearGradient id="gbg" x1="0" y1="0" x2="0" y2="1"><stop offset="0" stop-color="#0b1330"/><stop offset="1" stop-color="#03050d"/></linearGradient><radialGradient id="gpl" cx="35%" cy="35%" r="70%"><stop offset="0" stop-color="#F5C211"/><stop offset="1" stop-color="#6b4a00"/></radialGradient></defs><rect width="1000" height="1000" fill="url(#gbg)"/><circle cx="267" cy="847" r="1.6" fill="#fff" fill-opacity="0.51"/><circle cx="701" cy="122" r="1.6" fill="#fff" fill-opacity="0.47"/><circle cx="358" cy="679" r="1.2" fill="#fff" fill-opacity="0.41"/><circle cx="89" cy="410" r="1.2" fill="#fff" fill-opacity="0.40"/><circle cx="781" cy="134" r="1.6" fill="#fff" fill-opacity="0.39"/><circle cx="7" cy="801" r="1.6" fill="#fff" fill-opacity="0.41"/><circle cx="116" cy="329" r="1.6" fill="#fff" fill-opacity="0.38"/><circle cx="776" cy="551" r="0.8" fill="#fff" fill-opacity="0.78"/><circle cx="414" cy="707" r="1.2" fill="#fff" fill-opacity="0.70"/><circle cx="862" cy="86" r="1.2" fill="#fff" fill-opacity="0.79"/><circle cx="888" cy="66" r="1.6" fill="#fff" fill-opacity="0.64"/><circle cx="245" cy="279" r="1.6" fill="#fff" fill-opacity="0.72"/><circle cx="60" cy="797" r="1.6" fill="#fff" fill-opacity="0.63"/><circle cx="460" cy="529" r="1.6" fill="#fff" fill-opacity="0.71"/><circle cx="877" cy="320" r="1.6" fill="#fff" fill-opacity="0.69"/><circle cx="156" cy="229" r="1.6" fill="#fff" fill-opacity="0.59"/><circle cx="340" cy="979" r="0.8" fill="#fff" fill-opacity="0.40"/><circle cx="585" cy="676" r="1.6" fill="#fff" fill-opacity="0.38"/><circle cx="997" cy="672" r="0.8" fill="#fff" fill-opacity="0.62"/><circle cx="662" cy="330" r="2.2" fill="#fff" fill-opacity="0.79"/><circle cx="611" cy="715" r="1.6" fill="#fff" fill-opacity="0.65"/><circle cx="58" cy="710" r="2.2" fill="#fff" fill-opacity="0.44"/><circle cx="60" cy="734" r="0.8" fill="#fff" fill-opacity="0.48"/><circle cx="982" cy="499" r="1.2" fill="#fff" fill-opacity="0.90"/><circle cx="829" cy="167" r="0.8" fill="#fff" fill-opacity="0.40"/><circle cx="720" cy="167" r="0.8" fill="#fff" fill-opacity="0.83"/><circle cx="888" cy="782" r="0.8" fill="#fff" fill-opacity="0.49"/><circle cx="80" cy="774" r="1.2" fill="#fff" fill-opacity="0.56"/><circle cx="718" cy="4" r="2.2" fill="#fff" fill-opacity="0.70"/><circle cx="656" cy="844" r="0.8" fill="#fff" fill-opacity="0.54"/><circle cx="492" cy="963" r="0.8" fill="#fff" fill-opacity="0.48"/><circle cx="555" cy="779" r="1.6" fill="#fff" fill-opacity="0.72"/><circle cx="359" cy="193" r="1.2" fill="#fff" fill-opacity="0.54"/><circle cx="294" cy="78" r="1.2" fill="#fff" fill-opacity="0.55"/><circle cx="261" cy="34" r="0.8" fill="#fff" fill-opacity="0.72"/><circle cx="562" cy="799" r="1.6" fill="#fff" fill-opacity="0.49"/><circle cx="114" cy="524" r="2.2" fill="#fff" fill-opacity="0.36"/><circle cx="801" cy="734" r="0.8" fill="#fff" fill-opacity="0.34"/><circle cx="629" cy="184" r="1.6" fill="#fff" fill-opacity="0.37"/><circle cx="847" cy="92" r="1.2" fill="#fff" fill-opacity="0.54"/><circle cx="892" cy="614" r="0.8" fill="#fff" fill-opacity="0.64"/><circle cx="871" cy="220" r="2.2" fill="#fff" fill-opacity="0.42"/><circle cx="515" cy="697" r="0.8" fill="#fff" fill-opacity="0.42"/><circle cx="316" cy="555" r="2.2" fill="#fff" fill-opacity="0.61"/><circle cx="215" cy="726" r="0.8" fill="#fff" fill-opacity="0.76"/><circle cx="648" cy="187" r="0.8" fill="#fff" fill-opacity="0.41"/><circle cx="4" cy="20" r="2.2" fill="#fff" fill-opacity="0.56"/><circle cx="315" cy="990" r="1.6" fill="#fff" fill-opacity="0.77"/><circle cx="95" cy="582" r="0.8" fill="#fff" fill-opacity="0.72"/><circle cx="739" cy="317" r="0.8" fill="#fff" fill-opacity="0.81"/><circle cx="360" cy="261" r="0.8" fill="#fff" fill-opacity="0.39"/><circle cx="607" cy="44" r="1.6" fill="#fff" fill-opacity="0.70"/><circle cx="931" cy="189" r="1.6" fill="#fff" fill-opacity="0.42"/><circle cx="481" cy="856" r="1.2" fill="#fff" fill-opacity="0.65"/><circle cx="425" cy="485" r="1.6" fill="#fff" fill-opacity="0.80"/><circle cx="226" cy="728" r="2.2" fill="#fff" fill-opacity="0.63"/><circle cx="90" cy="207" r="1.2" fill="#fff" fill-opacity="0.80"/><circle cx="341" cy="845" r="1.2" fill="#fff" fill-opacity="0.80"/><circle cx="583" cy="388" r="1.6" fill="#fff" fill-opacity="0.79"/><circle cx="56" cy="448" r="1.6" fill="#fff" fill-opacity="0.39"/><circle cx="710" cy="372" r="1.2" fill="#fff" fill-opacity="0.77"/><circle cx="275" cy="972" r="2.2" fill="#fff" fill-opacity="0.68"/><circle cx="131" cy="923" r="1.6" fill="#fff" fill-opacity="0.33"/><circle cx="695" cy="803" r="2.2" fill="#fff" fill-opacity="0.69"/><circle cx="723" cy="893" r="1.2" fill="#fff" fill-opacity="0.83"/><circle cx="456" cy="923" r="1.6" fill="#fff" fill-opacity="0.64"/><circle cx="645" cy="323" r="2.2" fill="#fff" fill-opacity="0.32"/><circle cx="866" cy="278" r="2.2" fill="#fff" fill-opacity="0.47"/><circle cx="815" cy="750" r="1.2" fill="#fff" fill-opacity="0.70"/><circle cx="268" cy="819" r="1.2" fill="#fff" fill-opacity="0.39"/><circle cx="389" cy="905" r="2.2" fill="#fff" fill-opacity="0.43"/><circle cx="320" cy="684" r="0.8" fill="#fff" fill-opacity="0.45"/><circle cx="352" cy="73" r="2.2" fill="#fff" fill-opacity="0.53"/><circle cx="103" cy="593" r="1.2" fill="#fff" fill-opacity="0.85"/><circle cx="480" cy="534" r="2.2" fill="#fff" fill-opacity="0.72"/><circle cx="537" cy="794" r="1.6" fill="#fff" fill-opacity="0.55"/><circle cx="670" cy="566" r="1.6" fill="#fff" fill-opacity="0.37"/><circle cx="925" cy="231" r="2.2" fill="#fff" fill-opacity="0.60"/><circle cx="472" cy="903" r="0.8" fill="#fff" fill-opacity="0.49"/><circle cx="54" cy="32" r="1.2" fill="#fff" fill-opacity="0.65"/><circle cx="514" cy="290" r="2.2" fill="#fff" fill-opacity="0.56"/><circle cx="765" cy="770" r="0.8" fill="#fff" fill-opacity="0.45"/><circle cx="182" cy="633" r="2.2" fill="#fff" fill-opacity="0.76"/><circle cx="294" cy="246" r="1.2" fill="#fff" fill-opacity="0.31"/><circle cx="643" cy="582" r="1.2" fill="#fff" fill-opacity="0.86"/><circle cx="263" cy="181" r="1.2" fill="#fff" fill-opacity="0.68"/><circle cx="944" cy="654" r="2.2" fill="#fff" fill-opacity="0.45"/><circle cx="380" cy="649" r="1.6" fill="#fff" fill-opacity="0.54"/><circle cx="133" cy="182" r="1.2" fill="#fff" fill-opacity="0.82"/><circle cx="941" cy="509" r="2.2" fill="#fff" fill-opacity="0.42"/><circle cx="467" cy="403" r="0.8" fill="#fff" fill-opacity="0.89"/><circle cx="497" cy="295" r="1.6" fill="#fff" fill-opacity="0.67"/><circle cx="646" cy="874" r="0.8" fill="#fff" fill-opacity="0.49"/><circle cx="125" cy="545" r="0.8" fill="#fff" fill-opacity="0.47"/><circle cx="767" cy="432" r="1.2" fill="#fff" fill-opacity="0.86"/><circle cx="351" cy="928" r="0.8" fill="#fff" fill-opacity="0.78"/><circle cx="121" cy="802" r="1.6" fill="#fff" fill-opacity="0.31"/><circle cx="317" cy="186" r="0.8" fill="#fff" fill-opacity="0.34"/><circle cx="184" cy="827" r="0.8" fill="#fff" fill-opacity="0.63"/><circle cx="463" cy="977" r="2.2" fill="#fff" fill-opacity="0.71"/><circle cx="553" cy="286" r="1.2" fill="#fff" fill-opacity="0.44"/><circle cx="345" cy="484" r="1.6" fill="#fff" fill-opacity="0.80"/><circle cx="757" cy="780" r="1.6" fill="#fff" fill-opacity="0.81"/><circle cx="376" cy="382" r="2.2" fill="#fff" fill-opacity="0.83"/><circle cx="170" cy="178" r="2.2" fill="#fff" fill-opacity="0.34"/><circle cx="139" cy="28" r="1.6" fill="#fff" fill-opacity="0.67"/><circle cx="241" cy="750" r="2.2" fill="#fff" fill-opacity="0.55"/><circle cx="890" cy="859" r="1.6" fill="#fff" fill-opacity="0.45"/><circle cx="672" cy="14" r="1.2" fill="#fff" fill-opacity="0.68"/><circle cx="858" cy="139" r="1.2" fill="#fff" fill-opacity="0.67"/><circle cx="973" cy="91" r="2.2" fill="#fff" fill-opacity="0.87"/><circle cx="465" cy="672" r="0.8" fill="#fff" fill-opacity="0.78"/><circle cx="544" cy="665" r="0.8" fill="#fff" fill-opacity="0.31"/><circle cx="88" cy="939" r="1.2" fill="#fff" fill-opacity="0.71"/><circle cx="268" cy="229" r="2.2" fill="#fff" fill-opacity="0.49"/><circle cx="603" cy="918" r="1.6" fill="#fff" fill-opacity="0.63"/><circle cx="369" cy="600" r="1.6" fill="#fff" fill-opacity="0.37"/><circle cx="389" cy="459" r="2.2" fill="#fff" fill-opacity="0.49"/><circle cx="330" cy="395" r="1.2" fill="#fff" fill-opacity="0.72"/><circle cx="527" cy="444" r="2.2" fill="#fff" fill-opacity="0.61"/><circle cx="666" cy="124" r="0.8" fill="#fff" fill-opacity="0.71"/><circle cx="455" cy="236" r="1.2" fill="#fff" fill-opacity="0.60"/><circle cx="143" cy="393" r="2.2" fill="#fff" fill-opacity="0.69"/><circle cx="493" cy="622" r="1.2" fill="#fff" fill-opacity="0.90"/><circle cx="941" cy="496" r="1.6" fill="#fff" fill-opacity="0.74"/><circle cx="843" cy="403" r="1.6" fill="#fff" fill-opacity="0.31"/><circle cx="756" cy="783" r="0.8" fill="#fff" fill-opacity="0.53"/><circle cx="177" cy="732" r="1.2" fill="#fff" fill-opacity="0.76"/><circle cx="459" cy="313" r="2.2" fill="#fff" fill-opacity="0.68"/><circle cx="998" cy="185" r="0.8" fill="#fff" fill-opacity="0.48"/><circle cx="152" cy="278" r="0.8" fill="#fff" fill-opacity="0.73"/><circle cx="240" cy="347" r="0.8" fill="#fff" fill-opacity="0.44"/><circle cx="360" cy="566" r="2.2" fill="#fff" fill-opacity="0.60"/><circle cx="373" cy="118" r="1.6" fill="#fff" fill-opacity="0.35"/><circle cx="542" cy="740" r="1.2" fill="#fff" fill-opacity="0.75"/><circle cx="275" cy="843" r="1.6" fill="#fff" fill-opacity="0.41"/><circle cx="672" cy="816" r="2.2" fill="#fff" fill-opacity="0.74"/><circle cx="212" cy="616" r="1.2" fill="#fff" fill-opacity="0.40"/><circle cx="674" cy="225" r="0.8" fill="#fff" fill-opacity="0.48"/><circle cx="598" cy="255" r="2.2" fill="#fff" fill-opacity="0.57"/><circle cx="923" cy="596" r="0.8" fill="#fff" fill-opacity="0.31"/><circle cx="421" cy="423" r="1.6" fill="#fff" fill-opacity="0.77"/><circle cx="495" cy="103" r="0.8" fill="#fff" fill-opacity="0.86"/><circle cx="894" cy="516" r="2.2" fill="#fff" fill-opacity="0.78"/><circle cx="839" cy="146" r="2.2" fill="#fff" fill-opacity="0.75"/><circle cx="463" cy="639" r="1.2" fill="#fff" fill-opacity="0.32"/><circle cx="945" cy="922" r="1.2" fill="#fff" fill-opacity="0.64"/><circle cx="44" cy="101" r="0.8" fill="#fff" fill-opacity="0.60"/><circle cx="338" cy="198" r="1.6" fill="#fff" fill-opacity="0.35"/><circle cx="561" cy="953" r="1.2" fill="#fff" fill-opacity="0.44"/><circle cx="198" cy="134" r="1.6" fill="#fff" fill-opacity="0.34"/><circle cx="730" cy="739" r="1.2" fill="#fff" fill-opacity="0.66"/><circle cx="822" cy="717" r="2.2" fill="#fff" fill-opacity="0.61"/><circle cx="745" cy="395" r="1.2" fill="#fff" fill-opacity="0.78"/><circle cx="845" cy="708" r="0.8" fill="#fff" fill-opacity="0.74"/><circle cx="912" cy="978" r="1.2" fill="#fff" fill-opacity="0.78"/><circle cx="498" cy="434" r="1.6" fill="#fff" fill-opacity="0.72"/><circle cx="536" cy="994" r="2.2" fill="#fff" fill-opacity="0.41"/><circle cx="590" cy="86" r="1.2" fill="#fff" fill-opacity="0.45"/><circle cx="1000" cy="279" r="1.6" fill="#fff" fill-opacity="0.85"/><circle cx="582" cy="854" r="0.8" fill="#fff" fill-opacity="0.41"/><circle cx="633" cy="547" r="2.2" fill="#fff" fill-opacity="0.37"/><circle cx="564" cy="985" r="1.2" fill="#fff" fill-opacity="0.59"/><circle cx="118" cy="523" r="1.2" fill="#fff" fill-opacity="0.72"/><circle cx="651" cy="12" r="0.8" fill="#fff" fill-opacity="0.80"/><circle cx="552" cy="961" r="1.2" fill="#fff" fill-opacity="0.71"/><circle cx="102" cy="258" r="1.2" fill="#fff" fill-opacity="0.46"/><circle cx="16" cy="891" r="0.8" fill="#fff" fill-opacity="0.71"/><circle cx="248" cy="653" r="2.2" fill="#fff" fill-opacity="0.47"/><circle cx="403" cy="288" r="1.2" fill="#fff" fill-opacity="0.82"/><ellipse cx="462" cy="418" rx="150" ry="55" fill="none" stroke="#F5C211" stroke-opacity="0.55" stroke-width="1.6" transform="rotate(-21 462 418)"/><ellipse cx="462" cy="418" rx="245" ry="91" fill="none" stroke="#F5C211" stroke-opacity="0.45" stroke-width="1.6" transform="rotate(-17 462 418)"/><ellipse cx="462" cy="418" rx="340" ry="127" fill="none" stroke="#F5C211" stroke-opacity="0.35" stroke-width="1.6" transform="rotate(-21 462 418)"/><ellipse cx="462" cy="418" rx="435" ry="163" fill="none" stroke="#F5C211" stroke-opacity="0.25" stroke-width="1.6" transform="rotate(-18 462 418)"/><circle cx="462" cy="418" r="95" fill="url(#gpl)"/><polyline points="258,229 289,409 359,147 386,497 450,631 499,416 696,446 706,266" fill="none" stroke="#cfe0ff" stroke-opacity=".7" stroke-width="1.8"/><circle cx="258" cy="229" r="6" fill="#fff"/><circle cx="258" cy="229" r="14" fill="none" stroke="#fff" stroke-opacity=".35"/><circle cx="289" cy="409" r="6" fill="#fff"/><circle cx="289" cy="409" r="14" fill="none" stroke="#fff" stroke-opacity=".35"/><circle cx="359" cy="147" r="6" fill="#fff"/><circle cx="359" cy="147" r="14" fill="none" stroke="#fff" stroke-opacity=".35"/><circle cx="386" cy="497" r="6" fill="#fff"/><circle cx="386" cy="497" r="14" fill="none" stroke="#fff" stroke-opacity=".35"/><circle cx="450" cy="631" r="6" fill="#fff"/><circle cx="450" cy="631" r="14" fill="none" stroke="#fff" stroke-opacity=".35"/><circle cx="499" cy="416" r="6" fill="#fff"/><circle cx="499" cy="416" r="14" fill="none" stroke="#fff" stroke-opacity=".35"/><circle cx="696" cy="446" r="6" fill="#fff"/><circle cx="696" cy="446" r="14" fill="none" stroke="#fff" stroke-opacity=".35"/><circle cx="706" cy="266" r="6" fill="#fff"/><circle cx="706" cy="266" r="14" fill="none" stroke="#fff" stroke-opacity=".35"/><line x1="0" y1="0" x2="0" y2="1000" stroke="#fff" stroke-opacity=".04"/><line y1="0" x1="0" y2="0" x2="1000" stroke="#fff" stroke-opacity=".04"/><line x1="100" y1="0" x2="100" y2="1000" stroke="#fff" stroke-opacity=".04"/><line y1="100" x1="0" y2="100" x2="1000" stroke="#fff" stroke-opacity=".04"/><line x1="200" y1="0" x2="200" y2="1000" stroke="#fff" stroke-opacity=".04"/><line y1="200" x1="0" y2="200" x2="1000" stroke="#fff" stroke-opacity=".04"/><line x1="300" y1="0" x2="300" y2="1000" stroke="#fff" stroke-opacity=".04"/><line y1="300" x1="0" y2="300" x2="1000" stroke="#fff" stroke-opacity=".04"/><line x1="400" y1="0" x2="400" y2="1000" stroke="#fff" stroke-opacity=".04"/><line y1="400" x1="0" y2="400" x2="1000" stroke="#fff" stroke-opacity=".04"/><line x1="500" y1="0" x2="500" y2="1000" stroke="#fff" stroke-opacity=".04"/><line y1="500" x1="0" y2="500" x2="1000" stroke="#fff" stroke-opacity=".04"/><line x1="600" y1="0" x2="600" y2="1000" stroke="#fff" stroke-opacity=".04"/><line y1="600" x1="0" y2="600" x2="1000" stroke="#fff" stroke-opacity=".04"/><line x1="700" y1="0" x2="700" y2="1000" stroke="#fff" stroke-opacity=".04"/><line y1="700" x1="0" y2="700" x2="1000" stroke="#fff" stroke-opacity=".04"/><line x1="800" y1="0" x2="800" y2="1000" stroke="#fff" stroke-opacity=".04"/><line y1="800" x1="0" y2="800" x2="1000" stroke="#fff" stroke-opacity=".04"/><line x1="900" y1="0" x2="900" y2="1000" stroke="#fff" stroke-opacity=".04"/><line y1="900" x1="0" y2="900" x2="1000" stroke="#fff" stroke-opacity=".04"/><rect y="640" width="1000" height="360" fill="url(#gfade)"/><text x="70" y="96" font-family="'Sora','DM Sans','Helvetica Neue',Helvetica,Arial,sans-serif" font-size="26" font-weight="600" letter-spacing="9" fill="rgba(207,224,255,.8)" text-anchor="start">NOVADECK</text><text x="70" y="814" font-family="'Sora','DM Sans','Helvetica Neue',Helvetica,Arial,sans-serif" font-size="118" font-weight="800" letter-spacing="-1" fill="#fff" text-anchor="start">STAR MAPS</text><text x="70" y="930" font-family="'Sora','DM Sans','Helvetica Neue',Helvetica,Arial,sans-serif" font-size="118" font-weight="800" letter-spacing="-1" fill="#fff" text-anchor="start">VOL. 2</text><g transform="translate(868,52) scale(0.0625)"><path d="M512,82 L847,287 L847,712 L512,925 L176,712 L176,287 Z M316,378 L316,630 L512,755 L707,630 L707,378 L512,258 Z" fill="#F5C211" fill-rule="evenodd"/><polygon points="512,391 622,504 512,617 402,504" fill="#F5C211"/></g></svg></g><rect x="150" y="90" width="500" height="500" rx="20" fill="url(#gloss)"/><rect x="160.0" y="634.9" width="6" height="14.2" rx="3" fill="#1c1c1c" fill-opacity="0.85"/><rect x="170.6" y="624.0" width="6" height="35.9" rx="3" fill="#1c1c1c" fill-opacity="0.85"/><rect x="181.2" y="623.2" width="6" height="37.6" rx="3" fill="#1c1c1c" fill-opacity="0.85"/><rect x="191.8" y="621.2" width="6" height="41.7" rx="3" fill="#1c1c1c" fill-opacity="0.85"/><rect x="202.4" y="614.5" width="6" height="55.0" rx="3" fill="#1c1c1c" fill-opacity="0.85"/><rect x="213.0" y="619.5" width="6" height="45.0" rx="3" fill="#1c1c1c" fill-opacity="0.85"/><rect x="223.6" y="625.8" width="6" height="32.4" rx="3" fill="#1c1c1c" fill-opacity="0.85"/><rect x="234.2" y="637.2" width="6" height="9.7" rx="3" fill="#1c1c1c" fill-opacity="0.85"/><rect x="244.8" y="630.3" width="6" height="23.3" rx="3" fill="#1c1c1c" fill-opacity="0.85"/><rect x="255.4" y="619.9" width="6" height="44.1" rx="3" fill="#1c1c1c" fill-opacity="0.85"/><rect x="266.0" y="620.1" width="6" height="43.8" rx="3" fill="#1c1c1c" fill-opacity="0.85"/><rect x="276.6" y="618.7" width="6" height="46.5" rx="3" fill="#1c1c1c" fill-opacity="0.85"/><rect x="287.2" y="619.3" width="6" height="45.3" rx="3" fill="#1c1c1c" fill-opacity="0.85"/><rect x="297.8" y="623.7" width="6" height="36.7" rx="3" fill="#1c1c1c" fill-opacity="0.85"/><rect x="308.4" y="637.6" width="6" height="8.7" rx="3" fill="#1c1c1c" fill-opacity="0.85"/><rect x="319.0" y="627.7" width="6" height="28.7" rx="3" fill="#1c1c1c" fill-opacity="0.85"/><rect x="329.6" y="625.3" width="6" height="33.5" rx="3" fill="#1c1c1c" fill-opacity="0.85"/><rect x="340.2" y="616.0" width="6" height="52.0" rx="3" fill="#1c1c1c" fill-opacity="0.85"/><rect x="350.8" y="620.7" width="6" height="42.6" rx="3" fill="#1c1c1c" fill-opacity="0.25"/><rect x="361.4" y="618.9" width="6" height="46.2" rx="3" fill="#1c1c1c" fill-opacity="0.25"/><rect x="372.0" y="629.0" width="6" height="25.9" rx="3" fill="#1c1c1c" fill-opacity="0.25"/><rect x="382.6" y="632.4" width="6" height="19.3" rx="3" fill="#1c1c1c" fill-opacity="0.25"/><rect x="393.2" y="624.9" width="6" height="34.3" rx="3" fill="#1c1c1c" fill-opacity="0.25"/><rect x="403.8" y="618.3" width="6" height="47.4" rx="3" fill="#1c1c1c" fill-opacity="0.25"/><rect x="414.4" y="620.1" width="6" height="43.8" rx="3" fill="#1c1c1c" fill-opacity="0.25"/><rect x="425.0" y="615.5" width="6" height="53.0" rx="3" fill="#1c1c1c" fill-opacity="0.25"/><rect x="435.6" y="622.4" width="6" height="39.2" rx="3" fill="#1c1c1c" fill-opacity="0.25"/><rect x="446.2" y="630.6" width="6" height="22.8" rx="3" fill="#1c1c1c" fill-opacity="0.25"/><rect x="456.8" y="628.9" width="6" height="26.2" rx="3" fill="#1c1c1c" fill-opacity="0.25"/><rect x="467.4" y="624.4" width="6" height="35.3" rx="3" fill="#1c1c1c" fill-opacity="0.25"/><rect x="478.0" y="625.0" width="6" height="34.0" rx="3" fill="#1c1c1c" fill-opacity="0.25"/><rect x="488.6" y="615.9" width="6" height="52.2" rx="3" fill="#1c1c1c" fill-opacity="0.25"/><rect x="499.2" y="621.9" width="6" height="40.3" rx="3" fill="#1c1c1c" fill-opacity="0.25"/><rect x="509.8" y="621.6" width="6" height="40.9" rx="3" fill="#1c1c1c" fill-opacity="0.25"/><rect x="520.4" y="623.4" width="6" height="37.2" rx="3" fill="#1c1c1c" fill-opacity="0.25"/><rect x="531.0" y="630.5" width="6" height="22.9" rx="3" fill="#1c1c1c" fill-opacity="0.25"/><rect x="541.6" y="627.8" width="6" height="28.5" rx="3" fill="#1c1c1c" fill-opacity="0.25"/><rect x="552.2" y="617.7" width="6" height="48.6" rx="3" fill="#1c1c1c" fill-opacity="0.25"/><rect x="562.8" y="622.6" width="6" height="38.8" rx="3" fill="#1c1c1c" fill-opacity="0.25"/><rect x="573.4" y="623.5" width="6" height="37.1" rx="3" fill="#1c1c1c" fill-opacity="0.25"/><rect x="584.0" y="623.2" width="6" height="37.7" rx="3" fill="#1c1c1c" fill-opacity="0.25"/><rect x="594.6" y="624.3" width="6" height="35.4" rx="3" fill="#1c1c1c" fill-opacity="0.25"/><rect x="605.2" y="632.7" width="6" height="18.6" rx="3" fill="#1c1c1c" fill-opacity="0.25"/><rect x="615.8" y="624.9" width="6" height="34.2" rx="3" fill="#1c1c1c" fill-opacity="0.25"/><rect x="626.4" y="618.0" width="6" height="48.0" rx="3" fill="#1c1c1c" fill-opacity="0.25"/><rect x="637.0" y="620.9" width="6" height="42.2" rx="3" fill="#1c1c1c" fill-opacity="0.25"/><g filter="url(#shs)"><circle cx="640" cy="590" r="58" fill="#1c1c1c"/></g><path d="M640,560 V612 M618,592 L640,614 L662,592" stroke="#F5C211" stroke-width="7" fill="none" stroke-linecap="round" stroke-linejoin="round"/><rect x="160" y="690" width="118" height="34" rx="17" fill="none" stroke="#1c1c1c" stroke-opacity=".5"/><text x="219" y="712" text-anchor="middle" font-family="'Sora','DM Sans','Helvetica Neue',Helvetica,Arial,sans-serif" font-size="13" font-weight="600" letter-spacing="1.5" fill="#1c1c1c">MP3 320</text><rect x="290" y="690" width="118" height="34" rx="17" fill="none" stroke="#1c1c1c" stroke-opacity=".5"/><text x="349" y="712" text-anchor="middle" font-family="'Sora','DM Sans','Helvetica Neue',Helvetica,Arial,sans-serif" font-size="13" font-weight="600" letter-spacing="1.5" fill="#1c1c1c">WAV</text><rect x="420" y="690" width="118" height="34" rx="17" fill="none" stroke="#1c1c1c" stroke-opacity=".5"/><text x="479" y="712" text-anchor="middle" font-family="'Sora','DM Sans','Helvetica Neue',Helvetica,Arial,sans-serif" font-size="13" font-weight="600" letter-spacing="1.5" fill="#1c1c1c">FLAC 24-BIT</text><text x="160" y="760" font-family="'Sora','DM Sans','Helvetica Neue',Helvetica,Arial,sans-serif" font-size="12" font-weight="600" letter-spacing="3" fill="#1c1c1c" fill-opacity=".6">DIGITAL ALBUM · INSTANT DOWNLOAD</text></svg>