<svg xmlns="http://www.w3.org/2000/svg" viewBox="0 0 800 800" width="800" height="800" role="img" aria-label="ORBIT — 7&quot; Single · Black Vinyl"><defs><linearGradient id="stage" x1="0" y1="0" x2="1" y2="1"><stop offset="0" stop-color="#fafaf8"/><stop offset="1" stop-color="#e4e4e0"/></linearGradient><filter id="sh" x="-20%" y="-20%" width="140%" height="150%"><feDropShadow dx="0" dy="14" stdDeviation="16" flood-color="#000" flood-opacity=".28"/></filter><filter id="shs" x="-20%" y="-20%" width="140%" height="150%"><feDropShadow dx="0" dy="5" stdDeviation="6" flood-color="#000" flood-opacity=".25"/></filter><radialGradient id="vinylShine" cx="50%" cy="50%" r="50%"><stop offset="0" stop-color="#fff" stop-opacity="0"/><stop offset=".7" stop-color="#fff" stop-opacity=".06"/><stop offset="1" stop-color="#fff" stop-opacity="0"/></radialGradient><linearGradient id="gloss" x1="0" y1="0" x2="1" y2="1"><stop offset="0" stop-color="#fff" stop-opacity=".28"/><stop offset=".45" stop-color="#fff" stop-opacity="0"/></linearGradient></defs><rect width="800" height="800" fill="url(#stage)"/><ellipse cx="400" cy="720" rx="330" ry="26" fill="#000" fill-opacity=".07"/><g filter="url(#sh)"><circle cx="490" cy="400.0" r="170" fill="#121212" /></g><circle cx="490" cy="400.0" r="69" fill="none" stroke="#000" stroke-opacity="0.35" stroke-width=".8"/><circle cx="490" cy="400.0" r="72" fill="none" stroke="#000" stroke-opacity="0.35" stroke-width=".8"/><circle cx="490" cy="400.0" r="75" fill="none" stroke="#000" stroke-opacity="0.35" stroke-width=".8"/><circle cx="490" cy="400.0" r="78" fill="none" stroke="#000" stroke-opacity="0.35" stroke-width=".8"/><circle cx="490" cy="400.0" r="81" fill="none" stroke="#000" stroke-opacity="0.35" stroke-width=".8"/><circle cx="490" cy="400.0" r="84" fill="none" stroke="#000" stroke-opacity="0.35" stroke-width=".8"/><circle cx="490" cy="400.0" r="87" fill="none" stroke="#000" stroke-opacity="0.35" stroke-width=".8"/><circle cx="490" cy="400.0" r="90" fill="none" stroke="#000" stroke-opacity="0.35" stroke-width=".8"/><circle cx="490" cy="400.0" r="93" fill="none" stroke="#000" stroke-opacity="0.35" stroke-width=".8"/><circle cx="490" cy="400.0" r="96" fill="none" stroke="#000" stroke-opacity="0.35" stroke-width=".8"/><circle cx="490" cy="400.0" r="99" fill="none" stroke="#000" stroke-opacity="0.35" stroke-width=".8"/><circle cx="490" cy="400.0" r="102" fill="none" stroke="#000" stroke-opacity="0.35" stroke-width=".8"/><circle cx="490" cy="400.0" r="105" fill="none" stroke="#000" stroke-opacity="0.35" stroke-width=".8"/><circle cx="490" cy="400.0" r="108" fill="none" stroke="#000" stroke-opacity="0.35" stroke-width=".8"/><circle cx="490" cy="400.0" r="111" fill="none" stroke="#000" stroke-opacity="0.35" stroke-width=".8"/><circle cx="490" cy="400.0" r="114" fill="none" stroke="#000" stroke-opacity="0.35" stroke-width=".8"/><circle cx="490" cy="400.0" r="117" fill="none" stroke="#000" stroke-opacity="0.35" stroke-width=".8"/><circle cx="490" cy="400.0" r="120" fill="none" stroke="#000" stroke-opacity="0.35" stroke-width=".8"/><circle cx="490" cy="400.0" r="123" fill="none" stroke="#000" stroke-opacity="0.35" stroke-width=".8"/><circle cx="490" cy="400.0" r="126" fill="none" stroke="#000" stroke-opacity="0.35" stroke-width=".8"/><circle cx="490" cy="400.0" r="129" fill="none" stroke="#000" stroke-opacity="0.35" stroke-width=".8"/><circle cx="490" cy="400.0" r="132" fill="none" stroke="#000" stroke-opacity="0.35" stroke-width=".8"/><circle cx="490" cy="400.0" r="135" fill="none" stroke="#000" stroke-opacity="0.35" stroke-width=".8"/><circle cx="490" cy="400.0" r="138" fill="none" stroke="#000" stroke-opacity="0.35" stroke-width=".8"/><circle cx="490" cy="400.0" r="141" fill="none" stroke="#000" stroke-opacity="0.35" stroke-width=".8"/><circle cx="490" cy="400.0" r="144" fill="none" stroke="#000" stroke-opacity="0.35" stroke-width=".8"/><circle cx="490" cy="400.0" r="147" fill="none" stroke="#000" stroke-opacity="0.35" stroke-width=".8"/><circle cx="490" cy="400.0" r="150" fill="none" stroke="#000" stroke-opacity="0.35" stroke-width=".8"/><circle cx="490" cy="400.0" r="153" fill="none" stroke="#000" stroke-opacity="0.35" stroke-width=".8"/><circle cx="490" cy="400.0" r="156" fill="none" stroke="#000" stroke-opacity="0.35" stroke-width=".8"/><circle cx="490" cy="400.0" r="159" fill="none" stroke="#000" stroke-opacity="0.35" stroke-width=".8"/><circle cx="490" cy="400.0" r="162" fill="none" stroke="#000" stroke-opacity="0.35" stroke-width=".8"/><circle cx="490" cy="400.0" r="165" fill="none" stroke="#000" stroke-opacity="0.35" stroke-width=".8"/><circle cx="490" cy="400.0" r="170" fill="url(#vinylShine)"/><path d="M371,281 A170,170 0 0 1 524,233" stroke="#fff" stroke-opacity=".18" stroke-width="20" fill="none"/><clipPath id="dlab"><circle cx="490" cy="400.0" r="61"/></clipPath><g clip-path="url(#dlab)"><svg x="428.8" y="338.8" width="122.39999999999999" height="122.39999999999999" viewBox="0 0 1000 1000"><defs><linearGradient id="dfade" x1="0" y1="0" x2="0" y2="1"><stop offset="0" stop-color="#000" stop-opacity="0"/><stop offset="1" stop-color="#000" stop-opacity=".55"/></linearGradient></defs><defs><linearGradient id="dbg" x1="0" y1="0" x2="0" y2="1"><stop offset="0" stop-color="#0b1330"/><stop offset="1" stop-color="#03050d"/></linearGradient><radialGradient id="dpl" cx="35%" cy="35%" r="70%"><stop offset="0" stop-color="#F5C211"/><stop offset="1" stop-color="#6b4a00"/></radialGradient></defs><rect width="1000" height="1000" fill="url(#dbg)"/><circle cx="554" cy="300" r="1.6" fill="#fff" fill-opacity="0.84"/><circle cx="504" cy="725" r="0.8" fill="#fff" fill-opacity="0.87"/><circle cx="788" cy="451" r="1.6" fill="#fff" fill-opacity="0.40"/><circle cx="439" cy="306" r="2.2" fill="#fff" fill-opacity="0.42"/><circle cx="123" cy="395" r="1.6" fill="#fff" fill-opacity="0.83"/><circle cx="747" cy="567" r="1.2" fill="#fff" fill-opacity="0.60"/><circle cx="776" cy="549" r="0.8" fill="#fff" fill-opacity="0.79"/><circle cx="257" cy="35" r="1.6" fill="#fff" fill-opacity="0.50"/><circle cx="737" cy="173" r="1.2" fill="#fff" fill-opacity="0.80"/><circle cx="102" cy="309" r="2.2" fill="#fff" fill-opacity="0.39"/><circle cx="213" cy="489" r="1.2" fill="#fff" fill-opacity="0.72"/><circle cx="796" cy="970" r="1.2" fill="#fff" fill-opacity="0.56"/><circle cx="435" cy="165" r="2.2" fill="#fff" fill-opacity="0.37"/><circle cx="247" cy="600" r="1.6" fill="#fff" fill-opacity="0.85"/><circle cx="936" cy="33" r="1.6" fill="#fff" fill-opacity="0.68"/><circle cx="729" cy="205" r="0.8" fill="#fff" fill-opacity="0.82"/><circle cx="92" cy="656" r="1.2" fill="#fff" fill-opacity="0.51"/><circle cx="342" cy="20" r="2.2" fill="#fff" fill-opacity="0.48"/><circle cx="786" cy="118" r="0.8" fill="#fff" fill-opacity="0.79"/><circle cx="699" cy="890" r="2.2" fill="#fff" fill-opacity="0.68"/><circle cx="28" cy="49" r="1.6" fill="#fff" fill-opacity="0.67"/><circle cx="941" cy="543" r="0.8" fill="#fff" fill-opacity="0.87"/><circle cx="40" cy="929" r="0.8" fill="#fff" fill-opacity="0.57"/><circle cx="321" cy="15" r="2.2" fill="#fff" fill-opacity="0.71"/><circle cx="947" cy="212" r="0.8" fill="#fff" fill-opacity="0.48"/><circle cx="620" cy="586" r="1.2" fill="#fff" fill-opacity="0.37"/><circle cx="442" cy="775" r="2.2" fill="#fff" fill-opacity="0.41"/><circle cx="261" cy="206" r="1.2" fill="#fff" fill-opacity="0.77"/><circle cx="663" cy="264" r="1.2" fill="#fff" fill-opacity="0.51"/><circle cx="755" cy="230" r="2.2" fill="#fff" fill-opacity="0.70"/><circle cx="986" cy="443" r="0.8" fill="#fff" fill-opacity="0.70"/><circle cx="675" cy="683" r="1.6" fill="#fff" fill-opacity="0.47"/><circle cx="575" cy="156" r="1.6" fill="#fff" fill-opacity="0.32"/><circle cx="238" cy="900" r="1.2" fill="#fff" fill-opacity="0.40"/><circle cx="663" cy="184" r="1.6" fill="#fff" fill-opacity="0.68"/><circle cx="146" cy="701" r="0.8" fill="#fff" fill-opacity="0.48"/><circle cx="245" cy="391" r="1.6" fill="#fff" fill-opacity="0.73"/><circle cx="93" cy="654" r="2.2" fill="#fff" fill-opacity="0.80"/><circle cx="150" cy="327" r="0.8" fill="#fff" fill-opacity="0.51"/><circle cx="628" cy="926" r="1.2" fill="#fff" fill-opacity="0.82"/><circle cx="185" cy="840" r="1.2" fill="#fff" fill-opacity="0.30"/><circle cx="665" cy="703" r="1.2" fill="#fff" fill-opacity="0.70"/><circle cx="669" cy="929" r="1.6" fill="#fff" fill-opacity="0.74"/><circle cx="341" cy="19" r="0.8" fill="#fff" fill-opacity="0.35"/><circle cx="698" cy="313" r="2.2" fill="#fff" fill-opacity="0.70"/><circle cx="271" cy="436" r="1.6" fill="#fff" fill-opacity="0.58"/><circle cx="465" cy="605" r="1.2" fill="#fff" fill-opacity="0.81"/><circle cx="132" cy="434" r="1.2" fill="#fff" fill-opacity="0.39"/><circle cx="257" cy="24" r="0.8" fill="#fff" fill-opacity="0.62"/><circle cx="289" cy="652" r="0.8" fill="#fff" fill-opacity="0.74"/><circle cx="431" cy="995" r="1.2" fill="#fff" fill-opacity="0.38"/><circle cx="123" cy="799" r="1.6" fill="#fff" fill-opacity="0.48"/><circle cx="307" cy="501" r="0.8" fill="#fff" fill-opacity="0.38"/><circle cx="460" cy="70" r="1.6" fill="#fff" fill-opacity="0.77"/><circle cx="378" cy="558" r="1.6" fill="#fff" fill-opacity="0.49"/><circle cx="919" cy="100" r="0.8" fill="#fff" fill-opacity="0.52"/><circle cx="570" cy="130" r="2.2" fill="#fff" fill-opacity="0.38"/><circle cx="285" cy="376" r="2.2" fill="#fff" fill-opacity="0.45"/><circle cx="281" cy="420" r="2.2" fill="#fff" fill-opacity="0.79"/><circle cx="222" cy="357" r="2.2" fill="#fff" fill-opacity="0.81"/><circle cx="490" cy="718" r="1.6" fill="#fff" fill-opacity="0.85"/><circle cx="905" cy="191" r="0.8" fill="#fff" fill-opacity="0.48"/><circle cx="33" cy="153" r="2.2" fill="#fff" fill-opacity="0.35"/><circle cx="678" cy="652" r="0.8" fill="#fff" fill-opacity="0.45"/><circle cx="62" cy="61" r="2.2" fill="#fff" fill-opacity="0.72"/><circle cx="790" cy="844" r="1.6" fill="#fff" fill-opacity="0.38"/><circle cx="130" cy="143" r="1.2" fill="#fff" fill-opacity="0.57"/><circle cx="871" cy="396" r="2.2" fill="#fff" fill-opacity="0.33"/><circle cx="974" cy="968" r="1.6" fill="#fff" fill-opacity="0.35"/><circle cx="487" cy="757" r="0.8" fill="#fff" fill-opacity="0.31"/><circle cx="865" cy="49" r="1.6" fill="#fff" fill-opacity="0.65"/><circle cx="384" cy="998" r="1.2" fill="#fff" fill-opacity="0.30"/><circle cx="93" cy="532" r="0.8" fill="#fff" fill-opacity="0.60"/><circle cx="815" cy="655" r="0.8" fill="#fff" fill-opacity="0.41"/><circle cx="832" cy="882" r="1.6" fill="#fff" fill-opacity="0.63"/><circle cx="465" cy="667" r="2.2" fill="#fff" fill-opacity="0.37"/><circle cx="649" cy="992" r="0.8" fill="#fff" fill-opacity="0.88"/><circle cx="199" cy="604" r="1.2" fill="#fff" fill-opacity="0.52"/><circle cx="530" cy="199" r="1.2" fill="#fff" fill-opacity="0.59"/><circle cx="526" cy="606" r="0.8" fill="#fff" fill-opacity="0.79"/><circle cx="920" cy="475" r="1.6" fill="#fff" fill-opacity="0.57"/><circle cx="770" cy="890" r="2.2" fill="#fff" fill-opacity="0.78"/><circle cx="585" cy="319" r="2.2" fill="#fff" fill-opacity="0.88"/><circle cx="645" cy="496" r="1.6" fill="#fff" fill-opacity="0.65"/><circle cx="154" cy="531" r="2.2" fill="#fff" fill-opacity="0.71"/><circle cx="847" cy="31" r="2.2" fill="#fff" fill-opacity="0.51"/><circle cx="983" cy="370" r="1.2" fill="#fff" fill-opacity="0.32"/><circle cx="95" cy="461" r="0.8" fill="#fff" fill-opacity="0.60"/><circle cx="801" cy="391" r="2.2" fill="#fff" fill-opacity="0.45"/><circle cx="896" cy="22" r="0.8" fill="#fff" fill-opacity="0.51"/><circle cx="305" cy="866" r="0.8" fill="#fff" fill-opacity="0.33"/><circle cx="422" cy="764" r="1.2" fill="#fff" fill-opacity="0.69"/><circle cx="432" cy="924" r="2.2" fill="#fff" fill-opacity="0.84"/><circle cx="870" cy="200" r="1.2" fill="#fff" fill-opacity="0.33"/><circle cx="97" cy="716" r="1.2" fill="#fff" fill-opacity="0.77"/><circle cx="0" cy="156" r="2.2" fill="#fff" fill-opacity="0.34"/><circle cx="399" cy="70" r="0.8" fill="#fff" fill-opacity="0.74"/><circle cx="403" cy="754" r="0.8" fill="#fff" fill-opacity="0.44"/><circle cx="147" cy="366" r="1.2" fill="#fff" fill-opacity="0.74"/><circle cx="601" cy="885" r="1.2" fill="#fff" fill-opacity="0.71"/><circle cx="656" cy="521" r="2.2" fill="#fff" fill-opacity="0.82"/><circle cx="367" cy="73" r="2.2" fill="#fff" fill-opacity="0.44"/><circle cx="388" cy="300" r="1.2" fill="#fff" fill-opacity="0.68"/><circle cx="808" cy="296" r="1.6" fill="#fff" fill-opacity="0.69"/><circle cx="430" cy="346" r="1.6" fill="#fff" fill-opacity="0.87"/><circle cx="290" cy="352" r="1.6" fill="#fff" fill-opacity="0.85"/><circle cx="198" cy="551" r="1.6" fill="#fff" fill-opacity="0.86"/><circle cx="972" cy="489" r="1.2" fill="#fff" fill-opacity="0.68"/><circle cx="341" cy="78" r="2.2" fill="#fff" fill-opacity="0.31"/><circle cx="35" cy="229" r="1.6" fill="#fff" fill-opacity="0.32"/><circle cx="562" cy="146" r="1.2" fill="#fff" fill-opacity="0.70"/><circle cx="361" cy="490" r="1.6" fill="#fff" fill-opacity="0.66"/><circle cx="710" cy="151" r="1.2" fill="#fff" fill-opacity="0.33"/><circle cx="291" cy="150" r="1.6" fill="#fff" fill-opacity="0.56"/><circle cx="358" cy="203" r="0.8" fill="#fff" fill-opacity="0.77"/><circle cx="347" cy="431" r="0.8" fill="#fff" fill-opacity="0.58"/><circle cx="289" cy="108" r="1.6" fill="#fff" fill-opacity="0.65"/><circle cx="498" cy="763" r="2.2" fill="#fff" fill-opacity="0.72"/><circle cx="173" cy="343" r="0.8" fill="#fff" fill-opacity="0.83"/><circle cx="662" cy="855" r="1.6" fill="#fff" fill-opacity="0.50"/><circle cx="567" cy="988" r="1.6" fill="#fff" fill-opacity="0.73"/><circle cx="166" cy="295" r="2.2" fill="#fff" fill-opacity="0.65"/><circle cx="481" cy="209" r="1.6" fill="#fff" fill-opacity="0.45"/><circle cx="157" cy="174" r="1.6" fill="#fff" fill-opacity="0.34"/><circle cx="652" cy="598" r="2.2" fill="#fff" fill-opacity="0.75"/><circle cx="516" cy="458" r="1.2" fill="#fff" fill-opacity="0.79"/><circle cx="594" cy="929" r="1.6" fill="#fff" fill-opacity="0.40"/><circle cx="241" cy="492" r="2.2" fill="#fff" fill-opacity="0.78"/><circle cx="401" cy="814" r="1.2" fill="#fff" fill-opacity="0.70"/><circle cx="332" cy="252" r="1.2" fill="#fff" fill-opacity="0.66"/><circle cx="422" cy="9" r="1.2" fill="#fff" fill-opacity="0.67"/><circle cx="507" cy="348" r="1.2" fill="#fff" fill-opacity="0.78"/><circle cx="213" cy="898" r="1.6" fill="#fff" fill-opacity="0.48"/><circle cx="343" cy="633" r="1.2" fill="#fff" fill-opacity="0.59"/><circle cx="527" cy="526" r="1.6" fill="#fff" fill-opacity="0.85"/><circle cx="304" cy="655" r="2.2" fill="#fff" fill-opacity="0.43"/><circle cx="72" cy="511" r="0.8" fill="#fff" fill-opacity="0.84"/><circle cx="940" cy="54" r="1.6" fill="#fff" fill-opacity="0.56"/><circle cx="248" cy="559" r="1.6" fill="#fff" fill-opacity="0.62"/><circle cx="242" cy="233" r="1.6" fill="#fff" fill-opacity="0.71"/><circle cx="576" cy="745" r="0.8" fill="#fff" fill-opacity="0.73"/><circle cx="83" cy="995" r="1.6" fill="#fff" fill-opacity="0.63"/><circle cx="887" cy="875" r="2.2" fill="#fff" fill-opacity="0.67"/><circle cx="757" cy="222" r="0.8" fill="#fff" fill-opacity="0.59"/><circle cx="755" cy="369" r="0.8" fill="#fff" fill-opacity="0.82"/><circle cx="604" cy="40" r="1.6" fill="#fff" fill-opacity="0.54"/><circle cx="492" cy="833" r="0.8" fill="#fff" fill-opacity="0.61"/><circle cx="659" cy="899" r="2.2" fill="#fff" fill-opacity="0.39"/><circle cx="624" cy="140" r="2.2" fill="#fff" fill-opacity="0.52"/><circle cx="665" cy="994" r="1.6" fill="#fff" fill-opacity="0.55"/><circle cx="328" cy="508" r="0.8" fill="#fff" fill-opacity="0.87"/><circle cx="693" cy="207" r="2.2" fill="#fff" fill-opacity="0.80"/><circle cx="725" cy="712" r="2.2" fill="#fff" fill-opacity="0.78"/><circle cx="313" cy="530" r="1.6" fill="#fff" fill-opacity="0.73"/><circle cx="56" cy="178" r="1.2" fill="#fff" fill-opacity="0.67"/><circle cx="838" cy="977" r="0.8" fill="#fff" fill-opacity="0.35"/><circle cx="108" cy="362" r="1.6" fill="#fff" fill-opacity="0.60"/><circle cx="798" cy="762" r="1.6" fill="#fff" fill-opacity="0.53"/><circle cx="1000" cy="787" r="0.8" fill="#fff" fill-opacity="0.36"/><circle cx="593" cy="820" r="1.6" fill="#fff" fill-opacity="0.79"/><circle cx="467" cy="300" r="0.8" fill="#fff" fill-opacity="0.85"/><circle cx="808" cy="453" r="1.2" fill="#fff" fill-opacity="0.35"/><circle cx="328" cy="243" r="2.2" fill="#fff" fill-opacity="0.86"/><circle cx="802" cy="654" r="1.6" fill="#fff" fill-opacity="0.76"/><circle cx="502" cy="320" r="0.8" fill="#fff" fill-opacity="0.49"/><circle cx="479" cy="433" r="2.2" fill="#fff" fill-opacity="0.43"/><circle cx="581" cy="40" r="1.6" fill="#fff" fill-opacity="0.87"/><circle cx="643" cy="617" r="0.8" fill="#fff" fill-opacity="0.30"/><circle cx="436" cy="829" r="0.8" fill="#fff" fill-opacity="0.72"/><circle cx="341" cy="386" r="1.2" fill="#fff" fill-opacity="0.31"/><ellipse cx="535" cy="448" rx="150" ry="55" fill="none" stroke="#F5C211" stroke-opacity="0.55" stroke-width="1.6" transform="rotate(-14 535 448)"/><ellipse cx="535" cy="448" rx="245" ry="91" fill="none" stroke="#F5C211" stroke-opacity="0.45" stroke-width="1.6" transform="rotate(-21 535 448)"/><ellipse cx="535" cy="448" rx="340" ry="127" fill="none" stroke="#F5C211" stroke-opacity="0.35" stroke-width="1.6" transform="rotate(-17 535 448)"/><ellipse cx="535" cy="448" rx="435" ry="163" fill="none" stroke="#F5C211" stroke-opacity="0.25" stroke-width="1.6" transform="rotate(-16 535 448)"/><circle cx="535" cy="448" r="74" fill="url(#dpl)"/><polyline points="111,493 182,221 304,228 444,385 517,413 679,496 736,186 805,657 877,332" fill="none" stroke="#cfe0ff" stroke-opacity=".7" stroke-width="1.8"/><circle cx="111" cy="493" r="6" fill="#fff"/><circle cx="111" cy="493" r="14" fill="none" stroke="#fff" stroke-opacity=".35"/><circle cx="182" cy="221" r="6" fill="#fff"/><circle cx="182" cy="221" r="14" fill="none" stroke="#fff" stroke-opacity=".35"/><circle cx="304" cy="228" r="6" fill="#fff"/><circle cx="304" cy="228" r="14" fill="none" stroke="#fff" stroke-opacity=".35"/><circle cx="444" cy="385" r="6" fill="#fff"/><circle cx="444" cy="385" r="14" fill="none" stroke="#fff" stroke-opacity=".35"/><circle cx="517" cy="413" r="6" fill="#fff"/><circle cx="517" cy="413" r="14" fill="none" stroke="#fff" stroke-opacity=".35"/><circle cx="679" cy="496" r="6" fill="#fff"/><circle cx="679" cy="496" r="14" fill="none" stroke="#fff" stroke-opacity=".35"/><circle cx="736" cy="186" r="6" fill="#fff"/><circle cx="736" cy="186" r="14" fill="none" stroke="#fff" stroke-opacity=".35"/><circle cx="805" cy="657" r="6" fill="#fff"/><circle cx="805" cy="657" r="14" fill="none" stroke="#fff" stroke-opacity=".35"/><circle cx="877" cy="332" r="6" fill="#fff"/><circle cx="877" cy="332" r="14" fill="none" stroke="#fff" stroke-opacity=".35"/><line x1="0" y1="0" x2="0" y2="1000" stroke="#fff" stroke-opacity=".04"/><line y1="0" x1="0" y2="0" x2="1000" stroke="#fff" stroke-opacity=".04"/><line x1="100" y1="0" x2="100" y2="1000" stroke="#fff" stroke-opacity=".04"/><line y1="100" x1="0" y2="100" x2="1000" stroke="#fff" stroke-opacity=".04"/><line x1="200" y1="0" x2="200" y2="1000" stroke="#fff" stroke-opacity=".04"/><line y1="200" x1="0" y2="200" x2="1000" stroke="#fff" stroke-opacity=".04"/><line x1="300" y1="0" x2="300" y2="1000" stroke="#fff" stroke-opacity=".04"/><line y1="300" x1="0" y2="300" x2="1000" stroke="#fff" stroke-opacity=".04"/><line x1="400" y1="0" x2="400" y2="1000" stroke="#fff" stroke-opacity=".04"/><line y1="400" x1="0" y2="400" x2="1000" stroke="#fff" stroke-opacity=".04"/><line x1="500" y1="0" x2="500" y2="1000" stroke="#fff" stroke-opacity=".04"/><line y1="500" x1="0" y2="500" x2="1000" stroke="#fff" stroke-opacity=".04"/><line x1="600" y1="0" x2="600" y2="1000" stroke="#fff" stroke-opacity=".04"/><line y1="600" x1="0" y2="600" x2="1000" stroke="#fff" stroke-opacity=".04"/><line x1="700" y1="0" x2="700" y2="1000" stroke="#fff" stroke-opacity=".04"/><line y1="700" x1="0" y2="700" x2="1000" stroke="#fff" stroke-opacity=".04"/><line x1="800" y1="0" x2="800" y2="1000" stroke="#fff" stroke-opacity=".04"/><line y1="800" x1="0" y2="800" x2="1000" stroke="#fff" stroke-opacity=".04"/><line x1="900" y1="0" x2="900" y2="1000" stroke="#fff" stroke-opacity=".04"/><line y1="900" x1="0" y2="900" x2="1000" stroke="#fff" stroke-opacity=".04"/><rect y="640" width="1000" height="360" fill="url(#dfade)"/><text x="70" y="96" font-family="'Sora','DM Sans','Helvetica Neue',Helvetica,Arial,sans-serif" font-size="26" font-weight="600" letter-spacing="9" fill="rgba(207,224,255,.8)" text-anchor="start">NOVADECK</text><text x="70" y="930" font-family="'Sora','DM Sans','Helvetica Neue',Helvetica,Arial,sans-serif" font-size="118" font-weight="800" letter-spacing="-1" fill="#fff" text-anchor="start">ORBIT</text><g transform="translate(868,52) scale(0.0625)"><path d="M512,82 L847,287 L847,712 L512,925 L176,712 L176,287 Z M316,378 L316,630 L512,755 L707,630 L707,378 L512,258 Z" fill="#F5C211" fill-rule="evenodd"/><polygon points="512,391 622,504 512,617 402,504" fill="#F5C211"/></g></svg></g><circle cx="490" cy="400.0" r="61" fill="none" stroke="#000" stroke-opacity=".25"/><circle cx="490" cy="400.0" r="30" fill="#e9e9e6"/><circle cx="490" cy="400.0" r="30" fill="#f0f0ec"/><g filter="url(#sh)"><rect x="90" y="220" width="360" height="360" fill="#000"/></g><svg x="90" y="220" width="360" height="360" viewBox="0 0 1000 1000"><defs><linearGradient id="sfade" x1="0" y1="0" x2="0" y2="1"><stop offset="0" stop-color="#000" stop-opacity="0"/><stop offset="1" stop-color="#000" stop-opacity=".55"/></linearGradient></defs><defs><linearGradient id="sbg" x1="0" y1="0" x2="0" y2="1"><stop offset="0" stop-color="#0b1330"/><stop offset="1" stop-color="#03050d"/></linearGradient><radialGradient id="spl" cx="35%" cy="35%" r="70%"><stop offset="0" stop-color="#F5C211"/><stop offset="1" stop-color="#6b4a00"/></radialGradient></defs><rect width="1000" height="1000" fill="url(#sbg)"/><circle cx="554" cy="300" r="1.6" fill="#fff" fill-opacity="0.84"/><circle cx="504" cy="725" r="0.8" fill="#fff" fill-opacity="0.87"/><circle cx="788" cy="451" r="1.6" fill="#fff" fill-opacity="0.40"/><circle cx="439" cy="306" r="2.2" fill="#fff" fill-opacity="0.42"/><circle cx="123" cy="395" r="1.6" fill="#fff" fill-opacity="0.83"/><circle cx="747" cy="567" r="1.2" fill="#fff" fill-opacity="0.60"/><circle cx="776" cy="549" r="0.8" fill="#fff" fill-opacity="0.79"/><circle cx="257" cy="35" r="1.6" fill="#fff" fill-opacity="0.50"/><circle cx="737" cy="173" r="1.2" fill="#fff" fill-opacity="0.80"/><circle cx="102" cy="309" r="2.2" fill="#fff" fill-opacity="0.39"/><circle cx="213" cy="489" r="1.2" fill="#fff" fill-opacity="0.72"/><circle cx="796" cy="970" r="1.2" fill="#fff" fill-opacity="0.56"/><circle cx="435" cy="165" r="2.2" fill="#fff" fill-opacity="0.37"/><circle cx="247" cy="600" r="1.6" fill="#fff" fill-opacity="0.85"/><circle cx="936" cy="33" r="1.6" fill="#fff" fill-opacity="0.68"/><circle cx="729" cy="205" r="0.8" fill="#fff" fill-opacity="0.82"/><circle cx="92" cy="656" r="1.2" fill="#fff" fill-opacity="0.51"/><circle cx="342" cy="20" r="2.2" fill="#fff" fill-opacity="0.48"/><circle cx="786" cy="118" r="0.8" fill="#fff" fill-opacity="0.79"/><circle cx="699" cy="890" r="2.2" fill="#fff" fill-opacity="0.68"/><circle cx="28" cy="49" r="1.6" fill="#fff" fill-opacity="0.67"/><circle cx="941" cy="543" r="0.8" fill="#fff" fill-opacity="0.87"/><circle cx="40" cy="929" r="0.8" fill="#fff" fill-opacity="0.57"/><circle cx="321" cy="15" r="2.2" fill="#fff" fill-opacity="0.71"/><circle cx="947" cy="212" r="0.8" fill="#fff" fill-opacity="0.48"/><circle cx="620" cy="586" r="1.2" fill="#fff" fill-opacity="0.37"/><circle cx="442" cy="775" r="2.2" fill="#fff" fill-opacity="0.41"/><circle cx="261" cy="206" r="1.2" fill="#fff" fill-opacity="0.77"/><circle cx="663" cy="264" r="1.2" fill="#fff" fill-opacity="0.51"/><circle cx="755" cy="230" r="2.2" fill="#fff" fill-opacity="0.70"/><circle cx="986" cy="443" r="0.8" fill="#fff" fill-opacity="0.70"/><circle cx="675" cy="683" r="1.6" fill="#fff" fill-opacity="0.47"/><circle cx="575" cy="156" r="1.6" fill="#fff" fill-opacity="0.32"/><circle cx="238" cy="900" r="1.2" fill="#fff" fill-opacity="0.40"/><circle cx="663" cy="184" r="1.6" fill="#fff" fill-opacity="0.68"/><circle cx="146" cy="701" r="0.8" fill="#fff" fill-opacity="0.48"/><circle cx="245" cy="391" r="1.6" fill="#fff" fill-opacity="0.73"/><circle cx="93" cy="654" r="2.2" fill="#fff" fill-opacity="0.80"/><circle cx="150" cy="327" r="0.8" fill="#fff" fill-opacity="0.51"/><circle cx="628" cy="926" r="1.2" fill="#fff" fill-opacity="0.82"/><circle cx="185" cy="840" r="1.2" fill="#fff" fill-opacity="0.30"/><circle cx="665" cy="703" r="1.2" fill="#fff" fill-opacity="0.70"/><circle cx="669" cy="929" r="1.6" fill="#fff" fill-opacity="0.74"/><circle cx="341" cy="19" r="0.8" fill="#fff" fill-opacity="0.35"/><circle cx="698" cy="313" r="2.2" fill="#fff" fill-opacity="0.70"/><circle cx="271" cy="436" r="1.6" fill="#fff" fill-opacity="0.58"/><circle cx="465" cy="605" r="1.2" fill="#fff" fill-opacity="0.81"/><circle cx="132" cy="434" r="1.2" fill="#fff" fill-opacity="0.39"/><circle cx="257" cy="24" r="0.8" fill="#fff" fill-opacity="0.62"/><circle cx="289" cy="652" r="0.8" fill="#fff" fill-opacity="0.74"/><circle cx="431" cy="995" r="1.2" fill="#fff" fill-opacity="0.38"/><circle cx="123" cy="799" r="1.6" fill="#fff" fill-opacity="0.48"/><circle cx="307" cy="501" r="0.8" fill="#fff" fill-opacity="0.38"/><circle cx="460" cy="70" r="1.6" fill="#fff" fill-opacity="0.77"/><circle cx="378" cy="558" r="1.6" fill="#fff" fill-opacity="0.49"/><circle cx="919" cy="100" r="0.8" fill="#fff" fill-opacity="0.52"/><circle cx="570" cy="130" r="2.2" fill="#fff" fill-opacity="0.38"/><circle cx="285" cy="376" r="2.2" fill="#fff" fill-opacity="0.45"/><circle cx="281" cy="420" r="2.2" fill="#fff" fill-opacity="0.79"/><circle cx="222" cy="357" r="2.2" fill="#fff" fill-opacity="0.81"/><circle cx="490" cy="718" r="1.6" fill="#fff" fill-opacity="0.85"/><circle cx="905" cy="191" r="0.8" fill="#fff" fill-opacity="0.48"/><circle cx="33" cy="153" r="2.2" fill="#fff" fill-opacity="0.35"/><circle cx="678" cy="652" r="0.8" fill="#fff" fill-opacity="0.45"/><circle cx="62" cy="61" r="2.2" fill="#fff" fill-opacity="0.72"/><circle cx="790" cy="844" r="1.6" fill="#fff" fill-opacity="0.38"/><circle cx="130" cy="143" r="1.2" fill="#fff" fill-opacity="0.57"/><circle cx="871" cy="396" r="2.2" fill="#fff" fill-opacity="0.33"/><circle cx="974" cy="968" r="1.6" fill="#fff" fill-opacity="0.35"/><circle cx="487" cy="757" r="0.8" fill="#fff" fill-opacity="0.31"/><circle cx="865" cy="49" r="1.6" fill="#fff" fill-opacity="0.65"/><circle cx="384" cy="998" r="1.2" fill="#fff" fill-opacity="0.30"/><circle cx="93" cy="532" r="0.8" fill="#fff" fill-opacity="0.60"/><circle cx="815" cy="655" r="0.8" fill="#fff" fill-opacity="0.41"/><circle cx="832" cy="882" r="1.6" fill="#fff" fill-opacity="0.63"/><circle cx="465" cy="667" r="2.2" fill="#fff" fill-opacity="0.37"/><circle cx="649" cy="992" r="0.8" fill="#fff" fill-opacity="0.88"/><circle cx="199" cy="604" r="1.2" fill="#fff" fill-opacity="0.52"/><circle cx="530" cy="199" r="1.2" fill="#fff" fill-opacity="0.59"/><circle cx="526" cy="606" r="0.8" fill="#fff" fill-opacity="0.79"/><circle cx="920" cy="475" r="1.6" fill="#fff" fill-opacity="0.57"/><circle cx="770" cy="890" r="2.2" fill="#fff" fill-opacity="0.78"/><circle cx="585" cy="319" r="2.2" fill="#fff" fill-opacity="0.88"/><circle cx="645" cy="496" r="1.6" fill="#fff" fill-opacity="0.65"/><circle cx="154" cy="531" r="2.2" fill="#fff" fill-opacity="0.71"/><circle cx="847" cy="31" r="2.2" fill="#fff" fill-opacity="0.51"/><circle cx="983" cy="370" r="1.2" fill="#fff" fill-opacity="0.32"/><circle cx="95" cy="461" r="0.8" fill="#fff" fill-opacity="0.60"/><circle cx="801" cy="391" r="2.2" fill="#fff" fill-opacity="0.45"/><circle cx="896" cy="22" r="0.8" fill="#fff" fill-opacity="0.51"/><circle cx="305" cy="866" r="0.8" fill="#fff" fill-opacity="0.33"/><circle cx="422" cy="764" r="1.2" fill="#fff" fill-opacity="0.69"/><circle cx="432" cy="924" r="2.2" fill="#fff" fill-opacity="0.84"/><circle cx="870" cy="200" r="1.2" fill="#fff" fill-opacity="0.33"/><circle cx="97" cy="716" r="1.2" fill="#fff" fill-opacity="0.77"/><circle cx="0" cy="156" r="2.2" fill="#fff" fill-opacity="0.34"/><circle cx="399" cy="70" r="0.8" fill="#fff" fill-opacity="0.74"/><circle cx="403" cy="754" r="0.8" fill="#fff" fill-opacity="0.44"/><circle cx="147" cy="366" r="1.2" fill="#fff" fill-opacity="0.74"/><circle cx="601" cy="885" r="1.2" fill="#fff" fill-opacity="0.71"/><circle cx="656" cy="521" r="2.2" fill="#fff" fill-opacity="0.82"/><circle cx="367" cy="73" r="2.2" fill="#fff" fill-opacity="0.44"/><circle cx="388" cy="300" r="1.2" fill="#fff" fill-opacity="0.68"/><circle cx="808" cy="296" r="1.6" fill="#fff" fill-opacity="0.69"/><circle cx="430" cy="346" r="1.6" fill="#fff" fill-opacity="0.87"/><circle cx="290" cy="352" r="1.6" fill="#fff" fill-opacity="0.85"/><circle cx="198" cy="551" r="1.6" fill="#fff" fill-opacity="0.86"/><circle cx="972" cy="489" r="1.2" fill="#fff" fill-opacity="0.68"/><circle cx="341" cy="78" r="2.2" fill="#fff" fill-opacity="0.31"/><circle cx="35" cy="229" r="1.6" fill="#fff" fill-opacity="0.32"/><circle cx="562" cy="146" r="1.2" fill="#fff" fill-opacity="0.70"/><circle cx="361" cy="490" r="1.6" fill="#fff" fill-opacity="0.66"/><circle cx="710" cy="151" r="1.2" fill="#fff" fill-opacity="0.33"/><circle cx="291" cy="150" r="1.6" fill="#fff" fill-opacity="0.56"/><circle cx="358" cy="203" r="0.8" fill="#fff" fill-opacity="0.77"/><circle cx="347" cy="431" r="0.8" fill="#fff" fill-opacity="0.58"/><circle cx="289" cy="108" r="1.6" fill="#fff" fill-opacity="0.65"/><circle cx="498" cy="763" r="2.2" fill="#fff" fill-opacity="0.72"/><circle cx="173" cy="343" r="0.8" fill="#fff" fill-opacity="0.83"/><circle cx="662" cy="855" r="1.6" fill="#fff" fill-opacity="0.50"/><circle cx="567" cy="988" r="1.6" fill="#fff" fill-opacity="0.73"/><circle cx="166" cy="295" r="2.2" fill="#fff" fill-opacity="0.65"/><circle cx="481" cy="209" r="1.6" fill="#fff" fill-opacity="0.45"/><circle cx="157" cy="174" r="1.6" fill="#fff" fill-opacity="0.34"/><circle cx="652" cy="598" r="2.2" fill="#fff" fill-opacity="0.75"/><circle cx="516" cy="458" r="1.2" fill="#fff" fill-opacity="0.79"/><circle cx="594" cy="929" r="1.6" fill="#fff" fill-opacity="0.40"/><circle cx="241" cy="492" r="2.2" fill="#fff" fill-opacity="0.78"/><circle cx="401" cy="814" r="1.2" fill="#fff" fill-opacity="0.70"/><circle cx="332" cy="252" r="1.2" fill="#fff" fill-opacity="0.66"/><circle cx="422" cy="9" r="1.2" fill="#fff" fill-opacity="0.67"/><circle cx="507" cy="348" r="1.2" fill="#fff" fill-opacity="0.78"/><circle cx="213" cy="898" r="1.6" fill="#fff" fill-opacity="0.48"/><circle cx="343" cy="633" r="1.2" fill="#fff" fill-opacity="0.59"/><circle cx="527" cy="526" r="1.6" fill="#fff" fill-opacity="0.85"/><circle cx="304" cy="655" r="2.2" fill="#fff" fill-opacity="0.43"/><circle cx="72" cy="511" r="0.8" fill="#fff" fill-opacity="0.84"/><circle cx="940" cy="54" r="1.6" fill="#fff" fill-opacity="0.56"/><circle cx="248" cy="559" r="1.6" fill="#fff" fill-opacity="0.62"/><circle cx="242" cy="233" r="1.6" fill="#fff" fill-opacity="0.71"/><circle cx="576" cy="745" r="0.8" fill="#fff" fill-opacity="0.73"/><circle cx="83" cy="995" r="1.6" fill="#fff" fill-opacity="0.63"/><circle cx="887" cy="875" r="2.2" fill="#fff" fill-opacity="0.67"/><circle cx="757" cy="222" r="0.8" fill="#fff" fill-opacity="0.59"/><circle cx="755" cy="369" r="0.8" fill="#fff" fill-opacity="0.82"/><circle cx="604" cy="40" r="1.6" fill="#fff" fill-opacity="0.54"/><circle cx="492" cy="833" r="0.8" fill="#fff" fill-opacity="0.61"/><circle cx="659" cy="899" r="2.2" fill="#fff" fill-opacity="0.39"/><circle cx="624" cy="140" r="2.2" fill="#fff" fill-opacity="0.52"/><circle cx="665" cy="994" r="1.6" fill="#fff" fill-opacity="0.55"/><circle cx="328" cy="508" r="0.8" fill="#fff" fill-opacity="0.87"/><circle cx="693" cy="207" r="2.2" fill="#fff" fill-opacity="0.80"/><circle cx="725" cy="712" r="2.2" fill="#fff" fill-opacity="0.78"/><circle cx="313" cy="530" r="1.6" fill="#fff" fill-opacity="0.73"/><circle cx="56" cy="178" r="1.2" fill="#fff" fill-opacity="0.67"/><circle cx="838" cy="977" r="0.8" fill="#fff" fill-opacity="0.35"/><circle cx="108" cy="362" r="1.6" fill="#fff" fill-opacity="0.60"/><circle cx="798" cy="762" r="1.6" fill="#fff" fill-opacity="0.53"/><circle cx="1000" cy="787" r="0.8" fill="#fff" fill-opacity="0.36"/><circle cx="593" cy="820" r="1.6" fill="#fff" fill-opacity="0.79"/><circle cx="467" cy="300" r="0.8" fill="#fff" fill-opacity="0.85"/><circle cx="808" cy="453" r="1.2" fill="#fff" fill-opacity="0.35"/><circle cx="328" cy="243" r="2.2" fill="#fff" fill-opacity="0.86"/><circle cx="802" cy="654" r="1.6" fill="#fff" fill-opacity="0.76"/><circle cx="502" cy="320" r="0.8" fill="#fff" fill-opacity="0.49"/><circle cx="479" cy="433" r="2.2" fill="#fff" fill-opacity="0.43"/><circle cx="581" cy="40" r="1.6" fill="#fff" fill-opacity="0.87"/><circle cx="643" cy="617" r="0.8" fill="#fff" fill-opacity="0.30"/><circle cx="436" cy="829" r="0.8" fill="#fff" fill-opacity="0.72"/><circle cx="341" cy="386" r="1.2" fill="#fff" fill-opacity="0.31"/><ellipse cx="535" cy="448" rx="150" ry="55" fill="none" stroke="#F5C211" stroke-opacity="0.55" stroke-width="1.6" transform="rotate(-14 535 448)"/><ellipse cx="535" cy="448" rx="245" ry="91" fill="none" stroke="#F5C211" stroke-opacity="0.45" stroke-width="1.6" transform="rotate(-21 535 448)"/><ellipse cx="535" cy="448" rx="340" ry="127" fill="none" stroke="#F5C211" stroke-opacity="0.35" stroke-width="1.6" transform="rotate(-17 535 448)"/><ellipse cx="535" cy="448" rx="435" ry="163" fill="none" stroke="#F5C211" stroke-opacity="0.25" stroke-width="1.6" transform="rotate(-16 535 448)"/><circle cx="535" cy="448" r="74" fill="url(#spl)"/><polyline points="111,493 182,221 304,228 444,385 517,413 679,496 736,186 805,657 877,332" fill="none" stroke="#cfe0ff" stroke-opacity=".7" stroke-width="1.8"/><circle cx="111" cy="493" r="6" fill="#fff"/><circle cx="111" cy="493" r="14" fill="none" stroke="#fff" stroke-opacity=".35"/><circle cx="182" cy="221" r="6" fill="#fff"/><circle cx="182" cy="221" r="14" fill="none" stroke="#fff" stroke-opacity=".35"/><circle cx="304" cy="228" r="6" fill="#fff"/><circle cx="304" cy="228" r="14" fill="none" stroke="#fff" stroke-opacity=".35"/><circle cx="444" cy="385" r="6" fill="#fff"/><circle cx="444" cy="385" r="14" fill="none" stroke="#fff" stroke-opacity=".35"/><circle cx="517" cy="413" r="6" fill="#fff"/><circle cx="517" cy="413" r="14" fill="none" stroke="#fff" stroke-opacity=".35"/><circle cx="679" cy="496" r="6" fill="#fff"/><circle cx="679" cy="496" r="14" fill="none" stroke="#fff" stroke-opacity=".35"/><circle cx="736" cy="186" r="6" fill="#fff"/><circle cx="736" cy="186" r="14" fill="none" stroke="#fff" stroke-opacity=".35"/><circle cx="805" cy="657" r="6" fill="#fff"/><circle cx="805" cy="657" r="14" fill="none" stroke="#fff" stroke-opacity=".35"/><circle cx="877" cy="332" r="6" fill="#fff"/><circle cx="877" cy="332" r="14" fill="none" stroke="#fff" stroke-opacity=".35"/><line x1="0" y1="0" x2="0" y2="1000" stroke="#fff" stroke-opacity=".04"/><line y1="0" x1="0" y2="0" x2="1000" stroke="#fff" stroke-opacity=".04"/><line x1="100" y1="0" x2="100" y2="1000" stroke="#fff" stroke-opacity=".04"/><line y1="100" x1="0" y2="100" x2="1000" stroke="#fff" stroke-opacity=".04"/><line x1="200" y1="0" x2="200" y2="1000" stroke="#fff" stroke-opacity=".04"/><line y1="200" x1="0" y2="200" x2="1000" stroke="#fff" stroke-opacity=".04"/><line x1="300" y1="0" x2="300" y2="1000" stroke="#fff" stroke-opacity=".04"/><line y1="300" x1="0" y2="300" x2="1000" stroke="#fff" stroke-opacity=".04"/><line x1="400" y1="0" x2="400" y2="1000" stroke="#fff" stroke-opacity=".04"/><line y1="400" x1="0" y2="400" x2="1000" stroke="#fff" stroke-opacity=".04"/><line x1="500" y1="0" x2="500" y2="1000" stroke="#fff" stroke-opacity=".04"/><line y1="500" x1="0" y2="500" x2="1000" stroke="#fff" stroke-opacity=".04"/><line x1="600" y1="0" x2="600" y2="1000" stroke="#fff" stroke-opacity=".04"/><line y1="600" x1="0" y2="600" x2="1000" stroke="#fff" stroke-opacity=".04"/><line x1="700" y1="0" x2="700" y2="1000" stroke="#fff" stroke-opacity=".04"/><line y1="700" x1="0" y2="700" x2="1000" stroke="#fff" stroke-opacity=".04"/><line x1="800" y1="0" x2="800" y2="1000" stroke="#fff" stroke-opacity=".04"/><line y1="800" x1="0" y2="800" x2="1000" stroke="#fff" stroke-opacity=".04"/><line x1="900" y1="0" x2="900" y2="1000" stroke="#fff" stroke-opacity=".04"/><line y1="900" x1="0" y2="900" x2="1000" stroke="#fff" stroke-opacity=".04"/><rect y="640" width="1000" height="360" fill="url(#sfade)"/><text x="70" y="96" font-family="'Sora','DM Sans','Helvetica Neue',Helvetica,Arial,sans-serif" font-size="26" font-weight="600" letter-spacing="9" fill="rgba(207,224,255,.8)" text-anchor="start">NOVADECK</text><text x="70" y="930" font-family="'Sora','DM Sans','Helvetica Neue',Helvetica,Arial,sans-serif" font-size="118" font-weight="800" letter-spacing="-1" fill="#fff" text-anchor="start">ORBIT</text><g transform="translate(868,52) scale(0.0625)"><path d="M512,82 L847,287 L847,712 L512,925 L176,712 L176,287 Z M316,378 L316,630 L512,755 L707,630 L707,378 L512,258 Z" fill="#F5C211" fill-rule="evenodd"/><polygon points="512,391 622,504 512,617 402,504" fill="#F5C211"/></g></svg><rect x="90" y="220" width="360" height="360" fill="url(#gloss)"/><rect x="444" y="220" width="6" height="360" fill="#000" fill-opacity=".25"/><g filter="url(#shs)"><circle cx="392" cy="370" r="50" fill="#F5C211"/></g><circle cx="392" cy="370" r="45" fill="none" stroke="#1c1c1c" stroke-opacity=".35"/><text x="392" y="367.5" text-anchor="middle" font-family="'Sora','DM Sans','Helvetica Neue',Helvetica,Arial,sans-serif" font-size="15" font-weight="800" letter-spacing="1.2" fill="#1c1c1c">7"</text><text x="392" y="382.5" text-anchor="middle" font-family="'Sora','DM Sans','Helvetica Neue',Helvetica,Arial,sans-serif" font-size="11" font-weight="700" letter-spacing="1.2" fill="#1c1c1c">SINGLE</text></svg>