<svg xmlns="http://www.w3.org/2000/svg" viewBox="0 0 800 800" width="800" height="800" role="img" aria-label="BURN BRIGHT — Digital Single · MP3 / WAV / FLAC"><defs><linearGradient id="stage" x1="0" y1="0" x2="1" y2="1"><stop offset="0" stop-color="#fafaf8"/><stop offset="1" stop-color="#e4e4e0"/></linearGradient><filter id="sh" x="-20%" y="-20%" width="140%" height="150%"><feDropShadow dx="0" dy="14" stdDeviation="16" flood-color="#000" flood-opacity=".28"/></filter><filter id="shs" x="-20%" y="-20%" width="140%" height="150%"><feDropShadow dx="0" dy="5" stdDeviation="6" flood-color="#000" flood-opacity=".25"/></filter><radialGradient id="vinylShine" cx="50%" cy="50%" r="50%"><stop offset="0" stop-color="#fff" stop-opacity="0"/><stop offset=".7" stop-color="#fff" stop-opacity=".06"/><stop offset="1" stop-color="#fff" stop-opacity="0"/></radialGradient><linearGradient id="gloss" x1="0" y1="0" x2="1" y2="1"><stop offset="0" stop-color="#fff" stop-opacity=".28"/><stop offset=".45" stop-color="#fff" stop-opacity="0"/></linearGradient></defs><rect width="800" height="800" fill="url(#stage)"/><ellipse cx="400" cy="720" rx="330" ry="26" fill="#000" fill-opacity=".07"/><g filter="url(#sh)"><rect x="150" y="90" width="500" height="500" rx="20" fill="#000"/></g><clipPath id="dg"><rect x="150" y="90" width="500" height="500" rx="20"/></clipPath><g clip-path="url(#dg)"><svg x="150" y="90" width="500" height="500" viewBox="0 0 1000 1000"><defs><linearGradient id="gfade" x1="0" y1="0" x2="0" y2="1"><stop offset="0" stop-color="#000" stop-opacity="0"/><stop offset="1" stop-color="#000" stop-opacity=".55"/></linearGradient></defs><defs><radialGradient id="gbg" cx="50%" cy="42%" r="70%"><stop offset="0" stop-color="#5a2208"/><stop offset=".55" stop-color="#1c0906"/><stop offset="1" stop-color="#070302"/></radialGradient><radialGradient id="gcore" cx="50%" cy="50%" r="50%"><stop offset="0" stop-color="#fffbe6"/><stop offset=".35" stop-color="#F5C211"/><stop offset=".7" stop-color="#e2562b" stop-opacity=".7"/><stop offset="1" stop-color="#e2562b" stop-opacity="0"/></radialGradient></defs><rect width="1000" height="1000" fill="url(#gbg)"/><polygon points="500,440 1140,418 1140,462" fill="#F5C211" fill-opacity="0.18"/><polygon points="500,440 917,491 912,520" fill="#e2562b" fill-opacity="0.26"/><polygon points="500,440 1115,616 1101,659" fill="#F5C211" fill-opacity="0.34"/><polygon points="500,440 971,660 955,692" fill="#e2562b" fill-opacity="0.18"/><polygon points="500,440 848,675 831,699" fill="#F5C211" fill-opacity="0.26"/><polygon points="500,440 807,726 786,747" fill="#e2562b" fill-opacity="0.34"/><polygon points="500,440 759,771 735,788" fill="#F5C211" fill-opacity="0.18"/><polygon points="500,440 810,1000 770,1020" fill="#e2562b" fill-opacity="0.26"/><polygon points="500,440 678,929 643,940" fill="#F5C211" fill-opacity="0.34"/><polygon points="500,440 580,852 551,857" fill="#e2562b" fill-opacity="0.18"/><polygon points="500,440 515,860 485,860" fill="#F5C211" fill-opacity="0.26"/><polygon points="500,440 437,956 401,950" fill="#e2562b" fill-opacity="0.34"/><polygon points="500,440 324,1055 281,1041" fill="#F5C211" fill-opacity="0.18"/><polygon points="500,440 280,911 248,895" fill="#e2562b" fill-opacity="0.26"/><polygon points="500,440 265,788 241,771" fill="#F5C211" fill-opacity="0.34"/><polygon points="500,440 64,908 32,876" fill="#e2562b" fill-opacity="0.18"/><polygon points="500,440 -4,834 -31,798" fill="#F5C211" fill-opacity="0.26"/><polygon points="500,440 133,644 119,617" fill="#e2562b" fill-opacity="0.34"/><polygon points="500,440 11,618 0,583" fill="#F5C211" fill-opacity="0.18"/><polygon points="500,440 -128,562 -135,518" fill="#e2562b" fill-opacity="0.26"/><polygon points="500,440 -140,462 -140,418" fill="#F5C211" fill-opacity="0.34"/><polygon points="500,440 -16,377 -10,341" fill="#e2562b" fill-opacity="0.18"/><polygon points="500,440 -115,264 -101,221" fill="#F5C211" fill-opacity="0.26"/><polygon points="500,440 29,220 45,188" fill="#e2562b" fill-opacity="0.34"/><polygon points="500,440 -31,82 -4,46" fill="#F5C211" fill-opacity="0.18"/><polygon points="500,440 120,85 145,60" fill="#e2562b" fill-opacity="0.26"/><polygon points="500,440 241,109 265,92" fill="#F5C211" fill-opacity="0.34"/><polygon points="500,440 190,-120 230,-140" fill="#e2562b" fill-opacity="0.18"/><polygon points="500,440 356,45 384,36" fill="#F5C211" fill-opacity="0.26"/><polygon points="500,440 401,-70 437,-76" fill="#e2562b" fill-opacity="0.34"/><polygon points="500,440 485,20 515,20" fill="#F5C211" fill-opacity="0.18"/><polygon points="500,440 551,23 580,28" fill="#e2562b" fill-opacity="0.26"/><polygon points="500,440 676,-175 719,-161" fill="#F5C211" fill-opacity="0.34"/><polygon points="500,440 770,-140 810,-120" fill="#e2562b" fill-opacity="0.18"/><polygon points="500,440 858,-91 894,-64" fill="#F5C211" fill-opacity="0.26"/><polygon points="500,440 786,133 807,154" fill="#e2562b" fill-opacity="0.34"/><polygon points="500,440 831,181 848,205" fill="#F5C211" fill-opacity="0.18"/><polygon points="500,440 1060,130 1080,170" fill="#e2562b" fill-opacity="0.26"/><polygon points="500,440 1101,221 1115,264" fill="#F5C211" fill-opacity="0.34"/><polygon points="500,440 912,360 917,389" fill="#e2562b" fill-opacity="0.18"/><circle cx="500" cy="440" r="260" fill="url(#gcore)"/><circle cx="500" cy="440" r="334" fill="none" stroke="#F5C211" stroke-opacity=".5" stroke-width="2"/><rect y="640" width="1000" height="360" fill="url(#gfade)"/><text x="70" y="96" font-family="'Sora','DM Sans','Helvetica Neue',Helvetica,Arial,sans-serif" font-size="26" font-weight="600" letter-spacing="9" fill="rgba(255,230,180,.8)" text-anchor="start">NOVA</text><text x="70" y="930" font-family="'Playfair Display','DejaVu Serif',Georgia,serif" font-size="106" font-weight="800" letter-spacing="-1" font-style="italic" fill="#fff6dc" text-anchor="start">BURN BRIGHT</text><g transform="translate(868,52) scale(0.0625)"><path d="M512,82 L847,287 L847,712 L512,925 L176,712 L176,287 Z M316,378 L316,630 L512,755 L707,630 L707,378 L512,258 Z" fill="#F5C211" fill-rule="evenodd"/><polygon points="512,391 622,504 512,617 402,504" fill="#F5C211"/></g></svg></g><rect x="150" y="90" width="500" height="500" rx="20" fill="url(#gloss)"/><rect x="160.0" y="632.4" width="6" height="19.2" rx="3" fill="#1c1c1c" fill-opacity="0.85"/><rect x="170.6" y="629.6" width="6" height="24.8" rx="3" fill="#1c1c1c" fill-opacity="0.85"/><rect x="181.2" y="620.8" width="6" height="42.4" rx="3" fill="#1c1c1c" fill-opacity="0.85"/><rect x="191.8" y="617.3" width="6" height="49.3" rx="3" fill="#1c1c1c" fill-opacity="0.85"/><rect x="202.4" y="622.4" width="6" height="39.1" rx="3" fill="#1c1c1c" fill-opacity="0.85"/><rect x="213.0" y="619.2" width="6" height="45.6" rx="3" fill="#1c1c1c" fill-opacity="0.85"/><rect x="223.6" y="626.9" width="6" height="30.3" rx="3" fill="#1c1c1c" fill-opacity="0.85"/><rect x="234.2" y="637.3" width="6" height="9.5" rx="3" fill="#1c1c1c" fill-opacity="0.85"/><rect x="244.8" y="627.9" width="6" height="28.2" rx="3" fill="#1c1c1c" fill-opacity="0.85"/><rect x="255.4" y="625.8" width="6" height="32.4" rx="3" fill="#1c1c1c" fill-opacity="0.85"/><rect x="266.0" y="622.2" width="6" height="39.6" rx="3" fill="#1c1c1c" fill-opacity="0.85"/><rect x="276.6" y="615.7" width="6" height="52.7" rx="3" fill="#1c1c1c" fill-opacity="0.85"/><rect x="287.2" y="619.4" width="6" height="45.1" rx="3" fill="#1c1c1c" fill-opacity="0.85"/><rect x="297.8" y="624.6" width="6" height="34.8" rx="3" fill="#1c1c1c" fill-opacity="0.85"/><rect x="308.4" y="637.6" width="6" height="8.7" rx="3" fill="#1c1c1c" fill-opacity="0.85"/><rect x="319.0" y="624.0" width="6" height="36.1" rx="3" fill="#1c1c1c" fill-opacity="0.85"/><rect x="329.6" y="618.5" width="6" height="47.0" rx="3" fill="#1c1c1c" fill-opacity="0.85"/><rect x="340.2" y="622.2" width="6" height="39.5" rx="3" fill="#1c1c1c" fill-opacity="0.85"/><rect x="350.8" y="617.5" width="6" height="49.0" rx="3" fill="#1c1c1c" fill-opacity="0.25"/><rect x="361.4" y="618.0" width="6" height="48.1" rx="3" fill="#1c1c1c" fill-opacity="0.25"/><rect x="372.0" y="628.0" width="6" height="28.0" rx="3" fill="#1c1c1c" fill-opacity="0.25"/><rect x="382.6" y="633.9" width="6" height="16.1" rx="3" fill="#1c1c1c" fill-opacity="0.25"/><rect x="393.2" y="622.8" width="6" height="38.3" rx="3" fill="#1c1c1c" fill-opacity="0.25"/><rect x="403.8" y="617.9" width="6" height="48.2" rx="3" fill="#1c1c1c" fill-opacity="0.25"/><rect x="414.4" y="616.0" width="6" height="52.1" rx="3" fill="#1c1c1c" fill-opacity="0.25"/><rect x="425.0" y="616.9" width="6" height="50.2" rx="3" fill="#1c1c1c" fill-opacity="0.25"/><rect x="435.6" y="619.8" width="6" height="44.4" rx="3" fill="#1c1c1c" fill-opacity="0.25"/><rect x="446.2" y="624.4" width="6" height="35.2" rx="3" fill="#1c1c1c" fill-opacity="0.25"/><rect x="456.8" y="636.2" width="6" height="11.5" rx="3" fill="#1c1c1c" fill-opacity="0.25"/><rect x="467.4" y="626.3" width="6" height="31.5" rx="3" fill="#1c1c1c" fill-opacity="0.25"/><rect x="478.0" y="617.6" width="6" height="48.8" rx="3" fill="#1c1c1c" fill-opacity="0.25"/><rect x="488.6" y="618.3" width="6" height="47.5" rx="3" fill="#1c1c1c" fill-opacity="0.25"/><rect x="499.2" y="621.3" width="6" height="41.4" rx="3" fill="#1c1c1c" fill-opacity="0.25"/><rect x="509.8" y="625.5" width="6" height="32.9" rx="3" fill="#1c1c1c" fill-opacity="0.25"/><rect x="520.4" y="623.7" width="6" height="36.6" rx="3" fill="#1c1c1c" fill-opacity="0.25"/><rect x="531.0" y="629.0" width="6" height="26.0" rx="3" fill="#1c1c1c" fill-opacity="0.25"/><rect x="541.6" y="628.5" width="6" height="27.1" rx="3" fill="#1c1c1c" fill-opacity="0.25"/><rect x="552.2" y="619.8" width="6" height="44.5" rx="3" fill="#1c1c1c" fill-opacity="0.25"/><rect x="562.8" y="616.9" width="6" height="50.2" rx="3" fill="#1c1c1c" fill-opacity="0.25"/><rect x="573.4" y="616.6" width="6" height="50.8" rx="3" fill="#1c1c1c" fill-opacity="0.25"/><rect x="584.0" y="624.4" width="6" height="35.1" rx="3" fill="#1c1c1c" fill-opacity="0.25"/><rect x="594.6" y="630.6" width="6" height="22.8" rx="3" fill="#1c1c1c" fill-opacity="0.25"/><rect x="605.2" y="629.6" width="6" height="24.8" rx="3" fill="#1c1c1c" fill-opacity="0.25"/><rect x="615.8" y="625.6" width="6" height="32.8" rx="3" fill="#1c1c1c" fill-opacity="0.25"/><rect x="626.4" y="622.3" width="6" height="39.5" rx="3" fill="#1c1c1c" fill-opacity="0.25"/><rect x="637.0" y="615.8" width="6" height="52.4" rx="3" fill="#1c1c1c" fill-opacity="0.25"/><g filter="url(#shs)"><circle cx="640" cy="590" r="58" fill="#1c1c1c"/></g><path d="M640,560 V612 M618,592 L640,614 L662,592" stroke="#F5C211" stroke-width="7" fill="none" stroke-linecap="round" stroke-linejoin="round"/><rect x="160" y="690" width="118" height="34" rx="17" fill="none" stroke="#1c1c1c" stroke-opacity=".5"/><text x="219" y="712" text-anchor="middle" font-family="'Sora','DM Sans','Helvetica Neue',Helvetica,Arial,sans-serif" font-size="13" font-weight="600" letter-spacing="1.5" fill="#1c1c1c">MP3 320</text><rect x="290" y="690" width="118" height="34" rx="17" fill="none" stroke="#1c1c1c" stroke-opacity=".5"/><text x="349" y="712" text-anchor="middle" font-family="'Sora','DM Sans','Helvetica Neue',Helvetica,Arial,sans-serif" font-size="13" font-weight="600" letter-spacing="1.5" fill="#1c1c1c">WAV</text><rect x="420" y="690" width="118" height="34" rx="17" fill="none" stroke="#1c1c1c" stroke-opacity=".5"/><text x="479" y="712" text-anchor="middle" font-family="'Sora','DM Sans','Helvetica Neue',Helvetica,Arial,sans-serif" font-size="13" font-weight="600" letter-spacing="1.5" fill="#1c1c1c">FLAC 24-BIT</text><text x="160" y="760" font-family="'Sora','DM Sans','Helvetica Neue',Helvetica,Arial,sans-serif" font-size="12" font-weight="600" letter-spacing="3" fill="#1c1c1c" fill-opacity=".6">DIGITAL SINGLE · INSTANT DOWNLOAD</text></svg>