<svg xmlns="http://www.w3.org/2000/svg" viewBox="0 0 800 800" width="800" height="800" role="img" aria-label="GOLDEN HOUR THEORY — LP · Black Vinyl"><defs><linearGradient id="stage" x1="0" y1="0" x2="1" y2="1"><stop offset="0" stop-color="#fafaf8"/><stop offset="1" stop-color="#e4e4e0"/></linearGradient><filter id="sh" x="-20%" y="-20%" width="140%" height="150%"><feDropShadow dx="0" dy="14" stdDeviation="16" flood-color="#000" flood-opacity=".28"/></filter><filter id="shs" x="-20%" y="-20%" width="140%" height="150%"><feDropShadow dx="0" dy="5" stdDeviation="6" flood-color="#000" flood-opacity=".25"/></filter><radialGradient id="vinylShine" cx="50%" cy="50%" r="50%"><stop offset="0" stop-color="#fff" stop-opacity="0"/><stop offset=".7" stop-color="#fff" stop-opacity=".06"/><stop offset="1" stop-color="#fff" stop-opacity="0"/></radialGradient><linearGradient id="gloss" x1="0" y1="0" x2="1" y2="1"><stop offset="0" stop-color="#fff" stop-opacity=".28"/><stop offset=".45" stop-color="#fff" stop-opacity="0"/></linearGradient></defs><rect width="800" height="800" fill="url(#stage)"/><ellipse cx="400" cy="720" rx="330" ry="26" fill="#000" fill-opacity=".07"/><g filter="url(#sh)"><circle cx="560" cy="395.0" r="218" fill="#121212" /></g><circle cx="560" cy="395.0" r="82" fill="none" stroke="#000" stroke-opacity="0.35" stroke-width=".8"/><circle cx="560" cy="395.0" r="85" fill="none" stroke="#000" stroke-opacity="0.35" stroke-width=".8"/><circle cx="560" cy="395.0" r="88" fill="none" stroke="#000" stroke-opacity="0.35" stroke-width=".8"/><circle cx="560" cy="395.0" r="91" fill="none" stroke="#000" stroke-opacity="0.35" stroke-width=".8"/><circle cx="560" cy="395.0" r="94" fill="none" stroke="#000" stroke-opacity="0.35" stroke-width=".8"/><circle cx="560" cy="395.0" r="97" fill="none" stroke="#000" stroke-opacity="0.35" stroke-width=".8"/><circle cx="560" cy="395.0" r="100" fill="none" stroke="#000" stroke-opacity="0.35" stroke-width=".8"/><circle cx="560" cy="395.0" r="103" fill="none" stroke="#000" stroke-opacity="0.35" stroke-width=".8"/><circle cx="560" cy="395.0" r="106" fill="none" stroke="#000" stroke-opacity="0.35" stroke-width=".8"/><circle cx="560" cy="395.0" r="109" fill="none" stroke="#000" stroke-opacity="0.35" stroke-width=".8"/><circle cx="560" cy="395.0" r="112" fill="none" stroke="#000" stroke-opacity="0.35" stroke-width=".8"/><circle cx="560" cy="395.0" r="115" fill="none" stroke="#000" stroke-opacity="0.35" stroke-width=".8"/><circle cx="560" cy="395.0" r="118" fill="none" stroke="#000" stroke-opacity="0.35" stroke-width=".8"/><circle cx="560" cy="395.0" r="121" fill="none" stroke="#000" stroke-opacity="0.35" stroke-width=".8"/><circle cx="560" cy="395.0" r="124" fill="none" stroke="#000" stroke-opacity="0.35" stroke-width=".8"/><circle cx="560" cy="395.0" r="127" fill="none" stroke="#000" stroke-opacity="0.35" stroke-width=".8"/><circle cx="560" cy="395.0" r="130" fill="none" stroke="#000" stroke-opacity="0.35" stroke-width=".8"/><circle cx="560" cy="395.0" r="133" fill="none" stroke="#000" stroke-opacity="0.35" stroke-width=".8"/><circle cx="560" cy="395.0" r="136" fill="none" stroke="#000" stroke-opacity="0.35" stroke-width=".8"/><circle cx="560" cy="395.0" r="139" fill="none" stroke="#000" stroke-opacity="0.35" stroke-width=".8"/><circle cx="560" cy="395.0" r="142" fill="none" stroke="#000" stroke-opacity="0.35" stroke-width=".8"/><circle cx="560" cy="395.0" r="145" fill="none" stroke="#000" stroke-opacity="0.35" stroke-width=".8"/><circle cx="560" cy="395.0" r="148" fill="none" stroke="#000" stroke-opacity="0.35" stroke-width=".8"/><circle cx="560" cy="395.0" r="151" fill="none" stroke="#000" stroke-opacity="0.35" stroke-width=".8"/><circle cx="560" cy="395.0" r="154" fill="none" stroke="#000" stroke-opacity="0.35" stroke-width=".8"/><circle cx="560" cy="395.0" r="157" fill="none" stroke="#000" stroke-opacity="0.35" stroke-width=".8"/><circle cx="560" cy="395.0" r="160" fill="none" stroke="#000" stroke-opacity="0.35" stroke-width=".8"/><circle cx="560" cy="395.0" r="163" fill="none" stroke="#000" stroke-opacity="0.35" stroke-width=".8"/><circle cx="560" cy="395.0" r="166" fill="none" stroke="#000" stroke-opacity="0.35" stroke-width=".8"/><circle cx="560" cy="395.0" r="169" fill="none" stroke="#000" stroke-opacity="0.35" stroke-width=".8"/><circle cx="560" cy="395.0" r="172" fill="none" stroke="#000" stroke-opacity="0.35" stroke-width=".8"/><circle cx="560" cy="395.0" r="175" fill="none" stroke="#000" stroke-opacity="0.35" stroke-width=".8"/><circle cx="560" cy="395.0" r="178" fill="none" stroke="#000" stroke-opacity="0.35" stroke-width=".8"/><circle cx="560" cy="395.0" r="181" fill="none" stroke="#000" stroke-opacity="0.35" stroke-width=".8"/><circle cx="560" cy="395.0" r="184" fill="none" stroke="#000" stroke-opacity="0.35" stroke-width=".8"/><circle cx="560" cy="395.0" r="187" fill="none" stroke="#000" stroke-opacity="0.35" stroke-width=".8"/><circle cx="560" cy="395.0" r="190" fill="none" stroke="#000" stroke-opacity="0.35" stroke-width=".8"/><circle cx="560" cy="395.0" r="193" fill="none" stroke="#000" stroke-opacity="0.35" stroke-width=".8"/><circle cx="560" cy="395.0" r="196" fill="none" stroke="#000" stroke-opacity="0.35" stroke-width=".8"/><circle cx="560" cy="395.0" r="199" fill="none" stroke="#000" stroke-opacity="0.35" stroke-width=".8"/><circle cx="560" cy="395.0" r="202" fill="none" stroke="#000" stroke-opacity="0.35" stroke-width=".8"/><circle cx="560" cy="395.0" r="205" fill="none" stroke="#000" stroke-opacity="0.35" stroke-width=".8"/><circle cx="560" cy="395.0" r="208" fill="none" stroke="#000" stroke-opacity="0.35" stroke-width=".8"/><circle cx="560" cy="395.0" r="211" fill="none" stroke="#000" stroke-opacity="0.35" stroke-width=".8"/><circle cx="560" cy="395.0" r="218" fill="url(#vinylShine)"/><path d="M407,242 A218,218 0 0 1 604,181" stroke="#fff" stroke-opacity=".18" stroke-width="26" fill="none"/><clipPath id="dlab"><circle cx="560" cy="395.0" r="74"/></clipPath><g clip-path="url(#dlab)"><svg x="485.88" y="320.88" width="148.24" height="148.24" viewBox="0 0 1000 1000"><defs><linearGradient id="dfade" x1="0" y1="0" x2="0" y2="1"><stop offset="0" stop-color="#000" stop-opacity="0"/><stop offset="1" stop-color="#000" stop-opacity=".55"/></linearGradient></defs><defs><linearGradient id="dsky" x1="0" y1="0" x2="0" y2="1"><stop offset="0" stop-color="#2f4f86"/><stop offset=".55" stop-color="#9cc3e6"/><stop offset="1" stop-color="#f7c9a1"/></linearGradient><radialGradient id="dsun" cx="50%" cy="50%" r="50%"><stop offset="0" stop-color="#fff6d8"/><stop offset=".5" stop-color="#ffd98a"/><stop offset="1" stop-color="#ffd98a" stop-opacity="0"/></radialGradient></defs><rect width="1000" height="1000" fill="url(#dsky)"/><circle cx="453" cy="335" r="230" fill="url(#dsun)"/><circle cx="453" cy="335" r="80" fill="#fff4d6"/><ellipse cx="855" cy="540" rx="163" ry="56" fill="#fff" fill-opacity="0.55"/><ellipse cx="541" cy="515" rx="170" ry="43" fill="#fff" fill-opacity="0.55"/><ellipse cx="577" cy="503" rx="202" ry="59" fill="#fff" fill-opacity="0.55"/><ellipse cx="506" cy="517" rx="192" ry="50" fill="#fff" fill-opacity="0.55"/><ellipse cx="463" cy="501" rx="216" ry="66" fill="#fff" fill-opacity="0.55"/><ellipse cx="913" cy="506" rx="202" ry="59" fill="#fff" fill-opacity="0.55"/><ellipse cx="716" cy="598" rx="206" ry="41" fill="#fff" fill-opacity="0.67"/><ellipse cx="1075" cy="623" rx="187" ry="70" fill="#fff" fill-opacity="0.67"/><ellipse cx="96" cy="630" rx="126" ry="61" fill="#fff" fill-opacity="0.67"/><ellipse cx="664" cy="618" rx="161" ry="52" fill="#fff" fill-opacity="0.67"/><ellipse cx="791" cy="605" rx="213" ry="65" fill="#fff" fill-opacity="0.67"/><ellipse cx="923" cy="598" rx="168" ry="53" fill="#fff" fill-opacity="0.67"/><ellipse cx="-29" cy="703" rx="127" ry="46" fill="#fff" fill-opacity="0.79"/><ellipse cx="383" cy="727" rx="143" ry="61" fill="#fff" fill-opacity="0.79"/><ellipse cx="785" cy="714" rx="159" ry="69" fill="#fff" fill-opacity="0.79"/><ellipse cx="400" cy="716" rx="131" ry="45" fill="#fff" fill-opacity="0.79"/><ellipse cx="-17" cy="811" rx="149" ry="50" fill="#fff" fill-opacity="0.91"/><ellipse cx="152" cy="815" rx="192" ry="56" fill="#fff" fill-opacity="0.91"/><ellipse cx="670" cy="796" rx="142" ry="58" fill="#fff" fill-opacity="0.91"/><ellipse cx="893" cy="809" rx="131" ry="61" fill="#fff" fill-opacity="0.91"/><ellipse cx="1052" cy="825" rx="170" ry="52" fill="#fff" fill-opacity="0.91"/><ellipse cx="1011" cy="800" rx="133" ry="62" fill="#fff" fill-opacity="0.91"/><rect x="0" y="880" width="1000" height="120" fill="#fff" fill-opacity=".55"/><text x="70" y="96" font-family="'Sora','DM Sans','Helvetica Neue',Helvetica,Arial,sans-serif" font-size="26" font-weight="600" letter-spacing="9" fill="rgba(29,43,74,.7)" text-anchor="start">SKYCHILD</text><text x="70" y="826" font-family="'Sora','DM Sans','Helvetica Neue',Helvetica,Arial,sans-serif" font-size="106" font-weight="800" letter-spacing="-1" fill="#1d2b4a" text-anchor="start">GOLDEN HOUR</text><text x="70" y="930" font-family="'Sora','DM Sans','Helvetica Neue',Helvetica,Arial,sans-serif" font-size="106" font-weight="800" letter-spacing="-1" fill="#1d2b4a" text-anchor="start">THEORY</text><g transform="translate(868,52) scale(0.0625)"><path d="M512,82 L847,287 L847,712 L512,925 L176,712 L176,287 Z M316,378 L316,630 L512,755 L707,630 L707,378 L512,258 Z" fill="#F5C211" fill-rule="evenodd"/><polygon points="512,391 622,504 512,617 402,504" fill="#F5C211"/></g></svg></g><circle cx="560" cy="395.0" r="74" fill="none" stroke="#000" stroke-opacity=".25"/><circle cx="560" cy="395.0" r="7" fill="#e9e9e6"/><g filter="url(#sh)"><rect x="55" y="170" width="450" height="450" fill="#000"/></g><svg x="55" y="170" width="450" height="450" viewBox="0 0 1000 1000"><defs><linearGradient id="sfade" x1="0" y1="0" x2="0" y2="1"><stop offset="0" stop-color="#000" stop-opacity="0"/><stop offset="1" stop-color="#000" stop-opacity=".55"/></linearGradient></defs><defs><linearGradient id="ssky" x1="0" y1="0" x2="0" y2="1"><stop offset="0" stop-color="#2f4f86"/><stop offset=".55" stop-color="#9cc3e6"/><stop offset="1" stop-color="#f7c9a1"/></linearGradient><radialGradient id="ssun" cx="50%" cy="50%" r="50%"><stop offset="0" stop-color="#fff6d8"/><stop offset=".5" stop-color="#ffd98a"/><stop offset="1" stop-color="#ffd98a" stop-opacity="0"/></radialGradient></defs><rect width="1000" height="1000" fill="url(#ssky)"/><circle cx="453" cy="335" r="230" fill="url(#ssun)"/><circle cx="453" cy="335" r="80" fill="#fff4d6"/><ellipse cx="855" cy="540" rx="163" ry="56" fill="#fff" fill-opacity="0.55"/><ellipse cx="541" cy="515" rx="170" ry="43" fill="#fff" fill-opacity="0.55"/><ellipse cx="577" cy="503" rx="202" ry="59" fill="#fff" fill-opacity="0.55"/><ellipse cx="506" cy="517" rx="192" ry="50" fill="#fff" fill-opacity="0.55"/><ellipse cx="463" cy="501" rx="216" ry="66" fill="#fff" fill-opacity="0.55"/><ellipse cx="913" cy="506" rx="202" ry="59" fill="#fff" fill-opacity="0.55"/><ellipse cx="716" cy="598" rx="206" ry="41" fill="#fff" fill-opacity="0.67"/><ellipse cx="1075" cy="623" rx="187" ry="70" fill="#fff" fill-opacity="0.67"/><ellipse cx="96" cy="630" rx="126" ry="61" fill="#fff" fill-opacity="0.67"/><ellipse cx="664" cy="618" rx="161" ry="52" fill="#fff" fill-opacity="0.67"/><ellipse cx="791" cy="605" rx="213" ry="65" fill="#fff" fill-opacity="0.67"/><ellipse cx="923" cy="598" rx="168" ry="53" fill="#fff" fill-opacity="0.67"/><ellipse cx="-29" cy="703" rx="127" ry="46" fill="#fff" fill-opacity="0.79"/><ellipse cx="383" cy="727" rx="143" ry="61" fill="#fff" fill-opacity="0.79"/><ellipse cx="785" cy="714" rx="159" ry="69" fill="#fff" fill-opacity="0.79"/><ellipse cx="400" cy="716" rx="131" ry="45" fill="#fff" fill-opacity="0.79"/><ellipse cx="-17" cy="811" rx="149" ry="50" fill="#fff" fill-opacity="0.91"/><ellipse cx="152" cy="815" rx="192" ry="56" fill="#fff" fill-opacity="0.91"/><ellipse cx="670" cy="796" rx="142" ry="58" fill="#fff" fill-opacity="0.91"/><ellipse cx="893" cy="809" rx="131" ry="61" fill="#fff" fill-opacity="0.91"/><ellipse cx="1052" cy="825" rx="170" ry="52" fill="#fff" fill-opacity="0.91"/><ellipse cx="1011" cy="800" rx="133" ry="62" fill="#fff" fill-opacity="0.91"/><rect x="0" y="880" width="1000" height="120" fill="#fff" fill-opacity=".55"/><text x="70" y="96" font-family="'Sora','DM Sans','Helvetica Neue',Helvetica,Arial,sans-serif" font-size="26" font-weight="600" letter-spacing="9" fill="rgba(29,43,74,.7)" text-anchor="start">SKYCHILD</text><text x="70" y="826" font-family="'Sora','DM Sans','Helvetica Neue',Helvetica,Arial,sans-serif" font-size="106" font-weight="800" letter-spacing="-1" fill="#1d2b4a" text-anchor="start">GOLDEN HOUR</text><text x="70" y="930" font-family="'Sora','DM Sans','Helvetica Neue',Helvetica,Arial,sans-serif" font-size="106" font-weight="800" letter-spacing="-1" fill="#1d2b4a" text-anchor="start">THEORY</text><g transform="translate(868,52) scale(0.0625)"><path d="M512,82 L847,287 L847,712 L512,925 L176,712 L176,287 Z M316,378 L316,630 L512,755 L707,630 L707,378 L512,258 Z" fill="#F5C211" fill-rule="evenodd"/><polygon points="512,391 622,504 512,617 402,504" fill="#F5C211"/></g></svg><rect x="55" y="170" width="450" height="450" fill="url(#gloss)"/><rect x="499" y="170" width="6" height="450" fill="#000" fill-opacity=".25"/></svg>