<svg xmlns="http://www.w3.org/2000/svg" viewBox="0 0 800 800" width="800" height="800" role="img" aria-label="STRATOSPHERE — Digital Album · MP3 / WAV / FLAC"><defs><linearGradient id="stage" x1="0" y1="0" x2="1" y2="1"><stop offset="0" stop-color="#fafaf8"/><stop offset="1" stop-color="#e4e4e0"/></linearGradient><filter id="sh" x="-20%" y="-20%" width="140%" height="150%"><feDropShadow dx="0" dy="14" stdDeviation="16" flood-color="#000" flood-opacity=".28"/></filter><filter id="shs" x="-20%" y="-20%" width="140%" height="150%"><feDropShadow dx="0" dy="5" stdDeviation="6" flood-color="#000" flood-opacity=".25"/></filter><radialGradient id="vinylShine" cx="50%" cy="50%" r="50%"><stop offset="0" stop-color="#fff" stop-opacity="0"/><stop offset=".7" stop-color="#fff" stop-opacity=".06"/><stop offset="1" stop-color="#fff" stop-opacity="0"/></radialGradient><linearGradient id="gloss" x1="0" y1="0" x2="1" y2="1"><stop offset="0" stop-color="#fff" stop-opacity=".28"/><stop offset=".45" stop-color="#fff" stop-opacity="0"/></linearGradient></defs><rect width="800" height="800" fill="url(#stage)"/><ellipse cx="400" cy="720" rx="330" ry="26" fill="#000" fill-opacity=".07"/><g filter="url(#sh)"><rect x="150" y="90" width="500" height="500" rx="20" fill="#000"/></g><clipPath id="dg"><rect x="150" y="90" width="500" height="500" rx="20"/></clipPath><g clip-path="url(#dg)"><svg x="150" y="90" width="500" height="500" viewBox="0 0 1000 1000"><defs><linearGradient id="gfade" x1="0" y1="0" x2="0" y2="1"><stop offset="0" stop-color="#000" stop-opacity="0"/><stop offset="1" stop-color="#000" stop-opacity=".55"/></linearGradient></defs><defs><linearGradient id="gsky" x1="0" y1="0" x2="0" y2="1"><stop offset="0" stop-color="#2f4f86"/><stop offset=".55" stop-color="#9cc3e6"/><stop offset="1" stop-color="#f7c9a1"/></linearGradient><radialGradient id="gsun" cx="50%" cy="50%" r="50%"><stop offset="0" stop-color="#fff6d8"/><stop offset=".5" stop-color="#ffd98a"/><stop offset="1" stop-color="#ffd98a" stop-opacity="0"/></radialGradient></defs><rect width="1000" height="1000" fill="url(#gsky)"/><circle cx="492" cy="445" r="230" fill="url(#gsun)"/><circle cx="492" cy="445" r="80" fill="#fff4d6"/><ellipse cx="897" cy="531" rx="143" ry="61" fill="#fff" fill-opacity="0.55"/><ellipse cx="88" cy="524" rx="173" ry="59" fill="#fff" fill-opacity="0.55"/><ellipse cx="961" cy="517" rx="207" ry="69" fill="#fff" fill-opacity="0.55"/><ellipse cx="910" cy="514" rx="146" ry="69" fill="#fff" fill-opacity="0.55"/><ellipse cx="305" cy="519" rx="190" ry="68" fill="#fff" fill-opacity="0.55"/><ellipse cx="174" cy="629" rx="125" ry="66" fill="#fff" fill-opacity="0.67"/><ellipse cx="409" cy="612" rx="198" ry="52" fill="#fff" fill-opacity="0.67"/><ellipse cx="1020" cy="634" rx="141" ry="44" fill="#fff" fill-opacity="0.67"/><ellipse cx="69" cy="619" rx="129" ry="59" fill="#fff" fill-opacity="0.67"/><ellipse cx="486" cy="635" rx="204" ry="53" fill="#fff" fill-opacity="0.67"/><ellipse cx="315" cy="615" rx="186" ry="49" fill="#fff" fill-opacity="0.67"/><ellipse cx="78" cy="722" rx="146" ry="61" fill="#fff" fill-opacity="0.79"/><ellipse cx="338" cy="716" rx="124" ry="67" fill="#fff" fill-opacity="0.79"/><ellipse cx="700" cy="711" rx="136" ry="63" fill="#fff" fill-opacity="0.79"/><ellipse cx="129" cy="708" rx="146" ry="68" fill="#fff" fill-opacity="0.79"/><ellipse cx="759" cy="699" rx="120" ry="51" fill="#fff" fill-opacity="0.79"/><ellipse cx="910" cy="793" rx="209" ry="41" fill="#fff" fill-opacity="0.91"/><ellipse cx="698" cy="804" rx="132" ry="63" fill="#fff" fill-opacity="0.91"/><ellipse cx="603" cy="795" rx="201" ry="69" fill="#fff" fill-opacity="0.91"/><ellipse cx="1076" cy="789" rx="142" ry="61" fill="#fff" fill-opacity="0.91"/><ellipse cx="785" cy="801" rx="173" ry="68" fill="#fff" fill-opacity="0.91"/><rect x="0" y="880" width="1000" height="120" fill="#fff" fill-opacity=".55"/><text x="70" y="96" font-family="'Sora','DM Sans','Helvetica Neue',Helvetica,Arial,sans-serif" font-size="26" font-weight="600" letter-spacing="9" fill="rgba(29,43,74,.7)" text-anchor="start">SKYCHILD</text><text x="70" y="930" font-family="'Sora','DM Sans','Helvetica Neue',Helvetica,Arial,sans-serif" font-size="98" font-weight="800" letter-spacing="-1" fill="#1d2b4a" text-anchor="start">STRATOSPHERE</text><g transform="translate(868,52) scale(0.0625)"><path d="M512,82 L847,287 L847,712 L512,925 L176,712 L176,287 Z M316,378 L316,630 L512,755 L707,630 L707,378 L512,258 Z" fill="#F5C211" fill-rule="evenodd"/><polygon points="512,391 622,504 512,617 402,504" fill="#F5C211"/></g></svg></g><rect x="150" y="90" width="500" height="500" rx="20" fill="url(#gloss)"/><rect x="160.0" y="629.5" width="6" height="24.9" rx="3" fill="#1c1c1c" fill-opacity="0.85"/><rect x="170.6" y="625.5" width="6" height="33.1" rx="3" fill="#1c1c1c" fill-opacity="0.85"/><rect x="181.2" y="618.8" width="6" height="46.4" rx="3" fill="#1c1c1c" fill-opacity="0.85"/><rect x="191.8" y="617.8" width="6" height="48.4" rx="3" fill="#1c1c1c" fill-opacity="0.85"/><rect x="202.4" y="615.5" width="6" height="52.9" rx="3" fill="#1c1c1c" fill-opacity="0.85"/><rect x="213.0" y="617.8" width="6" height="48.5" rx="3" fill="#1c1c1c" fill-opacity="0.85"/><rect x="223.6" y="623.1" width="6" height="37.8" rx="3" fill="#1c1c1c" fill-opacity="0.85"/><rect x="234.2" y="637.0" width="6" height="10.0" rx="3" fill="#1c1c1c" fill-opacity="0.85"/><rect x="244.8" y="623.9" width="6" height="36.1" rx="3" fill="#1c1c1c" fill-opacity="0.85"/><rect x="255.4" y="618.6" width="6" height="46.9" rx="3" fill="#1c1c1c" fill-opacity="0.85"/><rect x="266.0" y="614.5" width="6" height="55.0" rx="3" fill="#1c1c1c" fill-opacity="0.85"/><rect x="276.6" y="617.7" width="6" height="48.6" rx="3" fill="#1c1c1c" fill-opacity="0.85"/><rect x="287.2" y="623.3" width="6" height="37.3" rx="3" fill="#1c1c1c" fill-opacity="0.85"/><rect x="297.8" y="630.1" width="6" height="23.7" rx="3" fill="#1c1c1c" fill-opacity="0.85"/><rect x="308.4" y="636.8" width="6" height="10.5" rx="3" fill="#1c1c1c" fill-opacity="0.85"/><rect x="319.0" y="627.9" width="6" height="28.2" rx="3" fill="#1c1c1c" fill-opacity="0.85"/><rect x="329.6" y="618.2" width="6" height="47.6" rx="3" fill="#1c1c1c" fill-opacity="0.85"/><rect x="340.2" y="617.7" width="6" height="48.5" rx="3" fill="#1c1c1c" fill-opacity="0.85"/><rect x="350.8" y="617.9" width="6" height="48.1" rx="3" fill="#1c1c1c" fill-opacity="0.25"/><rect x="361.4" y="625.6" width="6" height="32.9" rx="3" fill="#1c1c1c" fill-opacity="0.25"/><rect x="372.0" y="630.9" width="6" height="22.3" rx="3" fill="#1c1c1c" fill-opacity="0.25"/><rect x="382.6" y="633.9" width="6" height="16.2" rx="3" fill="#1c1c1c" fill-opacity="0.25"/><rect x="393.2" y="627.7" width="6" height="28.6" rx="3" fill="#1c1c1c" fill-opacity="0.25"/><rect x="403.8" y="620.0" width="6" height="44.1" rx="3" fill="#1c1c1c" fill-opacity="0.25"/><rect x="414.4" y="615.9" width="6" height="52.3" rx="3" fill="#1c1c1c" fill-opacity="0.25"/><rect x="425.0" y="623.2" width="6" height="37.6" rx="3" fill="#1c1c1c" fill-opacity="0.25"/><rect x="435.6" y="625.8" width="6" height="32.5" rx="3" fill="#1c1c1c" fill-opacity="0.25"/><rect x="446.2" y="625.9" width="6" height="32.1" rx="3" fill="#1c1c1c" fill-opacity="0.25"/><rect x="456.8" y="635.0" width="6" height="14.1" rx="3" fill="#1c1c1c" fill-opacity="0.25"/><rect x="467.4" y="630.4" width="6" height="23.2" rx="3" fill="#1c1c1c" fill-opacity="0.25"/><rect x="478.0" y="625.8" width="6" height="32.3" rx="3" fill="#1c1c1c" fill-opacity="0.25"/><rect x="488.6" y="614.9" width="6" height="54.1" rx="3" fill="#1c1c1c" fill-opacity="0.25"/><rect x="499.2" y="620.0" width="6" height="44.1" rx="3" fill="#1c1c1c" fill-opacity="0.25"/><rect x="509.8" y="619.9" width="6" height="44.2" rx="3" fill="#1c1c1c" fill-opacity="0.25"/><rect x="520.4" y="631.5" width="6" height="20.9" rx="3" fill="#1c1c1c" fill-opacity="0.25"/><rect x="531.0" y="631.9" width="6" height="20.2" rx="3" fill="#1c1c1c" fill-opacity="0.25"/><rect x="541.6" y="623.6" width="6" height="36.8" rx="3" fill="#1c1c1c" fill-opacity="0.25"/><rect x="552.2" y="617.5" width="6" height="48.9" rx="3" fill="#1c1c1c" fill-opacity="0.25"/><rect x="562.8" y="615.1" width="6" height="53.8" rx="3" fill="#1c1c1c" fill-opacity="0.25"/><rect x="573.4" y="620.1" width="6" height="43.9" rx="3" fill="#1c1c1c" fill-opacity="0.25"/><rect x="584.0" y="617.7" width="6" height="48.5" rx="3" fill="#1c1c1c" fill-opacity="0.25"/><rect x="594.6" y="632.0" width="6" height="20.0" rx="3" fill="#1c1c1c" fill-opacity="0.25"/><rect x="605.2" y="631.5" width="6" height="20.9" rx="3" fill="#1c1c1c" fill-opacity="0.25"/><rect x="615.8" y="624.1" width="6" height="35.7" rx="3" fill="#1c1c1c" fill-opacity="0.25"/><rect x="626.4" y="619.8" width="6" height="44.4" rx="3" fill="#1c1c1c" fill-opacity="0.25"/><rect x="637.0" y="614.4" width="6" height="55.3" rx="3" fill="#1c1c1c" fill-opacity="0.25"/><g filter="url(#shs)"><circle cx="640" cy="590" r="58" fill="#1c1c1c"/></g><path d="M640,560 V612 M618,592 L640,614 L662,592" stroke="#F5C211" stroke-width="7" fill="none" stroke-linecap="round" stroke-linejoin="round"/><rect x="160" y="690" width="118" height="34" rx="17" fill="none" stroke="#1c1c1c" stroke-opacity=".5"/><text x="219" y="712" text-anchor="middle" font-family="'Sora','DM Sans','Helvetica Neue',Helvetica,Arial,sans-serif" font-size="13" font-weight="600" letter-spacing="1.5" fill="#1c1c1c">MP3 320</text><rect x="290" y="690" width="118" height="34" rx="17" fill="none" stroke="#1c1c1c" stroke-opacity=".5"/><text x="349" y="712" text-anchor="middle" font-family="'Sora','DM Sans','Helvetica Neue',Helvetica,Arial,sans-serif" font-size="13" font-weight="600" letter-spacing="1.5" fill="#1c1c1c">WAV</text><rect x="420" y="690" width="118" height="34" rx="17" fill="none" stroke="#1c1c1c" stroke-opacity=".5"/><text x="479" y="712" text-anchor="middle" font-family="'Sora','DM Sans','Helvetica Neue',Helvetica,Arial,sans-serif" font-size="13" font-weight="600" letter-spacing="1.5" fill="#1c1c1c">FLAC 24-BIT</text><text x="160" y="760" font-family="'Sora','DM Sans','Helvetica Neue',Helvetica,Arial,sans-serif" font-size="12" font-weight="600" letter-spacing="3" fill="#1c1c1c" fill-opacity=".6">DIGITAL ALBUM · INSTANT DOWNLOAD</text></svg>