<svg xmlns="http://www.w3.org/2000/svg" viewBox="0 0 800 800" width="800" height="800" role="img" aria-label="ABOVE THE LINE — Cassette EP"><defs><linearGradient id="stage" x1="0" y1="0" x2="1" y2="1"><stop offset="0" stop-color="#fafaf8"/><stop offset="1" stop-color="#e4e4e0"/></linearGradient><filter id="sh" x="-20%" y="-20%" width="140%" height="150%"><feDropShadow dx="0" dy="14" stdDeviation="16" flood-color="#000" flood-opacity=".28"/></filter><filter id="shs" x="-20%" y="-20%" width="140%" height="150%"><feDropShadow dx="0" dy="5" stdDeviation="6" flood-color="#000" flood-opacity=".25"/></filter><radialGradient id="vinylShine" cx="50%" cy="50%" r="50%"><stop offset="0" stop-color="#fff" stop-opacity="0"/><stop offset=".7" stop-color="#fff" stop-opacity=".06"/><stop offset="1" stop-color="#fff" stop-opacity="0"/></radialGradient><linearGradient id="gloss" x1="0" y1="0" x2="1" y2="1"><stop offset="0" stop-color="#fff" stop-opacity=".28"/><stop offset=".45" stop-color="#fff" stop-opacity="0"/></linearGradient></defs><rect width="800" height="800" fill="url(#stage)"/><ellipse cx="400" cy="720" rx="330" ry="26" fill="#000" fill-opacity=".07"/><g filter="url(#sh)" transform="rotate(-8 250 330)"><rect x="110" y="120" width="300" height="440" rx="8" fill="#d9dde0" fill-opacity=".7"/></g><g transform="rotate(-8 250 330)"><svg x="118" y="128" width="284" height="360" preserveAspectRatio="xMidYMid slice" viewBox="0 0 1000 1000"><defs><linearGradient id="jfade" x1="0" y1="0" x2="0" y2="1"><stop offset="0" stop-color="#000" stop-opacity="0"/><stop offset="1" stop-color="#000" stop-opacity=".55"/></linearGradient></defs><defs><linearGradient id="jsky" x1="0" y1="0" x2="0" y2="1"><stop offset="0" stop-color="#2f4f86"/><stop offset=".55" stop-color="#9cc3e6"/><stop offset="1" stop-color="#f7c9a1"/></linearGradient><radialGradient id="jsun" cx="50%" cy="50%" r="50%"><stop offset="0" stop-color="#fff6d8"/><stop offset=".5" stop-color="#ffd98a"/><stop offset="1" stop-color="#ffd98a" stop-opacity="0"/></radialGradient></defs><rect width="1000" height="1000" fill="url(#jsky)"/><circle cx="635" cy="362" r="230" fill="url(#jsun)"/><circle cx="635" cy="362" r="80" fill="#fff4d6"/><ellipse cx="-79" cy="518" rx="215" ry="40" fill="#fff" fill-opacity="0.55"/><ellipse cx="387" cy="518" rx="203" ry="44" fill="#fff" fill-opacity="0.55"/><ellipse cx="710" cy="505" rx="183" ry="64" fill="#fff" fill-opacity="0.55"/><ellipse cx="10" cy="533" rx="198" ry="69" fill="#fff" fill-opacity="0.55"/><ellipse cx="772" cy="601" rx="130" ry="48" fill="#fff" fill-opacity="0.67"/><ellipse cx="448" cy="604" rx="162" ry="69" fill="#fff" fill-opacity="0.67"/><ellipse cx="-56" cy="632" rx="204" ry="43" fill="#fff" fill-opacity="0.67"/><ellipse cx="36" cy="597" rx="171" ry="68" fill="#fff" fill-opacity="0.67"/><ellipse cx="758" cy="625" rx="213" ry="53" fill="#fff" fill-opacity="0.67"/><ellipse cx="49" cy="701" rx="193" ry="40" fill="#fff" fill-opacity="0.79"/><ellipse cx="36" cy="696" rx="183" ry="57" fill="#fff" fill-opacity="0.79"/><ellipse cx="655" cy="695" rx="174" ry="42" fill="#fff" fill-opacity="0.79"/><ellipse cx="466" cy="711" rx="152" ry="69" fill="#fff" fill-opacity="0.79"/><ellipse cx="1076" cy="725" rx="165" ry="55" fill="#fff" fill-opacity="0.79"/><ellipse cx="292" cy="715" rx="198" ry="59" fill="#fff" fill-opacity="0.79"/><ellipse cx="841" cy="785" rx="120" ry="67" fill="#fff" fill-opacity="0.91"/><ellipse cx="568" cy="813" rx="198" ry="67" fill="#fff" fill-opacity="0.91"/><ellipse cx="473" cy="805" rx="142" ry="40" fill="#fff" fill-opacity="0.91"/><ellipse cx="928" cy="807" rx="197" ry="65" fill="#fff" fill-opacity="0.91"/><ellipse cx="202" cy="816" rx="212" ry="54" fill="#fff" fill-opacity="0.91"/><rect x="0" y="880" width="1000" height="120" fill="#fff" fill-opacity=".55"/><text x="70" y="96" font-family="'Sora','DM Sans','Helvetica Neue',Helvetica,Arial,sans-serif" font-size="26" font-weight="600" letter-spacing="9" fill="rgba(29,43,74,.7)" text-anchor="start">SKYCHILD</text><text x="70" y="814" font-family="'Sora','DM Sans','Helvetica Neue',Helvetica,Arial,sans-serif" font-size="118" font-weight="800" letter-spacing="-1" fill="#1d2b4a" text-anchor="start">ABOVE THE</text><text x="70" y="930" font-family="'Sora','DM Sans','Helvetica Neue',Helvetica,Arial,sans-serif" font-size="118" font-weight="800" letter-spacing="-1" fill="#1d2b4a" text-anchor="start">LINE</text><g transform="translate(868,52) scale(0.0625)"><path d="M512,82 L847,287 L847,712 L512,925 L176,712 L176,287 Z M316,378 L316,630 L512,755 L707,630 L707,378 L512,258 Z" fill="#F5C211" fill-rule="evenodd"/><polygon points="512,391 622,504 512,617 402,504" fill="#F5C211"/></g></svg><rect x="118" y="488" width="284" height="64" fill="#111"/><text x="260" y="528" text-anchor="middle" font-family="'Sora','DM Sans','Helvetica Neue',Helvetica,Arial,sans-serif" font-size="16" font-weight="700" letter-spacing="3" fill="#f5c211">WUNDERLAND RECORDS</text><rect x="110" y="120" width="300" height="440" rx="8" fill="url(#gloss)" stroke="#fff" stroke-opacity=".5"/></g><g filter="url(#sh)"><rect x="250" y="330" width="470" height="300" rx="18" fill="#1b1b1b"/></g><rect x="276" y="352" width="418" height="200" rx="8" fill="#f2f0ea"/><clipPath id="cl"><rect x="276" y="352" width="418" height="70" rx="8"/></clipPath><g clip-path="url(#cl)"><svg x="276" y="192" width="418" height="418" viewBox="0 0 1000 1000"><defs><linearGradient id="kfade" x1="0" y1="0" x2="0" y2="1"><stop offset="0" stop-color="#000" stop-opacity="0"/><stop offset="1" stop-color="#000" stop-opacity=".55"/></linearGradient></defs><defs><linearGradient id="ksky" x1="0" y1="0" x2="0" y2="1"><stop offset="0" stop-color="#2f4f86"/><stop offset=".55" stop-color="#9cc3e6"/><stop offset="1" stop-color="#f7c9a1"/></linearGradient><radialGradient id="ksun" cx="50%" cy="50%" r="50%"><stop offset="0" stop-color="#fff6d8"/><stop offset=".5" stop-color="#ffd98a"/><stop offset="1" stop-color="#ffd98a" stop-opacity="0"/></radialGradient></defs><rect width="1000" height="1000" fill="url(#ksky)"/><circle cx="635" cy="362" r="230" fill="url(#ksun)"/><circle cx="635" cy="362" r="80" fill="#fff4d6"/><ellipse cx="-79" cy="518" rx="215" ry="40" fill="#fff" fill-opacity="0.55"/><ellipse cx="387" cy="518" rx="203" ry="44" fill="#fff" fill-opacity="0.55"/><ellipse cx="710" cy="505" rx="183" ry="64" fill="#fff" fill-opacity="0.55"/><ellipse cx="10" cy="533" rx="198" ry="69" fill="#fff" fill-opacity="0.55"/><ellipse cx="772" cy="601" rx="130" ry="48" fill="#fff" fill-opacity="0.67"/><ellipse cx="448" cy="604" rx="162" ry="69" fill="#fff" fill-opacity="0.67"/><ellipse cx="-56" cy="632" rx="204" ry="43" fill="#fff" fill-opacity="0.67"/><ellipse cx="36" cy="597" rx="171" ry="68" fill="#fff" fill-opacity="0.67"/><ellipse cx="758" cy="625" rx="213" ry="53" fill="#fff" fill-opacity="0.67"/><ellipse cx="49" cy="701" rx="193" ry="40" fill="#fff" fill-opacity="0.79"/><ellipse cx="36" cy="696" rx="183" ry="57" fill="#fff" fill-opacity="0.79"/><ellipse cx="655" cy="695" rx="174" ry="42" fill="#fff" fill-opacity="0.79"/><ellipse cx="466" cy="711" rx="152" ry="69" fill="#fff" fill-opacity="0.79"/><ellipse cx="1076" cy="725" rx="165" ry="55" fill="#fff" fill-opacity="0.79"/><ellipse cx="292" cy="715" rx="198" ry="59" fill="#fff" fill-opacity="0.79"/><ellipse cx="841" cy="785" rx="120" ry="67" fill="#fff" fill-opacity="0.91"/><ellipse cx="568" cy="813" rx="198" ry="67" fill="#fff" fill-opacity="0.91"/><ellipse cx="473" cy="805" rx="142" ry="40" fill="#fff" fill-opacity="0.91"/><ellipse cx="928" cy="807" rx="197" ry="65" fill="#fff" fill-opacity="0.91"/><ellipse cx="202" cy="816" rx="212" ry="54" fill="#fff" fill-opacity="0.91"/><rect x="0" y="880" width="1000" height="120" fill="#fff" fill-opacity=".55"/><text x="70" y="96" font-family="'Sora','DM Sans','Helvetica Neue',Helvetica,Arial,sans-serif" font-size="26" font-weight="600" letter-spacing="9" fill="rgba(29,43,74,.7)" text-anchor="start">SKYCHILD</text><text x="70" y="814" font-family="'Sora','DM Sans','Helvetica Neue',Helvetica,Arial,sans-serif" font-size="118" font-weight="800" letter-spacing="-1" fill="#1d2b4a" text-anchor="start">ABOVE THE</text><text x="70" y="930" font-family="'Sora','DM Sans','Helvetica Neue',Helvetica,Arial,sans-serif" font-size="118" font-weight="800" letter-spacing="-1" fill="#1d2b4a" text-anchor="start">LINE</text><g transform="translate(868,52) scale(0.0625)"><path d="M512,82 L847,287 L847,712 L512,925 L176,712 L176,287 Z M316,378 L316,630 L512,755 L707,630 L707,378 L512,258 Z" fill="#F5C211" fill-rule="evenodd"/><polygon points="512,391 622,504 512,617 402,504" fill="#F5C211"/></g></svg></g><rect x="310" y="436" width="350" height="70" rx="35" fill="#2a2a2a"/><circle cx="390" cy="471" r="30" fill="#4a3526"/><circle cx="390" cy="471" r="15" fill="#eee"/><line x1="390" y1="471" x2="401.0" y2="471.0" stroke="#555" stroke-width="3"/><line x1="390" y1="471" x2="395.5" y2="480.5" stroke="#555" stroke-width="3"/><line x1="390" y1="471" x2="384.5" y2="480.5" stroke="#555" stroke-width="3"/><line x1="390" y1="471" x2="379.0" y2="471.0" stroke="#555" stroke-width="3"/><line x1="390" y1="471" x2="384.5" y2="461.5" stroke="#555" stroke-width="3"/><line x1="390" y1="471" x2="395.5" y2="461.5" stroke="#555" stroke-width="3"/><circle cx="580" cy="471" r="30" fill="#4a3526"/><circle cx="580" cy="471" r="15" fill="#eee"/><line x1="580" y1="471" x2="591.0" y2="471.0" stroke="#555" stroke-width="3"/><line x1="580" y1="471" x2="585.5" y2="480.5" stroke="#555" stroke-width="3"/><line x1="580" y1="471" x2="574.5" y2="480.5" stroke="#555" stroke-width="3"/><line x1="580" y1="471" x2="569.0" y2="471.0" stroke="#555" stroke-width="3"/><line x1="580" y1="471" x2="574.5" y2="461.5" stroke="#555" stroke-width="3"/><line x1="580" y1="471" x2="585.5" y2="461.5" stroke="#555" stroke-width="3"/><rect x="440.0" y="448" width="90" height="46" fill="#111" fill-opacity=".6" stroke="#666"/><text x="290" y="538" font-family="'Sora','DM Sans','Helvetica Neue',Helvetica,Arial,sans-serif" font-size="15" font-weight="700" fill="#333">A</text><polygon points="340,630 370,570 600,570 630,630" fill="#000" fill-opacity=".35"/><circle cx="266" cy="346" r="5" fill="#777"/><circle cx="266" cy="614" r="5" fill="#777"/><circle cx="704" cy="346" r="5" fill="#777"/><circle cx="704" cy="614" r="5" fill="#777"/><rect x="250" y="330" width="470" height="300" rx="18" fill="url(#gloss)"/></svg>