<svg xmlns="http://www.w3.org/2000/svg" viewBox="0 0 800 800" width="800" height="800" role="img" aria-label="GOLDEN HOUR THEORY — CD · Jewel Case"><defs><linearGradient id="stage" x1="0" y1="0" x2="1" y2="1"><stop offset="0" stop-color="#fafaf8"/><stop offset="1" stop-color="#e4e4e0"/></linearGradient><filter id="sh" x="-20%" y="-20%" width="140%" height="150%"><feDropShadow dx="0" dy="14" stdDeviation="16" flood-color="#000" flood-opacity=".28"/></filter><filter id="shs" x="-20%" y="-20%" width="140%" height="150%"><feDropShadow dx="0" dy="5" stdDeviation="6" flood-color="#000" flood-opacity=".25"/></filter><radialGradient id="vinylShine" cx="50%" cy="50%" r="50%"><stop offset="0" stop-color="#fff" stop-opacity="0"/><stop offset=".7" stop-color="#fff" stop-opacity=".06"/><stop offset="1" stop-color="#fff" stop-opacity="0"/></radialGradient><linearGradient id="gloss" x1="0" y1="0" x2="1" y2="1"><stop offset="0" stop-color="#fff" stop-opacity=".28"/><stop offset=".45" stop-color="#fff" stop-opacity="0"/></linearGradient></defs><rect width="800" height="800" fill="url(#stage)"/><ellipse cx="400" cy="720" rx="330" ry="26" fill="#000" fill-opacity=".07"/><defs><radialGradient id="cdsil" cx="50%" cy="50%" r="50%"><stop offset=".3" stop-color="#f4f4f4"/><stop offset=".55" stop-color="#cfd6dd"/><stop offset=".7" stop-color="#f1e9ff"/><stop offset=".85" stop-color="#d7f1ee"/><stop offset="1" stop-color="#bfc4c9"/></radialGradient></defs><g filter="url(#sh)"><circle cx="575" cy="380" r="195" fill="url(#cdsil)"/></g><clipPath id="cdp"><circle cx="575" cy="380" r="189"/></clipPath><g clip-path="url(#cdp)" opacity=".92"><svg x="380" y="185" width="390" height="390" viewBox="0 0 1000 1000"><defs><linearGradient id="pfade" x1="0" y1="0" x2="0" y2="1"><stop offset="0" stop-color="#000" stop-opacity="0"/><stop offset="1" stop-color="#000" stop-opacity=".55"/></linearGradient></defs><defs><linearGradient id="psky" x1="0" y1="0" x2="0" y2="1"><stop offset="0" stop-color="#2f4f86"/><stop offset=".55" stop-color="#9cc3e6"/><stop offset="1" stop-color="#f7c9a1"/></linearGradient><radialGradient id="psun" cx="50%" cy="50%" r="50%"><stop offset="0" stop-color="#fff6d8"/><stop offset=".5" stop-color="#ffd98a"/><stop offset="1" stop-color="#ffd98a" stop-opacity="0"/></radialGradient></defs><rect width="1000" height="1000" fill="url(#psky)"/><circle cx="453" cy="335" r="230" fill="url(#psun)"/><circle cx="453" cy="335" r="80" fill="#fff4d6"/><ellipse cx="855" cy="540" rx="163" ry="56" fill="#fff" fill-opacity="0.55"/><ellipse cx="541" cy="515" rx="170" ry="43" fill="#fff" fill-opacity="0.55"/><ellipse cx="577" cy="503" rx="202" ry="59" fill="#fff" fill-opacity="0.55"/><ellipse cx="506" cy="517" rx="192" ry="50" fill="#fff" fill-opacity="0.55"/><ellipse cx="463" cy="501" rx="216" ry="66" fill="#fff" fill-opacity="0.55"/><ellipse cx="913" cy="506" rx="202" ry="59" fill="#fff" fill-opacity="0.55"/><ellipse cx="716" cy="598" rx="206" ry="41" fill="#fff" fill-opacity="0.67"/><ellipse cx="1075" cy="623" rx="187" ry="70" fill="#fff" fill-opacity="0.67"/><ellipse cx="96" cy="630" rx="126" ry="61" fill="#fff" fill-opacity="0.67"/><ellipse cx="664" cy="618" rx="161" ry="52" fill="#fff" fill-opacity="0.67"/><ellipse cx="791" cy="605" rx="213" ry="65" fill="#fff" fill-opacity="0.67"/><ellipse cx="923" cy="598" rx="168" ry="53" fill="#fff" fill-opacity="0.67"/><ellipse cx="-29" cy="703" rx="127" ry="46" fill="#fff" fill-opacity="0.79"/><ellipse cx="383" cy="727" rx="143" ry="61" fill="#fff" fill-opacity="0.79"/><ellipse cx="785" cy="714" rx="159" ry="69" fill="#fff" fill-opacity="0.79"/><ellipse cx="400" cy="716" rx="131" ry="45" fill="#fff" fill-opacity="0.79"/><ellipse cx="-17" cy="811" rx="149" ry="50" fill="#fff" fill-opacity="0.91"/><ellipse cx="152" cy="815" rx="192" ry="56" fill="#fff" fill-opacity="0.91"/><ellipse cx="670" cy="796" rx="142" ry="58" fill="#fff" fill-opacity="0.91"/><ellipse cx="893" cy="809" rx="131" ry="61" fill="#fff" fill-opacity="0.91"/><ellipse cx="1052" cy="825" rx="170" ry="52" fill="#fff" fill-opacity="0.91"/><ellipse cx="1011" cy="800" rx="133" ry="62" fill="#fff" fill-opacity="0.91"/><rect x="0" y="880" width="1000" height="120" fill="#fff" fill-opacity=".55"/><text x="70" y="96" font-family="'Sora','DM Sans','Helvetica Neue',Helvetica,Arial,sans-serif" font-size="26" font-weight="600" letter-spacing="9" fill="rgba(29,43,74,.7)" text-anchor="start">SKYCHILD</text><text x="70" y="826" font-family="'Sora','DM Sans','Helvetica Neue',Helvetica,Arial,sans-serif" font-size="106" font-weight="800" letter-spacing="-1" fill="#1d2b4a" text-anchor="start">GOLDEN HOUR</text><text x="70" y="930" font-family="'Sora','DM Sans','Helvetica Neue',Helvetica,Arial,sans-serif" font-size="106" font-weight="800" letter-spacing="-1" fill="#1d2b4a" text-anchor="start">THEORY</text><g transform="translate(868,52) scale(0.0625)"><path d="M512,82 L847,287 L847,712 L512,925 L176,712 L176,287 Z M316,378 L316,630 L512,755 L707,630 L707,378 L512,258 Z" fill="#F5C211" fill-rule="evenodd"/><polygon points="512,391 622,504 512,617 402,504" fill="#F5C211"/></g></svg></g><circle cx="575" cy="380" r="43" fill="#e6e6e3" stroke="#bbb"/><circle cx="575" cy="380" r="16" fill="#f4f4f1" stroke="#aaa"/><path d="M458,224 A195,195 0 0 1 672,210" stroke="#fff" stroke-opacity=".45" stroke-width="18" fill="none"/><g filter="url(#sh)"><rect x="90" y="150" width="470" height="430" rx="6" fill="#dfe3e6" fill-opacity=".6"/></g><svg x="124" y="156" width="430" height="418" preserveAspectRatio="xMidYMid slice" viewBox="0 0 1000 1000"><defs><linearGradient id="cfade" x1="0" y1="0" x2="0" y2="1"><stop offset="0" stop-color="#000" stop-opacity="0"/><stop offset="1" stop-color="#000" stop-opacity=".55"/></linearGradient></defs><defs><linearGradient id="csky" x1="0" y1="0" x2="0" y2="1"><stop offset="0" stop-color="#2f4f86"/><stop offset=".55" stop-color="#9cc3e6"/><stop offset="1" stop-color="#f7c9a1"/></linearGradient><radialGradient id="csun" cx="50%" cy="50%" r="50%"><stop offset="0" stop-color="#fff6d8"/><stop offset=".5" stop-color="#ffd98a"/><stop offset="1" stop-color="#ffd98a" stop-opacity="0"/></radialGradient></defs><rect width="1000" height="1000" fill="url(#csky)"/><circle cx="453" cy="335" r="230" fill="url(#csun)"/><circle cx="453" cy="335" r="80" fill="#fff4d6"/><ellipse cx="855" cy="540" rx="163" ry="56" fill="#fff" fill-opacity="0.55"/><ellipse cx="541" cy="515" rx="170" ry="43" fill="#fff" fill-opacity="0.55"/><ellipse cx="577" cy="503" rx="202" ry="59" fill="#fff" fill-opacity="0.55"/><ellipse cx="506" cy="517" rx="192" ry="50" fill="#fff" fill-opacity="0.55"/><ellipse cx="463" cy="501" rx="216" ry="66" fill="#fff" fill-opacity="0.55"/><ellipse cx="913" cy="506" rx="202" ry="59" fill="#fff" fill-opacity="0.55"/><ellipse cx="716" cy="598" rx="206" ry="41" fill="#fff" fill-opacity="0.67"/><ellipse cx="1075" cy="623" rx="187" ry="70" fill="#fff" fill-opacity="0.67"/><ellipse cx="96" cy="630" rx="126" ry="61" fill="#fff" fill-opacity="0.67"/><ellipse cx="664" cy="618" rx="161" ry="52" fill="#fff" fill-opacity="0.67"/><ellipse cx="791" cy="605" rx="213" ry="65" fill="#fff" fill-opacity="0.67"/><ellipse cx="923" cy="598" rx="168" ry="53" fill="#fff" fill-opacity="0.67"/><ellipse cx="-29" cy="703" rx="127" ry="46" fill="#fff" fill-opacity="0.79"/><ellipse cx="383" cy="727" rx="143" ry="61" fill="#fff" fill-opacity="0.79"/><ellipse cx="785" cy="714" rx="159" ry="69" fill="#fff" fill-opacity="0.79"/><ellipse cx="400" cy="716" rx="131" ry="45" fill="#fff" fill-opacity="0.79"/><ellipse cx="-17" cy="811" rx="149" ry="50" fill="#fff" fill-opacity="0.91"/><ellipse cx="152" cy="815" rx="192" ry="56" fill="#fff" fill-opacity="0.91"/><ellipse cx="670" cy="796" rx="142" ry="58" fill="#fff" fill-opacity="0.91"/><ellipse cx="893" cy="809" rx="131" ry="61" fill="#fff" fill-opacity="0.91"/><ellipse cx="1052" cy="825" rx="170" ry="52" fill="#fff" fill-opacity="0.91"/><ellipse cx="1011" cy="800" rx="133" ry="62" fill="#fff" fill-opacity="0.91"/><rect x="0" y="880" width="1000" height="120" fill="#fff" fill-opacity=".55"/><text x="70" y="96" font-family="'Sora','DM Sans','Helvetica Neue',Helvetica,Arial,sans-serif" font-size="26" font-weight="600" letter-spacing="9" fill="rgba(29,43,74,.7)" text-anchor="start">SKYCHILD</text><text x="70" y="826" font-family="'Sora','DM Sans','Helvetica Neue',Helvetica,Arial,sans-serif" font-size="106" font-weight="800" letter-spacing="-1" fill="#1d2b4a" text-anchor="start">GOLDEN HOUR</text><text x="70" y="930" font-family="'Sora','DM Sans','Helvetica Neue',Helvetica,Arial,sans-serif" font-size="106" font-weight="800" letter-spacing="-1" fill="#1d2b4a" text-anchor="start">THEORY</text><g transform="translate(868,52) scale(0.0625)"><path d="M512,82 L847,287 L847,712 L512,925 L176,712 L176,287 Z M316,378 L316,630 L512,755 L707,630 L707,378 L512,258 Z" fill="#F5C211" fill-rule="evenodd"/><polygon points="512,391 622,504 512,617 402,504" fill="#F5C211"/></g></svg><rect x="90" y="150" width="30" height="430" rx="4" fill="#222" fill-opacity=".85"/><rect x="96" y="180" width="18" height="50" rx="3" fill="#666" fill-opacity=".6"/><rect x="96" y="292" width="18" height="50" rx="3" fill="#666" fill-opacity=".6"/><rect x="96" y="404" width="18" height="50" rx="3" fill="#666" fill-opacity=".6"/><rect x="96" y="516" width="18" height="50" rx="3" fill="#666" fill-opacity=".6"/><rect x="90" y="150" width="470" height="430" rx="6" fill="url(#gloss)" stroke="#fff" stroke-opacity=".6" stroke-width="2"/><polygon points="420,150 560,150 560,310" fill="#fff" fill-opacity=".12"/></svg>